<?xml version="1.0" encoding="UTF-8" standalone="no"?>
<!-- Created with Inkscape (http://www.inkscape.org/) -->

<svg
   version="1.1"
   id="svg1"
   width="512"
   height="512"
   viewBox="0 0 512 512"
   sodipodi:docname="bell.svg"
   inkscape:version="1.3.2 (091e20e, 2023-11-25, custom)"
   xmlns:inkscape="http://www.inkscape.org/namespaces/inkscape"
   xmlns:sodipodi="http://sodipodi.sourceforge.net/DTD/sodipodi-0.dtd"
   xmlns="http://www.w3.org/2000/svg"
   xmlns:svg="http://www.w3.org/2000/svg">
  <defs
     id="defs1" />
  <sodipodi:namedview
     id="namedview1"
     pagecolor="#ffffff"
     bordercolor="#000000"
     borderopacity="0.25"
     inkscape:showpageshadow="2"
     inkscape:pageopacity="0.0"
     inkscape:pagecheckerboard="0"
     inkscape:deskcolor="#d1d1d1"
     inkscape:zoom="1.2519531"
     inkscape:cx="255.60062"
     inkscape:cy="256"
     inkscape:window-width="1600"
     inkscape:window-height="837"
     inkscape:window-x="-8"
     inkscape:window-y="-8"
     inkscape:window-maximized="1"
     inkscape:current-layer="g1" />
  <g
     inkscape:groupmode="layer"
     inkscape:label="Image"
     id="g1">
    <path
       style="fill:#ffffff;fill-opacity:1"
       d="m 246.19501,511.24514 c -16.72085,-3.58754 -32.38588,-16.00148 -39.80913,-31.54722 -4.85478,-10.16687 -6.19087,-16.19495 -6.19087,-27.93164 v -8.93403 l -83.91971,-0.26675 -83.919725,-0.26675 -2.5971,-2.44011 c -3.7026,-3.47879 -5.10974,-8.76578 -3.40595,-12.79705 0.73836,-1.74703 17.65498,-19.88893 37.59248,-40.31533 l 36.250005,-37.13891 0.0227,-68.6543 c 0.0236,-71.5693 0.60025,-86.72377 3.90106,-102.53036 11.31487,-54.18348 50.90139,-99.320802 103.11741,-117.576478 l 8.45884,-2.957367 0.67648,-11.295046 c 0.37206,-6.212276 1.42703,-13.545047 2.34436,-16.295047 10.03599,-30.08592915 48.08673,-39.1689212 70.31408,-16.784487 5.68821,5.728408 10.17547,13.524027 11.67603,20.284487 0.42727,1.925 1.0496,8.138434 1.38296,13.807632 l 0.60609,10.307632 7.5,2.510179 c 51.96212,17.391223 92.72346,63.633435 104.09597,118.092955 3.25733,15.59836 3.84415,31.18129 3.87486,102.89673 l 0.0292,68.11514 36.08331,36.88486 c 20.82027,21.28277 36.72393,38.34502 37.59779,40.33679 1.88689,4.30076 0.60128,9.49459 -3.24457,13.10797 l -2.59713,2.44011 -83.91972,0.26675 -83.91971,0.26675 v 8.93403 c 0,11.73669 -1.33609,17.76477 -6.19087,27.93164 -11.54318,24.17367 -38.94739,37.31055 -65.80913,31.54722 z m 28.41721,-26.33102 c 7.19714,-3.54314 13.17362,-9.58868 16.75936,-16.95302 1.787,-3.67012 2.35314,-6.84374 2.6602,-14.91235 l 0.39007,-10.25 h -35.22684 -35.22684 l 0.39007,10.25 c 0.31465,8.26802 0.85657,11.20841 2.8026,15.20652 8.79683,18.073 29.68377,25.40582 47.45138,16.65885 z m 151.91128,-92.61296 -25.82849,-26.49759 -141.5,0.0214 -141.5,0.0214 -25.835545,26.47617 -25.83553,26.47617 H 259.18796 452.35199 Z M 393.92988,268.04875 c -0.39148,-71.71644 -0.46364,-74.02257 -2.61688,-83.63515 -6.24739,-27.88989 -17.82265,-49.29615 -37.11799,-68.64274 -19.86533,-19.918082 -41.36825,-31.460402 -70,-37.574522 -6.37048,-1.36038 -12.75904,-1.8065 -25.5,-1.7807 -14.72355,0.0298 -18.50313,0.38444 -28.22498,2.64834 -26.83284,6.24847 -47.39494,17.68932 -66.80304,37.169502 -18.86112,18.93119 -30.40304,40.41156 -36.57309,68.06527 -2.17445,9.74576 -2.24141,11.87505 -2.63376,83.75 l -0.40259,73.75 H 259.19501 394.33247 Z M 278.18943,47.298752 c -0.0114,-10.265835 -3.8425,-17.163341 -11.45305,-20.620336 -5.12996,-2.33022 -9.95278,-2.33022 -15.08274,0 -7.61055,3.456995 -11.4416,10.354501 -11.45305,20.620336 l -0.006,5 h 19 19 z"
       id="path1" />
  </g>
</svg>
