<?xml version="1.0" encoding="UTF-8" standalone="no"?>
<!-- Created with Inkscape (http://www.inkscape.org/) -->

<svg
   width="135mm"
   height="137mm"
   viewBox="0 0 135 137"
   version="1.1"
   id="svg1"
   xml:space="preserve"
   inkscape:version="1.3.2 (091e20e, 2023-11-25, custom)"
   sodipodi:docname="book.svg"
   xmlns:inkscape="http://www.inkscape.org/namespaces/inkscape"
   xmlns:sodipodi="http://sodipodi.sourceforge.net/DTD/sodipodi-0.dtd"
   xmlns="http://www.w3.org/2000/svg"
   xmlns:svg="http://www.w3.org/2000/svg"><sodipodi:namedview
     id="namedview1"
     pagecolor="#ffffff"
     bordercolor="#000000"
     borderopacity="0.25"
     inkscape:showpageshadow="2"
     inkscape:pageopacity="0.0"
     inkscape:pagecheckerboard="0"
     inkscape:deskcolor="#d1d1d1"
     inkscape:document-units="mm"
     inkscape:zoom="0.57103676"
     inkscape:cx="397.52257"
     inkscape:cy="561.25984"
     inkscape:window-width="1600"
     inkscape:window-height="837"
     inkscape:window-x="-8"
     inkscape:window-y="-8"
     inkscape:window-maximized="1"
     inkscape:current-layer="layer1" /><defs
     id="defs1" /><g
     inkscape:label="Laag 1"
     inkscape:groupmode="layer"
     id="layer1"><path
       style="fill:#ffffff;fill-opacity:1"
       d="m 64.344714,134.7379 c -3.83374,-0.42745 -7.07691,-1.65106 -8.71329,-3.28745 l -0.91757,-0.91756 -24.29102,-0.0728 c -24.0053499,-0.072 -24.3050299,-0.0793 -25.4816499,-0.62576 -1.34338,-0.62386 -3.04196,-2.37132 -3.59759,-3.70113 -0.20414,-0.48858 -0.37116003,-1.49954 -0.37116003,-2.24658 0,-2.20228 9.95431993,-52.806602 10.58977993,-53.834802 0.95886,-1.55146 1.65482,-1.82523 5.01533,-1.97282 l 3.0374,-0.13341 0.30507,-1.37773 c 0.16778,-0.75776 0.53008,-1.76979 0.8051,-2.24896 0.54533,-0.95012 2.43561,-2.05935 3.52057,-2.0659 1.2075,-0.007 1.30621,-0.23599 0.91176,-2.11261 -0.79797,-3.79639 -0.28532,-7.80228 1.47288,-11.50938 0.87476,-1.8444 1.01881,-2.42296 1.11988,-4.49792 0.0919,-1.88693 0.25754,-2.65696 0.7979,-3.7094 0.70714,-1.37726 2.87853,-3.613819 4.00827,-4.128564 0.45052,-0.205272 0.69972,-0.588305 0.81699,-1.255781 0.79431,-4.520821 3.91384,-8.008767 8.20066,-9.169155 1.28876,-0.348851 2.27039,-0.428916 3.89417,-0.317619 l 2.17105,0.148807 1.77866,-1.64677 c 3.03671,-2.81152 6.40839,-4.130889 10.55661,-4.130889 2.62967,0 4.65787,0.466194 6.85631,1.575962 1.53147,0.773085 1.57271,0.778831 2.18098,0.303837 1.80437,-1.409011 2.90051,-1.747623 5.64708,-1.744455 3.20039,0.0037 4.55483,0.546897 6.63331,2.660314 l 1.34164,1.364195 2.09794,0.136238 c 4.27209,0.277427 8.37353,2.169909 11.61892,5.3612 2.28908,2.250919 3.857806,4.799967 4.817076,7.82732 l 0.72052,2.27387 1.22361,0.43458 c 2.81044,0.99818 4.9382,3.46677 5.72048,6.63677 0.37338,1.51303 0.39177,2.03999 0.12226,3.50269 -0.29833,1.61908 -0.27742,1.82128 0.35074,3.39143 0.98308,2.45731 1.28992,4.23364 1.13123,6.54884 l -0.14123,2.06054 h 0.71266 c 1.11617,0 3.0063,1.09419 3.56169,2.06185 0.27503,0.47917 0.63733,1.4912 0.80511,2.24896 l 0.30506,1.37773 3.03741,0.13341 c 3.36019,0.14758 4.0565,0.42141 5.01489,1.97212 0.3872,0.62649 1.89781,7.87437 5.56091,26.68102 2.76612,14.201482 5.02865,26.333422 5.02783,26.959872 -0.002,1.82437 -0.45924,2.99001 -1.72281,4.39541 -2.2209,2.47017 -0.11265,2.28988 -27.74533,2.37269 l -24.310236,0.0728 -1.30099,1.1697 c -2.06701,1.85843 -5.44011,2.88972 -10.27123,3.14036 -1.38245,0.0717 -3.46398,0.0244 -4.62563,-0.10508 z m 8.14903,-4.78445 c 2.0623,-0.43357 4.14952,-1.48685 4.14952,-2.09398 0,-0.82489 -0.5376,-7.18822 -0.68838,-8.14799 -0.13535,-0.86159 -0.16626,-0.88117 -1.11448,-0.70601 -0.5364,0.0991 -2.21699,0.64669 -3.73465,1.21689 -1.51766,0.57021 -3.06819,1.03674 -3.44562,1.03674 -0.37743,0 -1.57649,-0.34274 -2.66457,-0.76164 -2.55727,-0.98452 -5.25483,-1.73861 -5.46556,-1.52787 -0.15244,0.15243 -0.84225,7.06017 -0.86744,8.68644 -0.0175,1.12797 2.39657,2.09815 6.73591,2.7071 1.19653,0.16791 5.54117,-0.083 7.09527,-0.40968 z m -17.8675,-8.01012 c 0.18714,-2.17029 0.24667,-4.03806 0.13229,-4.15059 -0.11439,-0.11254 -1.63673,-0.41719 -3.38298,-0.677 -3.97433,-0.59132 -16.12951,-0.67913 -19.84375,-0.14336 -3.66123,0.52813 -8.42893,1.53397 -11.62825,2.45321 -3.31088,0.95129 -4.86865,0.9516 -6.20331,0.001 -0.99633,-0.70945 -1.8799,-2.33337 -1.8799,-3.4551 0,-0.6898 6.62448,-41.097932 7.0167,-42.800642 0.13209,-0.5734 0.0695,-0.59531 -1.70123,-0.59531 h -1.83837 l -0.28493,1.38906 c -1.80333,8.79146 -9.5421699,49.191862 -9.5421699,49.814632 0,0.81302 0.71112,1.73402 1.5875,2.05603 0.21828,0.0802 10.9339099,0.12513 23.8124999,0.0998 l 23.41563,-0.046 z m 74.515556,3.30455 c 0.45866,-0.43093 0.6827,-0.91993 0.6827,-1.49005 0,-0.63804 -7.69162,-40.774912 -9.54207,-49.793002 l -0.28503,-1.38906 h -1.83836 c -1.7707,0 -1.83332,0.0219 -1.70123,0.59531 0.39222,1.70271 7.01669,42.110842 7.01669,42.800642 0,1.12173 -0.88356,2.74565 -1.87989,3.4551 -1.32746,0.94523 -2.89439,0.94922 -6.151,0.0157 -4.15989,-1.1925 -8.52199,-2.06085 -12.87119,-2.56224 -4.840376,-0.55802 -14.443326,-0.41558 -19.049996,0.28256 -1.67349,0.25362 -3.0808,0.49362 -3.12736,0.53333 -0.10366,0.0884 0.48002,7.53086 0.62732,7.99891 0.0842,0.26757 4.86406,0.32077 23.771046,0.26459 l 23.66566,-0.0703 z M 18.793544,115.04696 c 10.25155,-3.12027 22.48789,-3.99949 33.24347,-2.38864 3.48022,0.52123 8.25454,1.5801 10.84791,2.4059 1.09141,0.34753 2.13321,0.6334 2.31511,0.63526 0.26062,0.003 0.33073,-3.08404 0.33073,-14.56074 V 86.574628 l 0.64943,-0.64943 c 0.40937,-0.40937 0.95173,-0.64943 1.46723,-0.64943 0.51551,0 1.05787,0.24006 1.46724,0.64943 l 0.64943,0.64943 v 14.564112 c 0,8.01026 0.0893,14.56337 0.19844,14.56247 0.10914,-9e-4 1.41906,-0.35373 2.91094,-0.78407 7.19783,-2.07623 13.66724,-2.98195 21.36458,-2.99104 7.885786,-0.009 14.382566,0.85997 21.293376,2.84911 1.79218,0.51584 3.29774,0.89867 3.34568,0.85073 0.13053,-0.13052 -7.88529,-48.444492 -8.07306,-48.659022 -0.089,-0.10169 -0.63809,-0.25757 -1.22017,-0.34639 -0.98297,-0.15 -1.10066,-0.0981 -1.65273,0.72909 -0.32691,0.48983 -0.78501,1.53867 -1.01798,2.33077 -0.82176,2.79389 -2.48328,5.53698 -4.79745,7.92034 l -2.181599,2.24684 0.985719,2.25108 c 0.86924,1.98506 0.9855,2.50122 0.98385,4.36775 -10e-4,1.66898 -0.1249,2.34848 -0.58349,3.21271 -1.29052,2.43202 -4.339526,4.05189 -6.903066,3.66746 -1.7442,-0.26156 -3.12018,-1.03293 -4.94277,-2.77092 -1.77842,-1.69587 -2.45062,-2.09361 -5.21726,-3.08711 -5.34929,-1.92091 -8.51007,-4.36938 -9.56166,-7.40685 -0.33429,-0.96556 -0.35956,-0.9792 -2.70054,-1.45765 -2.32859,-0.47591 -2.37276,-0.47534 -3.02456,0.0391 -1.23814,0.97719 -2.86366,1.87373 -4.40996,2.43225 -1.8988,0.68584 -5.5039,0.91731 -7.57864,0.48659 -3.28825,-0.68264 -6.93056,-3.13977 -8.6984,-5.86801 -0.7801,-1.20389 -0.93043,-1.31099 -1.66089,-1.18325 -6.12862,1.07182 -12.15283,-0.77868 -16.41713,-5.04298 -0.68563,-0.68563 -1.53328,-1.6798 -1.88366,-2.20927 l -0.63706,-0.96266 -1.48466,0.20147 c -0.81656,0.11081 -1.57023,0.29892 -1.67482,0.41801 -0.10459,0.11909 -1.93977,10.8131 -4.07817,23.76445 -2.13841,12.951352 -3.95162,23.875342 -4.02937,24.275522 -0.0778,0.40018 -0.0598,0.7276 0.0398,0.7276 0.0997,0 1.15091,-0.29515 2.33612,-0.65589 z m 78.15649,-27.007542 c 0.80487,-0.91463 0.75187,-1.89518 -0.22989,-4.25349 -0.66173,-1.58954 -0.9107,-1.94463 -1.25677,-1.79244 -0.23737,0.10438 -1.23389,0.40362 -2.2145,0.66498 -2.23425,0.5955 -3.25214,0.3336 -3.80005,-0.97772 -0.69084,-1.65344 0.15079,-2.67698 2.78249,-3.38391 2.57021,-0.69042 4.45939,-1.72133 6.29711,-3.4363 0.91451,-0.85343 1.662746,-1.64879 1.662746,-1.76747 0,-0.11868 -0.386159,-0.10502 -0.858146,0.0303 -0.47198,0.13536 -1.83666,0.24611 -3.03263,0.24611 -2.66569,0 -5.43421,-0.81063 -7.53827,-2.20722 -1.43733,-0.95405 -1.47366,-0.96248 -2.90723,-0.67458 -2.94382,0.59121 -6.11671,-0.74716 -7.82257,-3.29966 -1.06492,-1.59345 -1.08477,-2.36562 -0.0865,-3.36389 1.13061,-1.13061 2.7479,-0.91322 3.48753,0.46878 1.20127,2.2446 4.47414,2.41105 5.80217,0.2951 0.55363,-0.88209 0.57287,-1.67782 0.0994,-4.10853 -0.13907,-0.71384 -0.0362,-0.9811 0.63632,-1.65364 1.02556,-1.02556 1.96715,-1.04156 2.95845,-0.0502 1.44907,1.44907 1.73257,5.09345 0.57303,7.36633 l -0.55671,1.09125 0.6013,0.39399 c 1.10956,0.72701 3.09262,1.24441 4.76956,1.24441 5.657586,0 10.036146,-4.6949 9.633026,-10.329 -0.16776,-2.34467 -0.29759,-2.51888 -1.3791,-1.85047 -1.95324,1.20717 -3.9696,0.28533 -3.80205,-1.73822 0.0713,-0.86156 0.27768,-1.15957 1.37667,-1.98832 1.82146,-1.37358 2.4026,-2.39397 2.4026,-4.21864 0,-1.90875 -0.90201,-3.37712 -2.5708,-4.18497 -1.51218,-0.73203 -2.656136,-0.70525 -4.391966,0.10282 -1.64947,0.76788 -2.3393,0.81904 -3.1727,0.2353 -0.91381,-0.64006 -1.16558,-1.55434 -0.72102,-2.61832 0.28601,-0.68452 0.7574,-1.09245 1.96938,-1.70425 l 1.59337,-0.80433 -0.52008,-1.52424 c -1.12762,-3.304762 -4.23157,-6.772457 -7.34822,-8.209336 -1.64079,-0.756459 -3.829,-1.377056 -4.87133,-1.381555 -0.60401,-0.0026 -0.7276,0.111261 -0.7276,0.670344 0,0.917355 -1.10667,1.972349 -2.06896,1.972349 -1.31027,0 -2.06996,-0.843285 -2.38843,-2.651259 -0.155,-0.879984 -0.53522,-1.955826 -0.84492,-2.390762 -1.1944,-1.677384 -4.01278,-2.338241 -5.98358,-1.403036 -1.30499,0.619256 -2.16327,1.885625 -2.50292,3.692963 -0.47782,2.542603 -2.13464,3.490336 -3.80493,2.176488 -0.71537,-0.562713 -0.72855,-0.622539 -0.58813,-2.671131 l 0.14363,-2.095526 -1.49807,-0.702306 c -1.33945,-0.627944 -1.80623,-0.701833 -4.40849,-0.697836 -2.59596,0.004 -3.07488,0.08107 -4.4326,0.713412 -2.14961,1.001161 -4.23821,3.07109 -5.35868,5.310784 -0.50839,1.016202 -0.92434,2.001595 -0.92434,2.189762 0,0.188168 -0.31371,0.58889 -0.69714,0.890493 -2.0079,1.579412 -4.2425,-0.469864 -3.27816,-3.00628 0.24929,-0.655673 0.2235,-0.678683 -0.76048,-0.678683 -2.40134,0 -4.85388,1.544085 -5.95169,3.747107 -0.73442,1.473783 -0.69997,1.809033 0.1859,1.809352 1.08284,3.9e-4 3.73387,1.484848 4.87917,2.732116 1.27559,1.38916 1.44349,2.34701 0.5995,3.41997 -1.01905,1.29551 -2.51321,1.11773 -3.97293,-0.47271 -1.70659,-1.85942 -4.5757,-1.93634 -6.43977,-0.17265 -1.09815,1.03902 -1.49773,1.96983 -1.49773,3.4889 0,1.65323 0.39445,2.44267 1.96191,3.92645 1.45942,1.38151 1.64089,2.54897 0.56365,3.6262 -0.98652,0.98653 -2.3456,0.81934 -3.75442,-0.46186 -0.67792,-0.61651 -0.76243,-0.50568 -1.27624,1.674 -0.77271,3.27794 -0.43661,6.21777 1.07509,9.40369 2.33536,4.9218 8.32435,8.22997 13.74573,7.5928 1.4205,-0.16696 1.44261,-0.1829 1.44261,-1.04027 0,-0.91431 -0.56394,-1.70226 -1.21832,-1.70226 -0.82375,0 -2.99631,-1.35276 -3.99536,-2.48774 -1.87,-2.12443 -2.50582,-5.42723 -1.28064,-6.65241 1.44613,-1.44613 3.84606,-0.33605 3.84948,1.78057 0.002,1.24914 1.73213,3.12625 2.88145,3.12625 0.14458,0 0.58651,-0.72114 0.98205,-1.60253 0.79742,-1.77689 1.4362,-2.36622 2.56473,-2.36622 0.86743,0 2.30352,1.26792 2.29944,2.03016 -10e-4,0.26586 -0.29267,1.10646 -0.64723,1.868 -2.3929,5.13969 -0.48079,10.74297 4.50069,13.18884 1.40297,0.68885 1.8449,0.77237 4.08663,0.77237 2.20053,0 2.69475,-0.0895 3.96874,-0.71838 0.80037,-0.39512 2.06974,-1.25832 2.82082,-1.91823 1.58036,-1.38854 2.05856,-1.45488 4.58752,-0.63647 2.16091,0.6993 6.52557,0.78523 8.77181,0.17269 1.81434,-0.49476 2.7135,-0.35686 3.40498,0.52222 0.62668,0.79669 0.67305,1.84962 0.11646,2.64427 -0.40527,0.5786 -2.5797,1.38911 -3.7267,1.38911 -0.96982,0 -0.94104,0.39327 0.10574,1.44498 1.13111,1.13642 3.08581,2.18558 6.16714,3.31012 2.83339,1.03406 4.27055,1.89757 6.19494,3.72218 0.87313,0.82785 1.7661,1.57587 1.98438,1.66226 0.73158,0.28953 1.97887,-0.0786 2.57969,-0.76131 z m -36.70421,-21.01317 c -1.59293,-1.59293 -0.31226,-3.97548 2.13689,-3.97548 1.11907,0 2.63744,-0.62658 3.67922,-1.5183 1.14726,-0.98202 1.31984,-1.39211 0.58584,-1.39211 -1.01631,0 -4.31498,-1.86345 -5.73723,-3.24101 -1.71161,-1.65782 -1.92961,-2.66863 -0.81577,-3.78248 1.04709,-1.04709 2.2059,-0.88542 3.87684,0.54088 2.85384,2.43599 6.63447,3.01945 9.84129,1.5188 2.68626,-1.25705 4.19145,-3.07639 5.11327,-6.18049 0.57459,-1.93487 2.08224,-2.65136 3.49575,-1.6613 0.98837,0.69228 1.17377,1.56876 0.68796,3.25219 -1.30489,4.52169 -4.63521,7.97475 -8.99717,9.32877 -1.78614,0.55445 -1.94945,0.66936 -2.46801,1.73671 -0.71525,1.47222 -2.38384,3.27569 -3.95138,4.27082 -2.4898,1.58061 -6.39197,2.15854 -7.4475,1.103 z m -9.51639,-17.32061 c -0.53671,-0.57131 -0.5943,-0.85337 -0.50324,-2.46495 0.26849,-4.75153 4.34066,-8.83782 9.21448,-9.24642 1.69223,-0.14187 1.85209,-0.10763 2.4939,0.53418 1.48145,1.48145 0.33287,3.88482 -1.85657,3.88482 -2.73322,0 -5.06672,2.29487 -5.51526,5.42396 -0.24426,1.70406 -0.97246,2.51354 -2.26115,2.51354 -0.68188,0 -1.14439,-0.18979 -1.57216,-0.64513 z m -32.99367,-9.76361 c -1.76699,-0.75087 -3.4165,-1.53892 -3.66558,-1.75122 -0.70848,-0.60385 -0.93886,-1.485159 -0.62419,-2.387807 0.32545,-0.933593 0.92648,-1.327231 2.02649,-1.327231 1.15863,0 7.22487,2.551439 7.92338,3.332548 1.24974,1.39752 0.27662,3.57342 -1.57547,3.52278 -0.47956,-0.0131 -2.31764,-0.63819 -4.08463,-1.38907 z m 94.217336,0.76348 c -0.82495,-0.82496 -0.8471,-2.01044 -0.0541,-2.89719 0.69851,-0.781109 6.76475,-3.332548 7.92339,-3.332548 1.10001,0 1.70104,0.393638 2.02649,1.327231 0.60758,1.742887 -0.10527,2.418887 -4.43021,4.201187 -3.71393,1.53051 -4.53146,1.63541 -5.46555,0.70132 z M 30.718184,23.951272 c -0.30197,-0.04593 -1.30805,-0.849329 -2.23573,-1.785329 -1.45378,-1.466816 -1.68669,-1.835206 -1.68669,-2.667783 0,-1.201378 1.04764,-2.220306 2.28287,-2.220306 1.18655,0 4.43755,3.235665 4.43755,4.416617 0,1.481674 -1.25247,2.491884 -2.798,2.256801 z m 72.477856,-0.05091 c -0.7946,-0.328649 -1.41737,-1.308061 -1.41737,-2.229081 0,-1.158376 3.26754,-4.393427 4.43755,-4.393427 1.23785,0 2.28287,1.018735 2.28287,2.22545 0,0.842956 -0.22521,1.194661 -1.70656,2.665139 -1.74746,1.734628 -2.59876,2.144577 -3.59649,1.731919 z M 47.935974,14.381895 c -0.29105,-0.119121 -0.71875,-0.438996 -0.95046,-0.710833 -0.65834,-0.772354 -3.15059,-6.9553421 -3.15059,-7.8162491 0,-1.796402 2.43401,-2.761279 3.66369,-1.452343 0.31951,0.340102 1.24488,2.251854 2.05638,4.248339 1.35239,3.3272011 1.44812,3.6959671 1.14772,4.4211941 -0.18026,0.435172 -0.66224,0.964201 -1.07108,1.17562 -0.83338,0.430957 -0.94851,0.440074 -1.69566,0.134272 z m 37.6735,-0.140431 c -0.38009,-0.209999 -0.83822,-0.737062 -1.01807,-1.17125 -0.29937,-0.722744 -0.20211,-1.098029 1.15133,-4.4424591 1.84475,-4.558478 2.73747,-5.462764 4.47782,-4.535849 0.81864,0.436012 1.22122,1.038125 1.23096,1.84108 0.0112,0.926856 -2.56573,7.0907921 -3.27055,7.8229211 -0.73979,0.768453 -1.72332,0.954166 -2.57149,0.485557 z M 66.721384,8.2410809 c -0.98344,-0.537898 -1.19062,-1.072081 -1.19062,-3.069732 0,-2.261754 0.20955,-2.778158 1.3128,-3.235139 0.94081,-0.389696 2.23483,0.0027 2.66606,0.808455 0.28199,0.526916 0.34859,3.925884 0.0901,4.59946 -0.17553,0.457414 -1.43529,1.207771 -2.00532,1.194434 -0.18913,-0.0044 -0.58199,-0.13829 -0.87304,-0.297478 z"
       id="path1" /></g></svg>
