<?xml version="1.0" encoding="UTF-8" standalone="no"?>
<!-- Created with Inkscape (http://www.inkscape.org/) -->

<svg
   version="1.1"
   id="svg1"
   width="490"
   height="470"
   viewBox="0 0 490 470"
   sodipodi:docname="check.svg"
   inkscape:version="1.3.2 (091e20e, 2023-11-25, custom)"
   xml:space="preserve"
   xmlns:inkscape="http://www.inkscape.org/namespaces/inkscape"
   xmlns:sodipodi="http://sodipodi.sourceforge.net/DTD/sodipodi-0.dtd"
   xmlns="http://www.w3.org/2000/svg"
   xmlns:svg="http://www.w3.org/2000/svg"><defs
     id="defs1" /><sodipodi:namedview
     id="namedview1"
     pagecolor="#ffffff"
     bordercolor="#000000"
     borderopacity="0.25"
     inkscape:showpageshadow="2"
     inkscape:pageopacity="0.0"
     inkscape:pagecheckerboard="0"
     inkscape:deskcolor="#d1d1d1"
     showgrid="false"
     inkscape:zoom="1.2519531"
     inkscape:cx="255.60062"
     inkscape:cy="237.62871"
     inkscape:window-width="1600"
     inkscape:window-height="837"
     inkscape:window-x="-8"
     inkscape:window-y="-8"
     inkscape:window-maximized="1"
     inkscape:current-layer="g1" /><g
     inkscape:groupmode="layer"
     inkscape:label="Image"
     id="g1"><path
       style="fill:#ffffff;fill-opacity:1;stroke:none;stroke-width:1.1"
       d="m 167.95541,407.61387 c -2.56219,-0.88599 -6.53486,-2.72652 -8.82816,-4.09007 -2.3722,-1.41046 -34.47671,-32.8504 -74.475141,-72.93349 -55.378243,-55.49545 -70.807751,-71.46467 -72.67097,-75.21297 -3.626185,-7.29491 -4.884322,-15.72978 -3.48169,-23.34214 4.625768,-25.10495 30.823384,-38.23275 53.99482,-27.05716 5.456396,2.63161 11.385506,8.24411 61.332481,58.0573 L 179.1189,318.17941 301.31921,196.08757 C 388.13895,109.34489 424.69838,73.408007 427.59115,71.965775 c 9.40812,-4.690543 18.47841,-5.808396 27.52389,-3.392136 18.83565,5.031433 30.87284,23.602716 27.54474,42.496671 -2.28287,12.96 5.56319,4.5371 -140.86026,151.21636 -74.14122,74.27074 -137.23913,136.88578 -140.21756,139.14456 -9.5749,7.26137 -23.24069,9.77398 -33.62655,6.18264 z"
       id="path2" /></g></svg>
