<?xml version="1.0" encoding="UTF-8" standalone="no"?>
<!-- Created with Inkscape (http://www.inkscape.org/) -->

<svg
   version="1.1"
   id="svg1"
   width="490"
   height="470"
   viewBox="0 0 490 470"
   sodipodi:docname="documentatie.svg"
   inkscape:version="1.3.2 (091e20e, 2023-11-25, custom)"
   xml:space="preserve"
   xmlns:inkscape="http://www.inkscape.org/namespaces/inkscape"
   xmlns:sodipodi="http://sodipodi.sourceforge.net/DTD/sodipodi-0.dtd"
   xmlns="http://www.w3.org/2000/svg"
   xmlns:svg="http://www.w3.org/2000/svg"><defs
     id="defs1" /><sodipodi:namedview
     id="namedview1"
     pagecolor="#ffffff"
     bordercolor="#000000"
     borderopacity="0.25"
     inkscape:showpageshadow="2"
     inkscape:pageopacity="0.0"
     inkscape:pagecheckerboard="0"
     inkscape:deskcolor="#d1d1d1"
     showgrid="false"
     inkscape:zoom="1.2519531"
     inkscape:cx="255.60062"
     inkscape:cy="237.62871"
     inkscape:window-width="1600"
     inkscape:window-height="837"
     inkscape:window-x="-8"
     inkscape:window-y="-8"
     inkscape:window-maximized="1"
     inkscape:current-layer="g1" /><g
     inkscape:groupmode="layer"
     inkscape:label="Image"
     id="g1"><g
       id="g2"
       transform="translate(6.3900219,2.37754)"><path
         style="fill:#ffffff;fill-opacity:1"
         d="m 129.74244,447.53907 c -19.00827,-5.05611 -31.550298,-22.551 -31.588958,-44.06346 l -0.007,-3.80286 7.464898,-0.41538 c 12.8125,-0.71295 22.23678,-7.18781 27.67857,-19.01631 2.01685,-4.38393 2.40644,-6.50339 2.40237,-13.06945 -0.004,-6.63883 -0.37824,-8.61319 -2.44715,-12.91415 -5.29418,-11.00585 -13.99637,-17.00517 -27.04022,-18.64165 l -8.058468,-1.01102 V 321.97705 309.3493 l 7.189278,-0.50211 c 12.73435,-0.88938 22.05747,-6.9679 27.28602,-17.79003 10.63141,-22.00502 -5.24962,-46.51113 -30.14123,-46.51113 h -4.334068 v -12.90796 -12.90796 h 4.334068 c 19.58671,0 34.91746,-15.87941 33.43984,-34.6366 -1.3013,-16.51897 -13.57734,-28.47675 -30.44401,-29.65474 l -7.329898,-0.51193 v -12.62775 -12.62774 l 8.058468,-1.01102 c 13.04385,-1.63647 21.74604,-7.6358 27.04022,-18.64165 2.06891,-4.30096 2.44304,-6.27532 2.44715,-12.914152 0.004,-6.66284 -0.37839,-8.682 -2.55318,-13.47723 -5.13718,-11.32696 -14.90553,-17.93394 -27.5278,-18.61885 l -7.464898,-0.40505 0.007,-3.80287 c 0.0303,-16.8855 7.959438,-31.79403 21.115028,-39.70118 10.53343,-6.3311 3.9166,-6.05255 143.77304,-6.05255 108.84085,0 126.79074,0.18807 131.26404,1.37532 16.02715,4.25371 28.37748,17.46493 31.37302,33.55991 1.27585,6.85515 1.27585,358.456932 0,365.312092 -2.99554,16.09497 -15.34587,29.30619 -31.37302,33.5599 -4.47869,1.18868 -22.37763,1.3681 -131.89507,1.32217 -116.76299,-0.049 -127.18078,-0.17753 -132.66807,-1.63712 z M 333.02038,320.16769 c 10.07231,-5.20399 23.45447,-17.74708 27.15345,-25.4509 3.43254,-7.14892 3.86568,-14.89919 1.23231,-22.04986 -1.77689,-4.82496 -3.7558,-7.30885 -15.48381,-19.43496 -15.70866,-16.24188 -18.68489,-18.15993 -28.97297,-18.67177 -5.96306,-0.29667 -7.66724,-0.0132 -11.96018,1.98945 -2.75346,1.28448 -6.9956,4.23148 -9.42699,6.54889 -2.43138,2.31742 -4.98661,4.21348 -5.67827,4.21348 -1.65507,0 -52.39251,-51.69439 -52.39251,-53.38067 0,-0.71498 2.05864,-3.51796 4.57475,-6.22884 6.20369,-6.68389 8.38591,-11.95842 8.39074,-20.28079 0.006,-10.24124 -2.20899,-13.90323 -18.15902,-30.02261 -15.83253,-16.00065 -18.77373,-17.78456 -29.19025,-17.70472 -9.17446,0.0703 -13.83271,2.45679 -23.18557,11.87819 -15.75518,15.87064 -20.45472,28.78506 -17.12168,47.05067 9.5085,52.10822 83.38628,130.91483 135.31505,144.34275 5.04128,1.30359 9.37491,1.6998 16.85348,1.54084 9.95608,-0.21161 10.15535,-0.25951 18.05147,-4.33915 z M 302.18719,304.9538 c -19.51229,-5.3681 -42.65944,-20.86011 -66.83835,-44.73383 -32.0715,-31.66667 -54.9985,-69.36187 -55.2366,-90.81669 -0.0949,-8.54738 2.30234,-13.37465 11.52929,-23.21673 7.74098,-8.25704 10.31674,-9.50629 15.21792,-7.38074 4.0287,1.74716 24.92656,23.57329 25.38022,26.50758 0.62433,4.03824 -0.9887,7.62329 -5.55641,12.3495 -2.47086,2.55659 -5.1216,6.19089 -5.89053,8.07622 -1.79083,4.39094 -1.78986,11.80706 0.002,16.19417 1.89517,4.63975 55.52473,59.47194 60.64058,62.00043 4.96592,2.45439 12.86314,2.42877 17.64545,-0.0573 1.98433,-1.03152 5.84059,-3.93581 8.56948,-6.45398 4.26572,-3.93632 5.48625,-4.57847 8.70221,-4.57847 3.59066,0 4.2229,0.4897 15.77249,12.21646 12.23193,12.41957 13.82278,14.91345 12.62231,19.7872 -0.94934,3.85423 -12.80876,15.16025 -19.44879,18.54124 -4.90601,2.49805 -6.70363,2.92196 -12.17166,2.87024 -3.52855,-0.0334 -8.45143,-0.62078 -10.93973,-1.30534 z M 72.103812,379.46821 c -9.01914,-4.52966 -9.68105,-17.33488 -1.19465,-23.11168 2.9299,-1.99442 3.89193,-2.09287 20.45121,-2.09287 16.559278,0 17.521308,0.0985 20.451208,2.09287 8.55267,5.82191 7.80438,18.72563 -1.34237,23.14837 -4.50276,2.17723 -34.013408,2.149 -38.365398,-0.0367 z m 0.0747,-90.74025 c -2.77835,-1.40135 -4.32764,-3.02791 -5.76416,-6.05164 -3.10466,-6.53501 -1.40415,-12.50529 4.93564,-17.32839 2.32234,-1.76677 3.73499,-1.90097 20.01034,-1.90097 16.275358,0 17.688008,0.1342 20.010348,1.90097 6.3466,4.82828 8.04073,10.79247 4.92719,17.34616 -3.29262,6.93066 -6.50337,7.95193 -24.997008,7.95106 -13.69312,-6.5e-4 -15.72684,-0.20455 -19.12235,-1.91719 z m 2.09788,-89.35464 c -5.01048,-1.59954 -9.60872,-7.84622 -9.60872,-13.05338 0,-4.26679 3.56267,-9.80923 7.57875,-11.79026 3.42154,-1.68775 5.55151,-1.89941 19.11391,-1.89941 13.562408,0 15.692378,0.21166 19.113918,1.89941 7.04545,3.47533 9.56964,13.0707 5.05817,19.22793 -4.22205,5.76223 -5.28309,6.05543 -22.652388,6.2597 -8.79839,0.10347 -17.17003,-0.18633 -18.60364,-0.64399 z m -3.36727,-92.45371 c -8.55267,-5.82191 -7.80438,-18.725632 1.34237,-23.148372 4.51487,-2.18308 33.702818,-2.18308 38.217688,0 9.14675,4.42274 9.89504,17.326462 1.34237,23.148372 -2.9299,1.99443 -3.89193,2.09287 -20.451218,2.09287 -16.55928,0 -17.52131,-0.0984 -20.45121,-2.09287 z"
         id="path2" /><rect
         style="fill:#ffffff;fill-opacity:1;stroke:none"
         id="rect2"
         width="219.65678"
         height="260.39313"
         x="155.75664"
         y="103.039" /></g></g></svg>
