<?xml version="1.0" encoding="UTF-8" standalone="no"?>
<!-- Created with Inkscape (http://www.inkscape.org/) -->

<svg
   width="150mm"
   height="147mm"
   viewBox="0 0 150 147"
   version="1.1"
   id="svg1"
   xml:space="preserve"
   inkscape:version="1.3.2 (091e20e, 2023-11-25, custom)"
   sodipodi:docname="info.svg"
   xmlns:inkscape="http://www.inkscape.org/namespaces/inkscape"
   xmlns:sodipodi="http://sodipodi.sourceforge.net/DTD/sodipodi-0.dtd"
   xmlns="http://www.w3.org/2000/svg"
   xmlns:svg="http://www.w3.org/2000/svg"><sodipodi:namedview
     id="namedview1"
     pagecolor="#ffffff"
     bordercolor="#000000"
     borderopacity="0.25"
     inkscape:showpageshadow="2"
     inkscape:pageopacity="0.0"
     inkscape:pagecheckerboard="0"
     inkscape:deskcolor="#d1d1d1"
     inkscape:document-units="mm"
     inkscape:zoom="0.40378396"
     inkscape:cx="260.04005"
     inkscape:cy="395.01321"
     inkscape:window-width="1600"
     inkscape:window-height="837"
     inkscape:window-x="-8"
     inkscape:window-y="-8"
     inkscape:window-maximized="1"
     inkscape:current-layer="layer1" /><defs
     id="defs1" /><g
     inkscape:label="Laag 1"
     inkscape:groupmode="layer"
     id="layer1"><path
       style="fill:#ffffff;fill-opacity:1;stroke-width:1.26445"
       d="m 113.72178,133.40101 -2.27716,1.43816 C 100.26918,141.8971 85.198186,145.79494 71.549916,145.15719 53.351926,144.30685 36.859717,137.04567 24.064293,124.25026 13.339695,113.52566 6.5008286,100.16407 3.8693184,84.793887 3.0207332,79.83745 3.0207332,67.982115 3.8693184,63.025679 6.5008286,47.655491 13.339695,34.293913 24.064293,23.569314 34.788903,12.844715 48.150472,6.0058493 63.520658,3.3743343 c 4.956442,-0.8485866 16.811774,-0.8485866 21.768215,0 26.138367,4.4751249 47.266157,21.9151377 56.157547,46.3555197 7.33363,20.158449 4.98899,43.642249 -6.1122,61.219786 l -1.43818,2.27716 c -5.65156,7.97681 -12.18259,14.92754 -20.17426,20.17421 z M 82.304253,137.6246 C 101.31553,135.09367 117.69885,124.81955 128.15051,108.87402 139.27267,91.905457 141.62666,71.188537 134.63732,51.784718 128.41143,34.500353 113.84744,19.934805 96.529834,13.673078 88.860704,10.900066 82.87462,9.8715314 74.404766,9.8715314 c -8.469856,0 -14.455939,1.0285346 -22.125068,3.8015466 -17.317401,6.261654 -31.849978,20.794235 -38.111636,38.11164 -2.773016,7.669124 -3.801544,13.655206 -3.801544,22.125064 0,8.469859 1.028528,14.455941 3.801544,22.125064 6.261658,17.317414 20.794235,31.849994 38.111636,38.111624 5.757078,2.08165 9.324509,2.8584 17.307514,3.76838 2.763391,0.31501 9.289421,0.16604 12.717041,-0.29025 z M 68.51664,130.62743 c -9.415335,-0.93013 -19.44288,-4.76688 -27.512043,-10.52672 -4.10166,-2.9278 -9.829821,-8.6623 -12.81075,-12.8249 -4.363882,-6.09379 -8.167474,-14.63573 -9.613575,-21.589784 -1.495692,-7.192553 -1.495692,-16.359933 0,-23.552488 1.446758,-6.957199 5.236619,-15.464077 9.633566,-21.623924 2.927809,-4.101656 8.662305,-9.829827 12.824899,-12.810752 6.093802,-4.363889 14.635731,-8.167469 21.589788,-9.613568 7.192546,-1.495696 16.359935,-1.495696 23.552481,0 6.954058,1.446099 15.495984,5.249679 21.589784,9.613568 4.1626,2.980925 9.8971,8.709096 12.8249,12.810752 4.39696,6.159847 8.18684,14.666725 9.6336,21.623924 1.49571,7.192555 1.49571,16.359935 0,23.552488 -1.44611,6.954054 -5.24972,15.495994 -9.61361,21.589784 -1.26498,1.76643 -3.93458,4.85336 -5.93243,6.85984 -12.16158,12.21406 -28.909081,18.19663 -46.16661,16.49178 z m 11.776252,-7.15186 C 100.79843,120.97262 117.63794,106.19869 122.75575,86.221311 129.57612,59.598096 113.4172,32.399045 86.716298,25.558801 69.368651,21.114678 51.193422,26.266068 38.683156,39.172784 32.303297,45.754835 28.284407,52.891004 26.05379,61.598255 c -5.586643,21.807473 4.106847,44.457955 23.876294,55.791015 8.979733,5.14773 19.982736,7.35332 30.362808,6.0863 z"
       id="path1"
       sodipodi:nodetypes="cssssscssssccsssssssssscsssssccssssssssssssscsss" /><path
       style="fill:#ffffff;fill-opacity:1"
       d="m 71.642068,107.9179 c -0.64135,-0.33859 -1.52328,-1.12267 -1.95984,-1.74239 l -0.79375,-1.12678 -0.0804,-18.167486 c -0.056,-12.647253 0.008,-18.470309 0.21037,-19.164072 0.34601,-1.185746 1.61276,-2.700644 2.75361,-3.293005 1.06229,-0.551574 3.48936,-0.551574 4.55165,0 1.14085,0.592361 2.4076,2.107259 2.75361,3.293005 0.20244,0.693763 0.26636,6.516819 0.21037,19.164072 l -0.0804,18.167486 -0.79375,1.12678 c -1.00953,1.43308 -2.72196,2.35802 -4.36562,2.35802 -0.78723,0 -1.6653,-0.22469 -2.40579,-0.61563 z m 0.0702,-50.95301 c -5.87401,-2.028671 -6.42255,-10.058241 -0.88248,-12.91792 2.62416,-1.354543 5.00721,-1.162072 7.50006,0.605753 1.48618,1.053943 2.60827,3.109085 2.78242,5.096079 0.27781,3.169876 -1.91628,6.398505 -4.96315,7.303328 -1.79449,0.532909 -2.69232,0.515255 -4.43685,-0.08724 z"
       id="path2"
       sodipodi:nodetypes="sscccsssccssssssssss" /></g></svg>
