<?xml version="1.0" encoding="UTF-8" standalone="no"?>
<!-- Created with Inkscape (http://www.inkscape.org/) -->

<svg
   version="1.1"
   id="svg1"
   width="490"
   height="470"
   viewBox="0 0 490 470"
   sodipodi:docname="key.svg"
   inkscape:version="1.3.2 (091e20e, 2023-11-25, custom)"
   xmlns:inkscape="http://www.inkscape.org/namespaces/inkscape"
   xmlns:sodipodi="http://sodipodi.sourceforge.net/DTD/sodipodi-0.dtd"
   xmlns="http://www.w3.org/2000/svg"
   xmlns:svg="http://www.w3.org/2000/svg">
  <defs
     id="defs1" />
  <sodipodi:namedview
     id="namedview1"
     pagecolor="#ffffff"
     bordercolor="#000000"
     borderopacity="0.25"
     inkscape:showpageshadow="2"
     inkscape:pageopacity="0.0"
     inkscape:pagecheckerboard="0"
     inkscape:deskcolor="#d1d1d1"
     showgrid="false"
     inkscape:zoom="1.2519531"
     inkscape:cx="255.60062"
     inkscape:cy="256"
     inkscape:window-width="1600"
     inkscape:window-height="837"
     inkscape:window-x="-8"
     inkscape:window-y="-8"
     inkscape:window-maximized="1"
     inkscape:current-layer="g1" />
  <g
     inkscape:groupmode="layer"
     inkscape:label="Image"
     id="g1">
    <path
       style="fill:#ffffff;stroke:none;fill-opacity:1"
       d="m 24.938214,459.88893 c -2.66184,-1.3176 -4.24829,-2.92054 -5.54826,-5.60591 -1.75234,-3.61986 -1.82053,-5.24741 -1.82053,-43.45646 0,-33.74878 0.2051,-40.19021 1.36901,-42.99621 0.96218,-2.31967 26.03598,-27.9818 84.376936,-86.35676 l 83.00793,-83.05632 -1.7932,-6.60367 c -6.25321,-23.02817 -6.6866,-46.79623 -1.29271,-70.89542 C 200.12561,45.463816 273.38708,-3.3222974 350.46543,9.5580506 400.00678,17.836769 442.719,52.330325 461.35026,99.106489 c 7.31022,18.353231 10.20307,33.846051 10.19302,54.589281 -0.0134,27.77151 -6.34143,51.29324 -20.03741,74.48102 -21.5548,36.49304 -57.65338,61.44928 -99.70886,68.93229 -6.02142,1.07141 -13.58931,1.59451 -23.52465,1.62605 -15.08178,0.0479 -23.62849,-0.91528 -35.95277,-4.05168 -3.90598,-0.99403 -7.99654,-2.00964 -9.09014,-2.2569 -1.64085,-0.371 -5.13167,2.66028 -19.97376,17.34435 -9.89197,9.78665 -19.10996,18.22143 -20.48443,18.74394 -1.37446,0.52251 -8.46515,0.95002 -15.75707,0.95002 h -13.25805 v 13.25805 c 0,7.29193 -0.42489,14.38261 -0.9442,15.75708 -1.33567,3.53514 -5.05873,7.17413 -8.50275,8.31076 -2.72777,0.90024 -13.02397,0.23333 -23.05577,-1.49339 l -2.76401,-0.47575 -1.09015,13.16999 c -1.27204,15.36743 -2.15721,19.50717 -4.77967,22.35349 -3.38935,3.67867 -6.3072,4.4869 -21.56639,5.97381 -8.23504,0.80245 -15.01552,1.51534 -15.06774,1.58421 -0.0522,0.0689 0.50876,5.36456 1.24661,11.76821 1.326,11.50809 1.31917,11.68922 -0.58931,15.63162 -2.37184,4.89957 -20.90701,23.27317 -25.35095,25.12996 -2.58305,1.07927 -9.93448,1.30252 -42.871746,1.30194 -38.46698,-6.8e-4 -39.8748,-0.0604 -43.48185,-1.84591 z M 374.53915,154.20761 c 6.86787,-2.08448 11.26543,-4.7807 16.76152,-10.27679 8.29237,-8.29237 11.52118,-16.12906 11.52118,-27.96326 0,-11.8342 -3.22881,-19.670891 -11.52118,-27.963261 -8.29237,-8.29238 -16.12906,-11.52118 -27.96326,-11.52118 -11.8342,0 -19.6709,3.2288 -27.96327,11.52118 -8.29237,8.29237 -11.52117,16.129061 -11.52117,27.963261 0,11.8342 3.2288,19.67089 11.52117,27.96326 8.333,8.333 15.51324,11.31866 27.5194,11.44302 4.16879,0.0432 9.38048,-0.47873 11.64561,-1.16623 z"
       id="path1" />
  </g>
</svg>
