<?xml version="1.0" encoding="UTF-8" standalone="no"?>
<!-- Created with Inkscape (http://www.inkscape.org/) -->

<svg
   width="55mm"
   height="72mm"
   viewBox="0 0 55 72"
   version="1.1"
   id="svg1"
   xml:space="preserve"
   inkscape:version="1.3.2 (091e20e, 2023-11-25, custom)"
   sodipodi:docname="lijst.svg"
   xmlns:inkscape="http://www.inkscape.org/namespaces/inkscape"
   xmlns:sodipodi="http://sodipodi.sourceforge.net/DTD/sodipodi-0.dtd"
   xmlns="http://www.w3.org/2000/svg"
   xmlns:svg="http://www.w3.org/2000/svg"><sodipodi:namedview
     id="namedview1"
     pagecolor="#ffffff"
     bordercolor="#000000"
     borderopacity="0.25"
     inkscape:showpageshadow="2"
     inkscape:pageopacity="0.0"
     inkscape:pagecheckerboard="0"
     inkscape:deskcolor="#d1d1d1"
     inkscape:document-units="mm"
     inkscape:zoom="0.57103676"
     inkscape:cx="397.52257"
     inkscape:cy="0.87560038"
     inkscape:window-width="1600"
     inkscape:window-height="837"
     inkscape:window-x="-8"
     inkscape:window-y="-8"
     inkscape:window-maximized="1"
     inkscape:current-layer="layer1" /><defs
     id="defs1" /><g
     inkscape:label="Laag 1"
     inkscape:groupmode="layer"
     id="layer1"><path
       style="fill:#ffffff;fill-opacity:1"
       d="m 11.252642,69.119988 c -3.4671808,-0.0505 -3.5053808,-0.0555 -4.6143408,-0.60368 -0.85642,-0.42335 -1.34968,-0.79748 -2.06216,-1.56416 -0.71516,-0.76957 -1.12832,-1.45102 -1.52083,-2.50839 l -0.22701,-0.61153 -0.0234,-24.68033 c -0.0257,-27.071042 -0.0584,-25.177252 0.45642,-26.452672 0.52512,-1.30091 1.78093,-2.638 3.0944,-3.29467 1.27137,-0.63562 1.56462,-0.68598 4.0079698,-0.68831 1.164171,-10e-4 2.126191,0.0266 2.137831,0.0615 0.0116,0.0349 0.0212,0.93438 0.0212,1.99879 v 1.9353 l -1.581871,0.0614 c -1.2430398,0.0482 -1.6751798,0.0963 -2.0175498,0.22438 -0.8148,0.30486 -1.49535,1.0812 -1.76944,2.01852 -0.12141,0.41522 -0.13447,2.72946 -0.13447,23.837052 0,26.07808 -0.0522,23.92675 0.60372,24.89442 0.33839,0.49923 0.74917,0.8291 1.39721,1.12201 0.30849,0.13943 1.4085598,0.14799 19.0387408,0.14799 h 18.71133 l 0.46567,-0.254 c 0.96527,-0.52652 1.55989,-1.36781 1.70439,-2.41146 0.0444,-0.32048 0.067,-10.31439 0.0538,-23.83521 l -0.0226,-23.283332 -0.2037,-0.50586 c -0.26799,-0.66552 -0.89533,-1.32521 -1.58143,-1.66297 -0.52009,-0.25604 -0.56052,-0.26195 -2.10307,-0.30755 l -1.5728,-0.0465 v -2.02774 -2.02773 l 2.18017,0.0357 c 2.08193,0.0341 2.21069,0.0459 2.8575,0.26017 0.74654,0.24735 1.94843,0.89264 2.18017,1.17052 0.0815,0.0977 0.14816,0.15262 0.14816,0.12201 0,-0.10078 0.72347,0.66262 1.08303,1.14282 0.4561,0.60911 0.89404,1.57065 1.06713,2.34297 0.12482,0.55692 0.13775,2.84481 0.1424,25.188332 0.005,24.5174 0.005,24.57735 -0.16858,25.23973 -0.16617,0.63517 -0.65034,1.74905 -0.76026,1.74905 -0.0288,0 -0.10531,0.11957 -0.17,0.26571 -0.0647,0.14615 -0.36926,0.531 -0.67683,0.85523 -0.90327,0.95219 -1.81231,1.50466 -3.11552,1.89344 l -0.7457,0.22246 -16.55233,0.0114 c -9.10379,0.006 -17.98109,-0.009 -19.72734,-0.0348 z m 2.33377,-10.08187 c -0.45862,-0.1075 -0.84306,-0.42263 -1.05849,-0.86764 -0.1782,-0.36812 -0.18095,-0.43992 -0.15683,-4.09483 l 0.0246,-3.72014 0.23091,-0.33308 c 0.47829,-0.68993 0.31735,-0.6651 4.49061,-0.69273 3.50066,-0.0232 3.72585,-0.0155 4.07318,0.13811 0.42584,0.18837 0.75904,0.58924 0.89084,1.07176 0.12705,0.46509 0.12703,6.77667 -10e-6,7.28122 -0.13651,0.54212 -0.56405,0.99897 -1.09549,1.17061 -0.38219,0.12343 -0.86896,0.14073 -3.7526,0.13333 -1.82239,-0.005 -3.46339,-0.0436 -3.64667,-0.0866 z m 6.38689,-4.81555 v -2.794 h -2.76154 -2.76154 l 0.0511,0.1905 c 0.0281,0.10477 0.0516,1.36207 0.0522,2.794 l 0.001,2.6035 h 2.70933 2.70934 z m 6.89083,3.32844 c -0.0984,-0.0193 -0.28886,-0.15 -0.42333,-0.29036 -0.20314,-0.21204 -0.2445,-0.32704 -0.2445,-0.67992 0,-0.36756 0.0351,-0.4561 0.261,-0.65792 0.25637,-0.22907 0.28623,-0.2342 1.68569,-0.28939 0.78358,-0.0309 4.39993,-0.0561 8.03633,-0.0561 6.12728,1.3e-4 6.63292,0.011 6.90196,0.14817 0.82531,0.42083 0.82416,1.48364 -0.002,1.77309 -0.21603,0.0757 -2.2643,0.0994 -8.1624,0.0943 -4.3307,-0.004 -7.95448,-0.0226 -8.05284,-0.0419 z m -0.37367,-4.5876 c -0.13373,-0.13373 -0.27006,-0.35036 -0.30295,-0.48141 -0.0827,-0.32932 0.12541,-0.87206 0.41714,-1.0881 0.23855,-0.17666 0.25467,-0.177 8.33967,-0.177 7.65871,0 8.11288,0.008 8.3249,0.15228 0.55264,0.37528 0.61045,1.11351 0.12224,1.56093 l -0.30167,0.27646 h -8.17809 -8.17809 z m -12.90405,-6.03263 c -0.45862,-0.10749 -0.84306,-0.42262 -1.05849,-0.86763 -0.1782,-0.36812 -0.18095,-0.43992 -0.15683,-4.09483 l 0.0246,-3.72014 0.23091,-0.33308 c 0.47829,-0.68993 0.31735,-0.6651 4.49061,-0.69273 3.50066,-0.0232 3.72585,-0.0155 4.07318,0.13811 0.42584,0.18836 0.75904,0.58923 0.89084,1.07175 0.12705,0.4651 0.12703,6.77668 -10e-6,7.28122 -0.13651,0.54213 -0.56405,0.99898 -1.09549,1.17062 -0.38219,0.12343 -0.86896,0.14073 -3.7526,0.13332 -1.82239,-0.005 -3.46339,-0.0436 -3.64667,-0.0866 z m 6.38689,-4.81555 v -2.794 h -2.76154 -2.76154 l 0.0511,0.1905 c 0.0281,0.10478 0.0516,1.36208 0.0522,2.794 l 0.001,2.6035 h 2.70933 2.70934 z m 6.89083,3.75178 c -0.0984,-0.0193 -0.28886,-0.15 -0.42333,-0.29036 -0.20314,-0.21204 -0.2445,-0.32704 -0.2445,-0.67992 0,-0.36756 0.0351,-0.4561 0.261,-0.65792 0.25637,-0.22907 0.28623,-0.23419 1.68569,-0.28939 0.78358,-0.0309 4.39993,-0.0561 8.03633,-0.0561 6.12728,1.3e-4 6.63292,0.011 6.90196,0.14817 0.82531,0.42083 0.82416,1.48364 -0.002,1.77309 -0.21603,0.0757 -2.2643,0.0994 -8.1624,0.0943 -4.3307,-0.004 -7.95448,-0.0226 -8.05284,-0.0419 z m -0.37367,-4.58759 c -0.13373,-0.13374 -0.27006,-0.35037 -0.30295,-0.48142 -0.0827,-0.32932 0.12541,-0.87206 0.41714,-1.0881 0.23855,-0.17666 0.25467,-0.177 8.33967,-0.177 7.65871,0 8.11288,0.008 8.3249,0.15228 0.55264,0.37528 0.61045,1.11351 0.12224,1.56093 l -0.30167,0.27646 h -8.17809 -8.17809 z m -12.90405,-6.625302 c -0.45862,-0.1075 -0.84306,-0.42262 -1.05849,-0.86764 -0.1782,-0.36811 -0.18095,-0.43991 -0.15683,-4.09483 l 0.0246,-3.72014 0.23091,-0.33308 c 0.47829,-0.68993 0.31735,-0.6651 4.49061,-0.69272 3.50066,-0.0232 3.72585,-0.0155 4.07318,0.1381 0.42584,0.18837 0.75904,0.58924 0.89084,1.07176 0.12705,0.46509 0.12703,6.77667 -10e-6,7.28122 -0.13651,0.54212 -0.56405,0.99898 -1.09549,1.17061 -0.38219,0.12344 -0.86896,0.14073 -3.7526,0.13333 -1.82239,-0.005 -3.46339,-0.0437 -3.64667,-0.0866 z m 6.38689,-4.81555 v -2.794 h -2.76154 -2.76154 l 0.0511,0.1905 c 0.0281,0.10477 0.0516,1.36207 0.0522,2.794 l 0.001,2.6035 h 2.70933 2.70934 z m 6.89083,3.58244 c -0.0984,-0.0193 -0.28886,-0.15 -0.42333,-0.29036 -0.20314,-0.21204 -0.2445,-0.32704 -0.2445,-0.67992 0,-0.36756 0.0351,-0.4561 0.261,-0.65792 0.25637,-0.22907 0.28623,-0.23419 1.68569,-0.28939 0.78358,-0.0309 4.39993,-0.0561 8.03633,-0.056 6.12728,1.2e-4 6.63292,0.011 6.90196,0.14816 0.82531,0.42083 0.82416,1.48364 -0.002,1.77309 -0.21603,0.0757 -2.2643,0.0994 -8.1624,0.0943 -4.3307,-0.004 -7.95448,-0.0226 -8.05284,-0.0419 z m -0.37367,-4.58759 c -0.13373,-0.13374 -0.27006,-0.35037 -0.30295,-0.48142 -0.0827,-0.32932 0.12541,-0.87206 0.41714,-1.0881 0.23855,-0.17666 0.25467,-0.177 8.33967,-0.177 7.65871,0 8.11288,0.008 8.3249,0.15228 0.55264,0.37528 0.61045,1.11351 0.12224,1.56093 l -0.30167,0.27646 h -8.17809 -8.17809 z m -8.5328,-9.58387 c -1.56967,-0.30906 -3.2246,-1.98922 -3.56363,-3.61798 -0.11574,-0.55604 -0.12399,-4.60785 -0.0108,-5.29911 0.12926,-0.78929 0.50415,-1.48497 1.15823,-2.1492904 1.0712,-1.08799 1.50679,-1.2046 4.49961,-1.2046 h 2.20233 l 0.056,-0.4445 c 0.25725,-2.04018 1.81602,-3.86505 3.89684,-4.56207 0.51293,-0.17182 0.75784,-0.19856 1.82034,-0.19877 1.12823,-2.2e-4 1.28213,0.019 1.90013,0.23676 0.89656,0.31597 1.58174,0.74618 2.25126,1.41349 0.89359,0.89064 1.47109,2.02335 1.58304,3.10494 l 0.0454,0.43884 2.46524,0.0268 2.46524,0.0268 0.55033,0.26685 c 0.30268,0.14676 0.65098,0.35631 0.77399,0.46567 0.12301,0.10935 0.33131,0.28454 0.46288,0.38932 0.13157,0.1047704 0.21363,0.1905004 0.18236,0.1905004 -0.0313,0 0.0336,0.0904 0.14411,0.20097 0.2716,0.2716 0.6121,0.96134 0.7657,1.55106 0.18692,0.71763 0.18104,4.91167 -0.008,5.64408 -0.32578,1.26275 -1.32154,2.53575 -2.40914,3.07987 -1.11313,0.55689 -0.56987,0.53163 -11.2116,0.5214 -5.31046,-0.005 -9.81947,-0.0416 -10.02002,-0.0811 z m 19.94823,-2.89861 c 0.43964,-0.24 0.92189,-0.79089 1.06817,-1.22022 0.17002,-0.49897 0.19309,-3.57186 0.0309,-4.12066 -0.13876,-0.46966 -0.87083,-1.20836 -1.26135,-1.2728 -0.15767,-0.026 -1.15349,-0.0573 -2.21291,-0.0695 l -1.92624,-0.0222 7e-5,0.65002 c 6e-5,0.60135 0.0168,0.66316 0.22315,0.8255 0.20631,0.16228 0.33406,0.17548 1.6989,0.17548 1.43317,0 1.74734,0.0474 1.90789,0.28784 0.0342,0.0512 0.0628,0.73786 0.0635,1.52583 0.001,1.21551 -0.0199,1.45613 -0.13883,1.58749 -0.13411,0.1482 -0.53517,0.15484 -9.35087,0.15484 h -9.21074 l -0.1318,-0.18817 c -0.10683,-0.15253 -0.1318,-0.46282 -0.1318,-1.63788 0,-1.309 0.0154,-1.46363 0.15845,-1.5931 0.13772,-0.12464 0.35788,-0.14178 1.68235,-0.13098 1.9999,0.0163 2.09527,-0.0373 2.03745,-1.14401 l -0.0259,-0.49608 -2.01957,0.0182 c -1.11077,0.01 -2.10666,0.0513 -2.21309,0.0918 -0.31006,0.11788 -0.79963,0.59052 -1.00049,0.9659 -0.17548,0.32793 -0.18551,0.452 -0.18551,2.29402 0,1.74916 0.0163,1.97748 0.16013,2.24366 0.33228,0.61487 0.70496,0.96594 1.22435,1.15334 0.24962,0.0901 2.12749,0.10788 9.79152,0.0929 8.9568,-0.0175 9.49817,-0.027 9.76225,-0.17118 z m -8.63459,-6.7896 c 1.11684,-0.60851 1.61212,-1.8221904 1.28956,-3.1600704 -0.0839,-0.34789 -0.21202,-0.56205 -0.56351,-0.94169 -0.61431,-0.66354 -1.12905,-0.89196 -1.99382,-0.8848 -0.80283,0.007 -1.42619,0.28039 -1.92256,0.84429 -0.46611,0.52954 -0.62638,0.91496 -0.6713,1.61441 -0.0582,0.90664 0.14267,1.4601204 0.75062,2.0680804 0.61864,0.61863 0.99399,0.75954 1.94101,0.72863 0.60747,-0.0198 0.78988,-0.0617 1.17,-0.26885 z m -1.58575,-1.4897704 c -0.71299,-0.28507 -0.81839,-1.25094 -0.1778,-1.62934 0.45068,-0.26622 0.97823,-0.16975 1.25135,0.22884 0.34489,0.50335 0.20653,1.094 -0.32007,1.36632 -0.27737,0.14343 -0.45956,0.1517 -0.75348,0.0342 z"
       id="path1" /></g></svg>
