<?xml version="1.0" encoding="UTF-8" standalone="no"?>
<!-- Created with Inkscape (http://www.inkscape.org/) -->

<svg
   width="55mm"
   height="72mm"
   viewBox="0 0 55 72"
   version="1.1"
   id="svg1"
   xml:space="preserve"
   inkscape:version="1.3.2 (091e20e, 2023-11-25, custom)"
   sodipodi:docname="lijst_check.svg"
   xmlns:inkscape="http://www.inkscape.org/namespaces/inkscape"
   xmlns:sodipodi="http://sodipodi.sourceforge.net/DTD/sodipodi-0.dtd"
   xmlns="http://www.w3.org/2000/svg"
   xmlns:svg="http://www.w3.org/2000/svg"><sodipodi:namedview
     id="namedview1"
     pagecolor="#ffffff"
     bordercolor="#000000"
     borderopacity="0.25"
     inkscape:showpageshadow="2"
     inkscape:pageopacity="0.0"
     inkscape:pagecheckerboard="0"
     inkscape:deskcolor="#d1d1d1"
     inkscape:document-units="mm"
     inkscape:zoom="1.6151359"
     inkscape:cx="26.313576"
     inkscape:cy="94.728873"
     inkscape:window-width="1346"
     inkscape:window-height="860"
     inkscape:window-x="164"
     inkscape:window-y="48"
     inkscape:window-maximized="0"
     inkscape:current-layer="layer1" /><defs
     id="defs1" /><g
     inkscape:label="Laag 1"
     inkscape:groupmode="layer"
     id="layer1"><g
       id="g9"
       transform="matrix(0.26458333,0,0,0.26458333,-39.701353,-15.722864)"
       style="fill:#ffffff;fill-opacity:1"><path
         style="fill:#ffffff;fill-opacity:1"
         d="m 176.64132,290.49984 c 0.004,-0.704 0.0691,-0.95432 0.14563,-0.55627 0.0765,0.39805 0.0736,0.97405 -0.006,1.28 -0.0801,0.30595 -0.14272,-0.0197 -0.13917,-0.72373 z m 89.14276,-14.79989 c 6.2169,-0.0486 16.2969,-0.0486 22.4,6e-5 6.1031,0.0486 1.01654,0.0884 -11.30346,0.0883 -12.32,-3e-5 -17.31344,-0.0398 -11.09654,-0.0884 z m -17.19819,-3.78677 c 0.0153,-0.37279 0.0912,-0.44861 0.19333,-0.19334 0.0924,0.231 0.0811,0.507 -0.0253,0.61334 -0.10634,0.10633 -0.18197,-0.0827 -0.16807,-0.42 z m -51.72298,-9.57334 c -1.3e-4,-5.456 0.0435,-7.73298 0.097,-5.05997 0.0535,2.67302 0.0536,7.13702 2.5e-4,9.92 -0.0533,2.78299 -0.0971,0.59597 -0.0972,-4.86003 z m 24.81771,9.31918 c 0,-0.0664 0.252,-0.31845 0.56,-0.56 0.50754,-0.39803 0.51886,-0.38672 0.12082,0.12082 -0.41804,0.53304 -0.68082,0.70256 -0.68082,0.43918 z m -7.06421,-2.35918 -0.77578,-0.88 0.87999,0.77578 c 0.8225,0.72509 1.02675,0.98422 0.77579,0.98422 -0.0573,0 -0.45333,-0.396 -0.88,-0.88 z m 4.1434,-4.8 c -0.39804,-0.50754 -0.38672,-0.51885 0.12081,-0.12082 0.308,0.24155 0.56,0.49355 0.56,0.56 0,0.26338 -0.26277,0.0939 -0.68081,-0.43918 z m 13.80081,-1.16082 c 0,-0.0665 0.252,-0.31845 0.56,-0.56 0.50754,-0.39803 0.51886,-0.38672 0.12082,0.12082 -0.41804,0.53304 -0.68082,0.70256 -0.68082,0.43918 z m -1.44,-1.47918 c 0.31856,-0.352 0.6512,-0.64 0.7392,-0.64 0.088,0 -0.10064,0.288 -0.4192,0.64 -0.31855,0.352 -0.65119,0.64 -0.73919,0.64 -0.088,0 0.10064,-0.288 0.41919,-0.64 z m -4.64,-4.28082 c 0,-0.0664 0.252,-0.31844 0.56,-0.56 0.50754,-0.39803 0.51886,-0.38672 0.12082,0.12082 -0.41804,0.53304 -0.68082,0.70256 -0.68082,0.43918 z m 13.12,-4.48 c 0,-0.0664 0.252,-0.31844 0.56,-0.56 0.50754,-0.39803 0.51886,-0.38672 0.12082,0.12082 -0.41804,0.53304 -0.68082,0.70256 -0.68082,0.43918 z m 26.18346,-21.55907 c 6.2169,-0.0486 16.2969,-0.0486 22.4,6e-5 6.1031,0.0486 1.01654,0.0884 -11.30346,0.0883 -12.32,-3e-5 -17.31344,-0.0398 -11.09654,-0.0884 z m -17.19819,-3.78677 c 0.0153,-0.37279 0.0912,-0.44861 0.19333,-0.19334 0.0924,0.231 0.0811,0.507 -0.0253,0.61334 -0.10634,0.10633 -0.18197,-0.0827 -0.16807,-0.42 z m -52.04298,-11.17334 c -1.3e-4,-5.456 0.0435,-7.73298 0.097,-5.05997 0.0535,2.67302 0.0536,7.13702 2.5e-4,9.92 -0.0533,2.78299 -0.0971,0.59597 -0.0972,-4.86003 z m 24.81771,9.31919 c 0,-0.0665 0.252,-0.31845 0.56,-0.56 0.50754,-0.39804 0.51886,-0.38672 0.12082,0.12081 -0.41804,0.53304 -0.68082,0.70256 -0.68082,0.43919 z m -7.06421,-2.35919 -0.77578,-0.88 0.88,0.77578 c 0.82249,0.72509 1.02674,0.98422 0.77578,0.98422 -0.0573,0 -0.45333,-0.396 -0.88,-0.88 z m 4.1434,-4.8 c -0.39804,-0.50753 -0.38672,-0.51885 0.12081,-0.12081 0.308,0.24155 0.56,0.49355 0.56,0.56 0,0.26337 -0.26277,0.0938 -0.68081,-0.43919 z m 13.80081,-1.16081 c 0,-0.0664 0.252,-0.31845 0.56,-0.56 0.50754,-0.39804 0.51886,-0.38672 0.12082,0.12081 -0.41804,0.53304 -0.68082,0.70256 -0.68082,0.43919 z m -1.44,-1.47919 c 0.31856,-0.352 0.6512,-0.64 0.7392,-0.64 0.088,0 -0.10064,0.288 -0.4192,0.64 -0.31855,0.352 -0.65119,0.64 -0.73919,0.64 -0.088,0 0.10064,-0.288 0.41919,-0.64 z m -4.64,-4.28081 c 0,-0.0665 0.252,-0.31845 0.56,-0.56 0.50754,-0.39804 0.51886,-0.38672 0.12082,0.12081 -0.41804,0.53304 -0.68082,0.70256 -0.68082,0.43919 z m 13.12,-4.48 c 0,-0.0665 0.252,-0.31845 0.56,-0.56 0.50754,-0.39804 0.51886,-0.38672 0.12082,0.12081 -0.41804,0.53304 -0.68082,0.70256 -0.68082,0.43919 z m 26.50346,-22.83908 c 6.2169,-0.0486 16.2969,-0.0486 22.4,6e-5 6.1031,0.0486 1.01654,0.0884 -11.30346,0.0883 -12.32,-3e-5 -17.31344,-0.0398 -11.09654,-0.0884 z m -17.19819,-3.78677 c 0.0153,-0.37278 0.0912,-0.44861 0.19333,-0.19334 0.0924,0.231 0.0811,0.507 -0.0253,0.61334 -0.10634,0.10633 -0.18197,-0.0827 -0.16807,-0.42 z m -52.04298,-10.85334 c -1.3e-4,-5.456 0.0435,-7.73298 0.097,-5.05997 0.0535,2.67302 0.0536,7.13702 2.5e-4,9.92 -0.0533,2.78299 -0.0971,0.59597 -0.0972,-4.86003 z m 24.81771,9.31919 c 0,-0.0665 0.252,-0.31845 0.56,-0.56 0.50754,-0.39804 0.51886,-0.38672 0.12082,0.12081 -0.41804,0.53304 -0.68082,0.70256 -0.68082,0.43919 z m -7.06421,-2.35919 -0.77578,-0.88 0.88,0.77578 c 0.82249,0.72509 1.02674,0.98422 0.77578,0.98422 -0.0573,0 -0.45333,-0.396 -0.88,-0.88 z m 4.1434,-4.8 c -0.39804,-0.50753 -0.38672,-0.51885 0.12081,-0.12081 0.53304,0.41804 0.70256,0.68081 0.43919,0.68081 -0.0665,0 -0.31845,-0.252 -0.56,-0.56 z m 13.80081,-1.16081 c 0,-0.0665 0.252,-0.31845 0.56,-0.56 0.50754,-0.39804 0.51886,-0.38672 0.12082,0.12081 -0.41804,0.53304 -0.68082,0.70256 -0.68082,0.43919 z m -1.44,-1.47919 c 0.31856,-0.352 0.6512,-0.64 0.7392,-0.64 0.088,0 -0.10064,0.288 -0.4192,0.64 -0.31855,0.352 -0.65119,0.64 -0.73919,0.64 -0.088,0 0.10064,-0.288 0.41919,-0.64 z m -54.15284,-1.6 c 0,-0.792 0.0624,-1.116 0.13868,-0.72 0.0763,0.396 0.0763,1.044 0,1.44 -0.0763,0.396 -0.13868,0.072 -0.13868,-0.72 z m 49.51284,-2.68081 c 0,-0.0665 0.252,-0.31845 0.56,-0.56 0.50754,-0.39804 0.51886,-0.38672 0.12082,0.12081 -0.41804,0.53304 -0.68082,0.70256 -0.68082,0.43919 z m 13.12,-4.48 c 0,-0.0665 0.252,-0.31845 0.56,-0.56 0.50754,-0.39804 0.51886,-0.38672 0.12082,0.12081 -0.41804,0.53304 -0.68082,0.70256 -0.68082,0.43919 z m -19.26,-29.53778 c 0.231,-0.0924 0.507,-0.0811 0.61334,0.0253 0.10633,0.10634 -0.0827,0.18197 -0.42,0.16807 -0.37278,-0.0153 -0.44861,-0.0912 -0.19334,-0.19333 z m -0.20947,-27.9414 c 0,-0.44 0.0726,-0.62 0.1614,-0.4 0.0888,0.22 0.0888,0.58 0,0.8 -0.0888,0.22 -0.1614,0.04 -0.1614,-0.4 z M 186.24063,90.424634 c 0.836,-0.06592 2.204,-0.06592 3.04,0 0.836,0.06592 0.152,0.119853 -1.52,0.119853 -1.672,0 -2.356,-0.05393 -1.52,-0.119853 z m 6.23286,0.0043 c 0.56807,-0.07069 1.57607,-0.07185 2.24,-0.0026 0.66392,0.06927 0.19914,0.127111 -1.03286,0.12853 -1.232,0.0014 -1.77522,-0.05526 -1.20714,-0.125949 z m 129.76713,-0.0043 c 0.836,-0.06592 2.204,-0.06592 3.04,0 0.836,0.06592 0.152,0.119853 -1.52,0.119853 -1.672,0 -2.356,-0.05393 -1.52,-0.119853 z m -66.7,-1.583384 c 0.231,-0.09244 0.507,-0.08107 0.61334,0.02526 0.10633,0.106333 -0.0827,0.181965 -0.42,0.16807 -0.37278,-0.01535 -0.44861,-0.09118 -0.19334,-0.193333 z"
         id="path16" /><path
         style="fill:#ffffff;fill-opacity:1"
         d="m 160.26589,295.27318 c 0.0153,-0.37279 0.0912,-0.44861 0.19333,-0.19334 0.0924,0.231 0.0811,0.507 -0.0253,0.61333 -0.10633,0.10634 -0.18197,-0.0827 -0.16807,-0.41999 z m 16.45143,-66.05334 c 0,-33.176 0.0375,-46.748 0.0833,-30.16 0.0458,16.588 0.0458,43.732 0,60.32 -0.0458,16.588 -0.0833,3.016 -0.0833,-30.16 z m 20.10246,44.64 c 0.002,-1.056 0.0615,-1.44942 0.13276,-0.87427 0.0712,0.57516 0.0697,1.43916 -0.003,1.92 -0.073,0.48085 -0.13128,0.0103 -0.12949,-1.04573 z m 9.10085,-0.37193 c 0.22,-0.0888 0.58,-0.0888 0.8,0 0.22,0.0888 0.04,0.16141 -0.4,0.16141 -0.44,0 -0.62,-0.0726 -0.4,-0.16141 z m 16.47999,-0.009 c 0.308,-0.0805 0.812,-0.0805 1.12,0 0.308,0.0805 0.056,0.14634 -0.56,0.14634 -0.616,0 -0.868,-0.0659 -0.56,-0.14634 z m 9.2,-9.18024 c 0,-0.0664 0.252,-0.31845 0.56,-0.56 0.50754,-0.39803 0.51886,-0.38672 0.12082,0.12082 -0.41804,0.53304 -0.68082,0.70256 -0.68082,0.43918 z m -1.92,-0.99918 c 0.41336,-0.44 0.82357,-0.8 0.91157,-0.8 0.088,0 -0.17821,0.36 -0.59157,0.8 -0.41335,0.44 -0.82356,0.8 -0.91156,0.8 -0.088,0 0.17821,-0.36 0.59156,-0.8 z m -22.76081,-2 c -0.39804,-0.50754 -0.38672,-0.51885 0.12082,-0.12082 0.53303,0.41804 0.70255,0.68082 0.43918,0.68082 -0.0664,0 -0.31845,-0.252 -0.56,-0.56 z m 21.00081,-5.2 c 0.31856,-0.352 0.6512,-0.64 0.7392,-0.64 0.088,0 -0.10064,0.288 -0.4192,0.64 -0.31855,0.352 -0.65119,0.64 -0.73919,0.64 -0.088,0 0.10064,-0.288 0.41919,-0.64 z m 10.88,-2.24 c 0.31856,-0.352 0.6512,-0.64 0.7392,-0.64 0.088,0 -0.10064,0.288 -0.4192,0.64 -0.31855,0.352 -0.65119,0.64 -0.73919,0.64 -0.088,0 0.10064,-0.288 0.41919,-0.64 z m -41.9993,-2.4 c 0.004,-0.704 0.0691,-0.95432 0.14563,-0.55627 0.0765,0.39806 0.0736,0.97406 -0.006,1.28 -0.0801,0.30595 -0.14272,-0.0197 -0.13917,-0.72373 z m 39.5993,-4.16 c 0.41336,-0.44 0.82357,-0.8 0.91157,-0.8 0.088,0 -0.17821,0.36 -0.59157,0.8 -0.41335,0.44 -0.82356,0.8 -0.91156,0.8 -0.088,0 0.17821,-0.36 0.59156,-0.8 z m -39.90084,-19.2 c 0.002,-1.056 0.0615,-1.44942 0.13276,-0.87427 0.0712,0.57516 0.0697,1.43916 -0.003,1.92 -0.073,0.48085 -0.13128,0.0103 -0.12949,-1.04573 z m 9.10085,-0.37193 c 0.22,-0.0888 0.58,-0.0888 0.8,0 0.22,0.0888 0.04,0.16141 -0.4,0.16141 -0.44,0 -0.62,-0.0726 -0.4,-0.16141 z m 16.47999,-0.009 c 0.308,-0.0805 0.812,-0.0805 1.12,0 0.308,0.0805 0.056,0.14634 -0.56,0.14634 -0.616,0 -0.868,-0.0659 -0.56,-0.14634 z m 9.2,-9.18023 c 0,-0.0665 0.252,-0.31845 0.56,-0.56 0.50754,-0.39804 0.51886,-0.38672 0.12082,0.12081 -0.41804,0.53304 -0.68082,0.70256 -0.68082,0.43919 z m -1.92,-0.99919 c 0.41336,-0.44 0.82357,-0.8 0.91157,-0.8 0.088,0 -0.17821,0.36 -0.59157,0.8 -0.41335,0.44 -0.82356,0.8 -0.91156,0.8 -0.088,0 0.17821,-0.36 0.59156,-0.8 z m -22.76081,-2 c -0.39804,-0.50753 -0.38672,-0.51885 0.12082,-0.12081 0.308,0.24155 0.56,0.49355 0.56,0.56 0,0.26337 -0.26278,0.0939 -0.68082,-0.43919 z m 21.00081,-5.2 c 0.31856,-0.352 0.6512,-0.64 0.7392,-0.64 0.088,0 -0.10064,0.288 -0.4192,0.64 -0.31855,0.352 -0.65119,0.64 -0.73919,0.64 -0.088,0 0.10064,-0.288 0.41919,-0.64 z m 10.88,-2.24 c 0.31856,-0.352 0.6512,-0.64 0.7392,-0.64 0.088,0 -0.10064,0.288 -0.4192,0.64 -0.31855,0.352 -0.65119,0.64 -0.73919,0.64 -0.088,0 0.10064,-0.288 0.41919,-0.64 z m -41.9993,-2.4 c 0.004,-0.704 0.0691,-0.95432 0.14563,-0.55627 0.0765,0.39806 0.0736,0.97406 -0.006,1.28 -0.0801,0.30595 -0.14272,-0.0197 -0.13917,-0.72373 z m 39.5993,-4.16 c 0.41336,-0.44 0.82357,-0.8 0.91157,-0.8 0.088,0 -0.17821,0.36 -0.59157,0.8 -0.41335,0.44 -0.82356,0.8 -0.91156,0.8 -0.088,0 0.17821,-0.36 0.59156,-0.8 z m -39.58084,-20.16 c 0.002,-1.056 0.0615,-1.44942 0.13276,-0.87426 0.0712,0.57515 0.0697,1.43915 -0.003,1.92 -0.073,0.48084 -0.13128,0.0103 -0.12949,-1.04574 z m 9.10085,-0.37193 c 0.22,-0.0888 0.58,-0.0888 0.8,0 0.22,0.0888 0.04,0.16141 -0.4,0.16141 -0.44,0 -0.62,-0.0726 -0.4,-0.16141 z m 16.47999,-0.009 c 0.308,-0.0805 0.812,-0.0805 1.12,0 0.308,0.0805 0.056,0.14634 -0.56,0.14634 -0.616,0 -0.868,-0.0659 -0.56,-0.14634 z m 9.2,-9.18023 c 0,-0.0665 0.252,-0.31845 0.56,-0.56 0.50754,-0.39804 0.51886,-0.38672 0.12082,0.12081 -0.41804,0.53304 -0.68082,0.70256 -0.68082,0.43919 z m -1.92,-0.99919 c 0.41336,-0.44 0.82357,-0.8 0.91157,-0.8 0.088,0 -0.17821,0.36 -0.59157,0.8 -0.41335,0.44 -0.82356,0.8 -0.91156,0.8 -0.088,0 0.17821,-0.36 0.59156,-0.8 z m -22.5904,-1.84 -0.60959,-0.72 0.72,0.6096 c 0.396,0.33528 0.72,0.65928 0.72,0.72 0,0.25608 -0.25754,0.067 -0.83041,-0.6096 z M 176.71279,142.1788 c 0,-13.464 0.0395,-18.972 0.0877,-12.24 0.0482,6.732 0.0482,17.74799 0,24.47999 -0.0482,6.732 -0.0877,1.224 -0.0877,-12.23999 z m 50.88783,21.43999 c 0.31856,-0.352 0.6512,-0.64 0.7392,-0.64 0.088,0 -0.10064,0.288 -0.4192,0.64 -0.31855,0.352 -0.65119,0.64 -0.73919,0.64 -0.088,0 0.10064,-0.288 0.41919,-0.64 z m 10.88,-2.24 c 0.31856,-0.352 0.6512,-0.64 0.7392,-0.64 0.088,0 -0.10064,0.288 -0.4192,0.64 -0.31855,0.352 -0.65119,0.64 -0.73919,0.64 -0.088,0 0.10064,-0.288 0.41919,-0.64 z m -41.9993,-2.4 c 0.004,-0.704 0.0691,-0.95432 0.14563,-0.55626 0.0765,0.39805 0.0736,0.97405 -0.006,1.28 -0.0801,0.30594 -0.14272,-0.0197 -0.13917,-0.72374 z m 39.5993,-4.16 c 0.41336,-0.44 0.82357,-0.8 0.91157,-0.8 0.088,0 -0.17821,0.36 -0.59157,0.8 -0.41335,0.44 -0.82356,0.8 -0.91156,0.8 -0.088,0 0.17821,-0.36 0.59156,-0.8 z m 54.66,-23.73859 c 0.231,-0.0924 0.507,-0.0811 0.61334,0.0253 0.10633,0.10634 -0.0827,0.18197 -0.42,0.16807 -0.37279,-0.0153 -0.44861,-0.0912 -0.19334,-0.19333 z m 10.62,-4.04154 c 0,-0.0551 0.468,-0.52307 1.04,-1.04 l 1.04,-0.93986 -0.93987,1.04 c -0.87609,0.96942 -1.14013,1.18708 -1.14013,0.93986 z m -97.57473,-12.24653 c 0.0154,-0.37278 0.0912,-0.44861 0.19333,-0.19333 0.0924,0.231 0.0811,0.507 -0.0253,0.61333 -0.10633,0.10633 -0.18197,-0.0827 -0.16807,-0.42 z m 54.63473,-0.67193 c 0.231,-0.0924 0.507,-0.0811 0.61334,0.0253 0.10633,0.10634 -0.0827,0.18197 -0.42,0.16807 -0.37278,-0.0154 -0.44861,-0.0912 -0.19334,-0.19333 z m -98.15473,-0.92807 c 0.0153,-0.37278 0.0912,-0.44861 0.19333,-0.19333 0.0924,0.231 0.0811,0.507 -0.0253,0.61333 -0.10633,0.10633 -0.18197,-0.0827 -0.16807,-0.42 z m 137.38634,-6.53333 c 0,-3.08 0.048,-4.34 0.10665,-2.8 0.0587,1.54 0.0587,4.06 0,5.6 -0.0587,1.54 -0.10665,0.28 -0.10665,-2.8 z m -93.80445,-0.32 c 0,-0.792 0.0624,-1.116 0.13868,-0.72 0.0763,0.396 0.0763,1.044 0,1.44 -0.0763,0.396 -0.13868,0.072 -0.13868,-0.72 z m 104,0 c 0,-0.792 0.0624,-1.116 0.13868,-0.72 0.0763,0.396 0.0763,1.044 0,1.44 -0.0763,0.396 -0.13868,0.072 -0.13868,-0.72 z m 6.33811,-0.82667 c 0.0154,-0.37278 0.0912,-0.44861 0.19333,-0.19333 0.0924,0.231 0.0811,0.507 -0.0253,0.61333 -0.10634,0.10633 -0.18197,-0.0827 -0.16807,-0.42 z m -79.65474,-9.413334 c 0,-0.44 0.0726,-0.62 0.1614,-0.4 0.0888,0.22 0.0888,0.58 0,0.8 -0.0888,0.22 -0.1614,0.04 -0.1614,-0.4 z M 190.90063,90.44125 c 0.231,-0.09244 0.507,-0.08107 0.61333,0.02526 0.10633,0.106333 -0.0827,0.181965 -0.42,0.16807 -0.37278,-0.01535 -0.44861,-0.09118 -0.19333,-0.193333 z m 5.1,0.0067 c 0.22,-0.08877 0.58,-0.08877 0.8,0 0.22,0.08877 0.04,0.161404 -0.4,0.161404 -0.44,0 -0.62,-0.07263 -0.4,-0.161404 z m 120.80965,-0.02368 c 0.84131,-0.06614 2.13731,-0.06534 2.88,0.0018 0.74269,0.06711 0.0543,0.121224 -1.52966,0.120249 -1.584,-9.76e-4 -2.19165,-0.05589 -1.35034,-0.122022 z"
         id="path15" /><path
         style="fill:#ffffff;fill-opacity:1"
         d="m 342.32062,313.25902 c 0,-0.0665 0.252,-0.31845 0.56,-0.56 0.50754,-0.39804 0.51886,-0.38672 0.12082,0.12082 -0.41804,0.53304 -0.68082,0.70255 -0.68082,0.43918 z M 160.37936,286.97984 c -1.9e-4,-4.4 0.0449,-6.24438 0.10016,-4.09863 0.0553,2.14576 0.0554,5.74576 3.5e-4,8 -0.0551,2.25425 -0.10031,0.49863 -0.10051,-3.90137 z m 47.95092,-13.5156 c 0.84131,-0.0661 2.13731,-0.0653 2.88,0.002 0.74269,0.0671 0.0543,0.12122 -1.52965,0.12025 -1.584,-9.8e-4 -2.19166,-0.0559 -1.35035,-0.12202 z m 7.19034,0.01 c 0.396,-0.0763 1.044,-0.0763 1.44,0 0.396,0.0763 0.072,0.13868 -0.72,0.13868 -0.792,0 -1.116,-0.0624 -0.72,-0.13868 z m 3.84574,-0.006 c 0.57515,-0.0712 1.43915,-0.0697 1.92,0.003 0.48084,0.073 0.0103,0.13129 -1.04574,0.12949 -1.056,-0.002 -1.44942,-0.0615 -0.87426,-0.13275 z m 4.96035,0.0102 c 0.31135,-0.0811 0.74335,-0.0758 0.96,0.0118 0.21666,0.0877 -0.0381,0.15404 -0.56609,0.14752 -0.528,-0.007 -0.70525,-0.0782 -0.39391,-0.15937 z m 1.28107,-1.69825 c 0,-0.792 0.0624,-1.116 0.13868,-0.72 0.0763,0.396 0.0763,1.044 0,1.44 -0.0763,0.396 -0.13868,0.072 -0.13868,-0.72 z m 5.03284,-6.52082 c 0,-0.0665 0.252,-0.31845 0.56,-0.56 0.50754,-0.39803 0.51886,-0.38672 0.12082,0.12082 -0.41804,0.53304 -0.68082,0.70256 -0.68082,0.43918 z m -2.56,-0.32 c 0,-0.0665 0.252,-0.31845 0.56,-0.56 0.50754,-0.39803 0.51886,-0.38672 0.12082,0.12082 -0.41804,0.53304 -0.68082,0.70256 -0.68082,0.43918 z m -8.32,-0.32 c 0,-0.0664 0.252,-0.31845 0.56,-0.56 0.50754,-0.39803 0.51886,-0.38672 0.12082,0.12082 -0.41804,0.53304 -0.68082,0.70256 -0.68082,0.43918 z m -11.38013,-1.87918 -0.93986,-1.04 1.04,0.93987 c 0.96942,0.87609 1.18708,1.14013 0.93986,1.14013 -0.0551,0 -0.52307,-0.468 -1.04,-1.04 z m 8.13932,-0.48 c -0.39804,-0.50754 -0.38672,-0.51885 0.12081,-0.12082 0.308,0.24155 0.56,0.49355 0.56,0.56 0,0.26338 -0.26277,0.0939 -0.68081,-0.43918 z m -56.16737,-8.72 c 0,-1.496 0.0551,-2.108 0.12249,-1.36 0.0674,0.748 0.0674,1.972 0,2.72 -0.0674,0.748 -0.12249,0.136 -0.12249,-1.36 z m 65.28796,1.45056 c -0.0991,-0.25819 -0.10593,-0.65419 -0.0152,-0.88 0.0907,-0.22581 0.17629,-0.0528 0.19018,0.38444 0.022,0.69131 0.53654,0.29481 3.94526,-3.04 l 3.92,-3.835 -3.83499,3.92 c -2.10925,2.156 -3.87777,3.92 -3.93005,3.92 -0.0523,0 -0.17611,-0.21125 -0.27518,-0.46944 z m 3.08022,0.34862 c 0,-0.0664 0.252,-0.31844 0.56,-0.56 0.50754,-0.39803 0.51886,-0.38672 0.12082,0.12082 -0.41804,0.53304 -0.68082,0.70256 -0.68082,0.43918 z m 8.64,0 c 0,-0.0664 0.252,-0.31844 0.56,-0.56 0.50754,-0.39803 0.51886,-0.38672 0.12082,0.12082 -0.41804,0.53304 -0.68082,0.70256 -0.68082,0.43918 z m -29.67559,-2.6688 c 0.48642,-0.0736 1.20642,-0.0716 1.6,0.004 0.39358,0.076 -0.004,0.13614 -0.8844,0.13374 -0.88,-0.002 -1.20202,-0.0645 -0.7156,-0.1381 z m 7.83559,-0.009 c 1.804,-0.057 4.756,-0.057 6.56,0 1.804,0.057 0.328,0.10371 -3.28,0.10371 -3.608,0 -5.08399,-0.0467 -3.28,-0.10371 z m 22.32,-6.80132 c 0.31856,-0.352 0.6512,-0.64 0.7392,-0.64 0.088,0 -0.10064,0.288 -0.4192,0.64 -0.31855,0.352 -0.65119,0.64 -0.73919,0.64 -0.088,0 0.10064,-0.288 0.41919,-0.64 z m -28.39999,-1.51958 c 3.388,-0.0518 8.93199,-0.0518 12.31999,0 3.388,0.0518 0.616,0.0942 -6.16,0.0942 -6.77599,0 -9.54799,-0.0424 -6.15999,-0.0942 z m -1.43035,-16.63602 c 0.84131,-0.0661 2.13731,-0.0653 2.88,0.002 0.74269,0.0671 0.0543,0.12122 -1.52965,0.12025 -1.584,-9.8e-4 -2.19166,-0.0559 -1.35035,-0.12202 z m 7.19034,0.01 c 0.396,-0.0763 1.044,-0.0763 1.44,0 0.396,0.0763 0.072,0.13868 -0.72,0.13868 -0.792,0 -1.116,-0.0624 -0.72,-0.13868 z m 3.84574,-0.006 c 0.57515,-0.0712 1.43915,-0.0697 1.92,0.003 0.48084,0.073 0.0103,0.13129 -1.04574,0.1295 -1.056,-0.002 -1.44942,-0.0615 -0.87426,-0.13276 z m 4.96035,0.0102 c 0.31135,-0.0811 0.74335,-0.0758 0.96,0.0119 0.21666,0.0877 -0.0381,0.15404 -0.56609,0.14752 -0.528,-0.007 -0.70525,-0.0782 -0.39391,-0.15937 z m 1.28107,-1.69825 c 0,-0.792 0.0624,-1.116 0.13868,-0.72 0.0763,0.396 0.0763,1.044 0,1.44 -0.0763,0.396 -0.13868,0.072 -0.13868,-0.72 z m -64.99663,-1.28 c 0,-0.44 0.0726,-0.62 0.16141,-0.4 0.0888,0.22 0.0888,0.58 0,0.8 -0.0888,0.22 -0.16141,0.04 -0.16141,-0.4 z m 70.02947,-5.24081 c 0,-0.0665 0.252,-0.31845 0.56,-0.56 0.50754,-0.39804 0.51886,-0.38672 0.12082,0.12081 -0.41804,0.53304 -0.68082,0.70256 -0.68082,0.43919 z m -2.56,-0.32 c 0,-0.0665 0.252,-0.31845 0.56,-0.56 0.50754,-0.39804 0.51886,-0.38672 0.12082,0.12081 -0.41804,0.53304 -0.68082,0.70256 -0.68082,0.43919 z m -8.32,-0.32 c 0,-0.0665 0.252,-0.31845 0.56,-0.56 0.50754,-0.39804 0.51886,-0.38672 0.12082,0.12081 -0.41804,0.53304 -0.68082,0.70256 -0.68082,0.43919 z m -11.38013,-1.87919 -0.93986,-1.04 1.04,0.93987 c 0.96942,0.87609 1.18708,1.14013 0.93986,1.14013 -0.0551,0 -0.52307,-0.468 -1.04,-1.04 z m 8.13932,-0.48 c -0.39804,-0.50753 -0.38672,-0.51885 0.12081,-0.12081 0.53304,0.41803 0.70256,0.68081 0.43919,0.68081 -0.0664,0 -0.31845,-0.252 -0.56,-0.56 z m -55.81766,-15.12 c 0,-5.192 0.044,-7.316 0.0978,-4.72 0.0538,2.596 0.0538,6.844 0,9.44 -0.0538,2.596 -0.0978,0.472 -0.0978,-4.72 z m 64.93825,7.85056 c -0.0991,-0.25819 -0.10593,-0.65419 -0.0152,-0.88 0.0907,-0.22581 0.17629,-0.0528 0.19018,0.38444 0.022,0.69131 0.53654,0.29481 3.94526,-3.04 l 3.92,-3.835 -3.83499,3.92 c -2.10925,2.156 -3.87777,3.92 -3.93005,3.92 -0.0523,0 -0.17611,-0.21125 -0.27518,-0.46944 z m 3.08022,0.34863 c 0,-0.0664 0.252,-0.31845 0.56,-0.56 0.50754,-0.39804 0.51886,-0.38672 0.12082,0.12081 -0.41804,0.53304 -0.68082,0.70256 -0.68082,0.43919 z m 8.64,0 c 0,-0.0664 0.252,-0.31845 0.56,-0.56 0.50754,-0.39804 0.51886,-0.38672 0.12082,0.12081 -0.41804,0.53304 -0.68082,0.70256 -0.68082,0.43919 z m -29.67559,-2.66881 c 0.48642,-0.0736 1.20642,-0.0716 1.6,0.004 0.39358,0.076 -0.004,0.13613 -0.8844,0.13373 -0.88,-0.002 -1.20202,-0.0645 -0.7156,-0.1381 z m 7.83559,-0.009 c 1.804,-0.057 4.756,-0.057 6.56,0 1.804,0.057 0.328,0.10371 -3.28,0.10371 -3.608,0 -5.08399,-0.0467 -3.28,-0.10371 z m 22.32,-6.80132 c 0.31856,-0.352 0.6512,-0.64 0.7392,-0.64 0.088,0 -0.10064,0.288 -0.4192,0.64 -0.31855,0.352 -0.65119,0.64 -0.73919,0.64 -0.088,0 0.10064,-0.288 0.41919,-0.64 z m -28.39999,-1.51958 c 3.388,-0.0518 8.93199,-0.0518 12.31999,0 3.388,0.0518 0.616,0.0942 -6.16,0.0942 -6.77599,0 -9.54799,-0.0424 -6.15999,-0.0942 z M 160.3709,184.41984 c 0,-2.904 0.0485,-4.092 0.1078,-2.64 0.0593,1.452 0.0593,3.828 0,5.28 -0.0593,1.452 -0.1078,0.264 -0.1078,-2.64 z m 47.63938,-3.4356 c 0.84131,-0.0661 2.13731,-0.0653 2.88,0.002 0.74269,0.0671 0.0543,0.12122 -1.52965,0.12025 -1.584,-9.8e-4 -2.19166,-0.0559 -1.35035,-0.12202 z m 7.19034,0.01 c 0.396,-0.0763 1.044,-0.0763 1.44,0 0.396,0.0763 0.072,0.13868 -0.72,0.13868 -0.792,0 -1.116,-0.0624 -0.72,-0.13868 z m 3.84574,-0.006 c 0.57515,-0.0712 1.43915,-0.0697 1.92,0.003 0.48084,0.073 0.0103,0.13128 -1.04574,0.12949 -1.056,-0.002 -1.44942,-0.0615 -0.87426,-0.13276 z m 4.96035,0.0102 c 0.31135,-0.0811 0.74335,-0.0758 0.96,0.0119 0.21666,0.0877 -0.0381,0.15404 -0.56609,0.14752 -0.528,-0.007 -0.70525,-0.0782 -0.39391,-0.15937 z m 1.28107,-1.69825 c 0,-0.792 0.0624,-1.116 0.13868,-0.72 0.0763,0.396 0.0763,1.044 0,1.44 -0.0763,0.396 -0.13868,0.072 -0.13868,-0.72 z m 5.03284,-6.52081 c 0,-0.0665 0.252,-0.31845 0.56,-0.56 0.50754,-0.39804 0.51886,-0.38672 0.12082,0.12081 -0.41804,0.53304 -0.68082,0.70256 -0.68082,0.43919 z m -2.56,-0.32 c 0,-0.0665 0.252,-0.31845 0.56,-0.56 0.50754,-0.39804 0.51886,-0.38672 0.12082,0.12081 -0.41804,0.53304 -0.68082,0.70256 -0.68082,0.43919 z m -8.32,-0.32 c 0,-0.0665 0.252,-0.31845 0.56,-0.56 0.50754,-0.39804 0.51886,-0.38672 0.12082,0.12081 -0.41804,0.53304 -0.68082,0.70256 -0.68082,0.43919 z m -11.22421,-1.71919 -0.77578,-0.88 0.88,0.77578 c 0.82249,0.72509 1.02674,0.98422 0.77578,0.98422 -0.0573,0 -0.45333,-0.396 -0.88,-0.88 z m 7.9834,-0.64 c -0.39804,-0.50753 -0.38672,-0.51885 0.12081,-0.12081 0.53304,0.41804 0.70256,0.68081 0.43919,0.68081 -0.0664,0 -0.31845,-0.252 -0.56,-0.56 z m 9.14191,-7.21388 c -0.11081,-0.28875 -0.12725,-0.70975 -0.0365,-0.93556 0.0907,-0.2258 0.17629,-0.0566 0.19018,0.37607 0.024,0.7484 0.0952,0.71794 1.46526,-0.62663 0.792,-0.77728 1.44,-1.34125 1.44,-1.25325 0,0.088 -0.64292,0.79099 -1.42872,1.56219 -1.16484,1.1432 -1.46593,1.30522 -1.63018,0.87718 z m 3.0589,0.29307 c 0,-0.0665 0.252,-0.31845 0.56,-0.56 0.50754,-0.39804 0.51886,-0.38672 0.12082,0.12081 -0.41804,0.53304 -0.68082,0.70256 -0.68082,0.43919 z m 8.64,0 c 0,-0.0665 0.252,-0.31845 0.56,-0.56 0.50754,-0.39804 0.51886,-0.38672 0.12082,0.12081 -0.41804,0.53304 -0.68082,0.70256 -0.68082,0.43919 z m -29.67559,-2.66881 c 0.48642,-0.0736 1.20642,-0.0716 1.6,0.004 0.39358,0.076 -0.004,0.13613 -0.8844,0.13373 -0.88,-0.002 -1.20202,-0.0645 -0.7156,-0.1381 z m 7.83559,-0.009 c 1.804,-0.057 4.756,-0.057 6.56,0 1.804,0.057 0.328,0.10371 -3.28,0.10371 -3.608,0 -5.08399,-0.0467 -3.28,-0.10371 z m 15.6,-2.64132 c 1.22256,-1.232 2.29484,-2.24 2.38284,-2.24 0.088,0 -0.84028,1.008 -2.06284,2.24 -1.22255,1.232 -2.29483,2.24 -2.38283,2.24 -0.088,0 0.84028,-1.008 2.06283,-2.24 z m 6.72,-4.16 c 0.31856,-0.352 0.6512,-0.64 0.7392,-0.64 0.088,0 -0.10064,0.288 -0.4192,0.64 -0.31855,0.352 -0.65119,0.64 -0.73919,0.64 -0.088,0 0.10064,-0.288 0.41919,-0.64 z m -28.39999,-1.51958 c 3.388,-0.0518 8.93199,-0.0518 12.31999,0 3.388,0.0518 0.616,0.0942 -6.16,0.0942 -6.77599,0 -9.54799,-0.0424 -6.15999,-0.0942 z m 13.12573,-20.79233 c 0.57515,-0.0712 1.43915,-0.0697 1.92,0.003 0.48084,0.073 0.0103,0.13128 -1.04574,0.12949 -1.056,-0.002 -1.44942,-0.0615 -0.87426,-0.13276 z m 67.53426,0.0133 c 0.231,-0.0924 0.507,-0.0811 0.61334,0.0253 0.10633,0.10634 -0.0827,0.18197 -0.42,0.16807 -0.37279,-0.0153 -0.44861,-0.0912 -0.19334,-0.19333 z m -129.45284,-6.8214 c 0,-0.792 0.0624,-1.116 0.13868,-0.72 0.0763,0.396 0.0763,1.044 0,1.44 -0.0763,0.396 -0.13868,0.072 -0.13868,-0.72 z m 16.25811,-6.90667 c 0.0153,-0.37278 0.0912,-0.44861 0.19333,-0.19333 0.0924,0.231 0.0811,0.507 -0.0253,0.61333 -0.10633,0.10633 -0.18197,-0.0827 -0.16807,-0.42 z m 27.29444,-6.37333 c 7.2e-4,-1.936 0.0534,-2.68675 0.11712,-1.66832 0.0637,1.01843 0.0631,2.60243 -10e-4,3.52 -0.0644,0.91757 -0.11654,0.0843 -0.11581,-1.85168 z m 24.78007,3.12053 c 2.69488,-0.0536 7.01488,-0.0535 9.6,2.6e-4 2.58512,0.0537 0.38022,0.0976 -4.89978,0.0974 -5.28,-1.5e-4 -7.39509,-0.0441 -4.70022,-0.0977 z m 21.74022,0.001 c 1.452,-0.0593 3.828,-0.0593 5.28,0 1.452,0.0593 0.264,0.10781 -2.64,0.10781 -2.904,0 -4.092,-0.0485 -2.64,-0.10781 z m 16.34213,-0.002 c 4.28016,-0.0504 11.19216,-0.0504 15.36,1.1e-4 4.16783,0.0505 0.66587,0.0918 -7.78213,0.0917 -8.448,-6e-5 -11.85804,-0.0414 -7.57787,-0.0918 z m 41.13475,-3.44022 c 8.3e-4,-1.76 0.0546,-2.43918 0.11941,-1.50928 0.0648,0.9299 0.0642,2.3699 -0.002,3.2 -0.0657,0.8301 -0.11874,0.0693 -0.1179,-1.69072 z m -10.33161,1.89333 c 0.0154,-0.37278 0.0912,-0.44861 0.19333,-0.19333 0.0924,0.231 0.0811,0.507 -0.0253,0.61333 -0.10634,0.10633 -0.18197,-0.0827 -0.16807,-0.42 z m -93.67345,-10.05333 c 0,-1.496 0.0551,-2.108 0.12249,-1.36 0.0674,0.748 0.0674,1.972 0,2.72 -0.0674,0.748 -0.12249,0.136 -0.12249,-1.36 z m 104.00354,-0.32 c 0,-1.672 0.0539,-2.356004 0.11986,-1.52 0.0659,0.836 0.0659,2.204 0,3.04 -0.0659,0.836 -0.11986,0.152 -0.11986,-1.52 z m 6.3718,1.6 c 0,-0.792 0.0624,-1.116 0.13868,-0.72 0.0763,0.396 0.0763,1.044 0,1.44 -0.0763,0.396 -0.13868,0.072 -0.13868,-0.72 z m -79.71663,-6.400004 c 0,-0.44 0.0726,-0.62 0.1614,-0.4 0.0888,0.22 0.0888,0.58 0,0.8 -0.0888,0.22 -0.1614,0.04 -0.1614,-0.4 z m -0.0253,-2.426667 c 0.0154,-0.372781 0.0912,-0.448607 0.19333,-0.193333 0.0924,0.231 0.0811,0.507 -0.0253,0.613333 -0.10634,0.106334 -0.18197,-0.08267 -0.16807,-0.42 z m 28.26433,-16.853332 -0.6096,-0.72 0.72,0.609596 c 0.67663,0.572869 0.86568,0.830404 0.6096,0.830404 -0.0607,0 -0.38472,-0.324 -0.72,-0.72 z"
         id="path14" /><path
         style="fill:#ffffff;fill-opacity:1"
         d="m 160.38526,267.61984 c 0,-6.424 0.0427,-9.052 0.0949,-5.84 0.0522,3.212 0.0522,8.468 0,11.68 -0.0522,3.212 -0.0949,0.584 -0.0949,-5.84 z m 174.66252,5.12 c 0,-0.792 0.0624,-1.116 0.13868,-0.72 0.0763,0.396 0.0763,1.044 0,1.44 -0.0763,0.396 -0.13868,0.072 -0.13868,-0.72 z m -122.08715,0.73417 c 0.396,-0.0763 1.044,-0.0763 1.44,0 0.39599,0.0763 0.072,0.13868 -0.72,0.13868 -0.792,0 -1.116,-0.0624 -0.72,-0.13868 z m 4.81999,0.007 c 0.231,-0.0924 0.507,-0.0811 0.61334,0.0253 0.10633,0.10633 -0.0827,0.18196 -0.42,0.16807 -0.37278,-0.0154 -0.44861,-0.0912 -0.19334,-0.19333 z m 3.42,-10.34141 c 0.31856,-0.352 0.6512,-0.64 0.7392,-0.64 0.088,0 -0.10064,0.288 -0.4192,0.64 -0.31855,0.352 -0.65119,0.64 -0.73919,0.64 -0.088,0 0.10064,-0.288 0.41919,-0.64 z m 15.36,-7.04 c 0.31856,-0.352 0.6512,-0.64 0.7392,-0.64 0.088,0 -0.10064,0.288 -0.4192,0.64 -0.31855,0.352 -0.65119,0.64 -0.73919,0.64 -0.088,0 0.10064,-0.288 0.41919,-0.64 z m -6.4,-2.24 c 0.31856,-0.352 0.6512,-0.64 0.7392,-0.64 0.088,0 -0.10064,0.288 -0.4192,0.64 -0.31855,0.352 -0.65119,0.64 -0.73919,0.64 -0.088,0 0.10064,-0.288 0.41919,-0.64 z m -4.72601,-0.61435 c -0.13919,-0.53227 -0.0975,-0.65721 0.13992,-0.41974 0.18595,0.18595 0.27513,0.52698 0.19818,0.75784 -0.0799,0.23966 -0.22494,0.0946 -0.3381,-0.3381 z m -15.03398,-0.57148 c 0.396,-0.0763 1.044,-0.0763 1.44,0 0.396,0.0763 0.072,0.13868 -0.72,0.13868 -0.792,0 -1.116,-0.0624 -0.72,-0.13868 z M 160.38661,238.1796 c 0,-7.128 0.0421,-10.044 0.0936,-6.48 0.0515,3.564 0.0515,9.396 0,12.96 -0.0515,3.564 -0.0936,0.648 -0.0936,-6.48 z m 174.66117,1.28 c 0,-0.792 0.0624,-1.116 0.13868,-0.72 0.0763,0.396 0.0763,1.044 0,1.44 -0.0763,0.396 -0.13868,0.072 -0.13868,-0.72 z M 212.64063,227.71401 c 0.396,-0.0763 1.044,-0.0763 1.44,0 0.396,0.0763 0.072,0.13868 -0.72,0.13868 -0.792,0 -1.116,-0.0624 -0.72,-0.13868 z m 4.81999,0.007 c 0.231,-0.0924 0.507,-0.0811 0.61334,0.0253 0.10633,0.10633 -0.0827,0.18196 -0.42,0.16807 -0.37278,-0.0154 -0.44861,-0.0912 -0.19334,-0.19333 z M 160.37655,217.3796 c 0,-3.784 0.0463,-5.332 0.10286,-3.44 0.0566,1.892 0.0566,4.988 0,6.88 -0.0566,1.892 -0.10286,0.344 -0.10286,-3.44 z m 60.50407,0 c 0.31856,-0.352 0.6512,-0.64 0.7392,-0.64 0.088,0 -0.10064,0.288 -0.4192,0.64 -0.31855,0.352 -0.65119,0.64 -0.73919,0.64 -0.088,0 0.10064,-0.288 0.41919,-0.64 z m 114.13053,-5.44 c 0,-0.44 0.0726,-0.62 0.1614,-0.4 0.0888,0.22 0.0888,0.58 0,0.8 -0.0888,0.22 -0.1614,0.04 -0.1614,-0.4 z m -98.77053,-1.6 c 0.31856,-0.352 0.6512,-0.64 0.7392,-0.64 0.088,0 -0.10064,0.288 -0.4192,0.64 -0.31855,0.352 -0.65119,0.64 -0.73919,0.64 -0.088,0 0.10064,-0.288 0.41919,-0.64 z m -6.4,-2.24 c 0.31856,-0.352 0.6512,-0.64 0.7392,-0.64 0.088,0 -0.10064,0.288 -0.4192,0.64 -0.31855,0.352 -0.65119,0.64 -0.73919,0.64 -0.088,0 0.10064,-0.288 0.41919,-0.64 z m -4.72601,-0.61435 c -0.13919,-0.53227 -0.0975,-0.6572 0.13992,-0.41974 0.18595,0.18595 0.27513,0.52698 0.19818,0.75784 -0.0799,0.23966 -0.22494,0.0946 -0.3381,-0.3381 z m -15.03398,-0.57148 c 0.396,-0.0763 1.044,-0.0763 1.44,0 0.396,0.0763 0.072,0.13868 -0.72,0.13868 -0.792,0 -1.116,-0.0624 -0.72,-0.13868 z M 160.32778,190.8196 c 0,-0.792 0.0624,-1.116 0.13868,-0.72 0.0763,0.396 0.0763,1.044 0,1.44 -0.0763,0.396 -0.13868,0.072 -0.13868,-0.72 z m 52.31285,-9.82583 c 0.396,-0.0763 1.044,-0.0763 1.44,0 0.396,0.0763 0.072,0.13868 -0.72,0.13868 -0.792,0 -1.116,-0.0624 -0.72,-0.13868 z m 4.81999,0.007 c 0.231,-0.0924 0.507,-0.0811 0.61334,0.0253 0.10633,0.10633 -0.0827,0.18197 -0.42,0.16807 -0.37278,-0.0154 -0.44861,-0.0912 -0.19334,-0.19333 z m -57.06713,-28.58141 c 0,-14.87199 0.0392,-20.95599 0.087,-13.51999 0.0479,7.436 0.0479,19.60399 0,27.03999 -0.0479,7.436 -0.087,1.352 -0.087,-13.52 z m 60.48713,18.24 c 0.31856,-0.352 0.6512,-0.64 0.7392,-0.64 0.088,0 -0.10064,0.288 -0.4192,0.64 -0.31855,0.352 -0.65119,0.64 -0.73919,0.64 -0.088,0 0.10064,-0.288 0.41919,-0.64 z m 15.36,-7.04 c 0.31856,-0.352 0.6512,-0.64 0.7392,-0.64 0.088,0 -0.10064,0.288 -0.4192,0.64 -0.31855,0.352 -0.65119,0.64 -0.73919,0.64 -0.088,0 0.10064,-0.288 0.41919,-0.64 z m -6.4,-2.24 c 0.31856,-0.352 0.6512,-0.64 0.7392,-0.64 0.088,0 -0.10064,0.288 -0.4192,0.64 -0.31855,0.352 -0.65119,0.64 -0.73919,0.64 -0.088,0 0.10064,-0.288 0.41919,-0.64 z m -4.72601,-0.61434 c -0.13919,-0.53227 -0.0975,-0.65721 0.13992,-0.41975 0.18595,0.18595 0.27513,0.52698 0.19818,0.75784 -0.0799,0.23966 -0.22494,0.0946 -0.3381,-0.33809 z m -15.03398,-0.57149 c 0.396,-0.0763 1.044,-0.0763 1.44,0 0.396,0.0763 0.072,0.13868 -0.72,0.13868 -0.792,0 -1.116,-0.0624 -0.72,-0.13868 z m 30.87999,-29.1341 c 8.932,-0.0473 23.548,-0.0473 32.48,0 8.932,0.0473 1.624,0.0859 -16.24,0.0859 -17.864,0 -25.172,-0.0387 -16.24,-0.0859 z m -80.59374,-12.40006 c 5e-4,-2.464 0.0507,-3.4297 0.11163,-2.146 0.0609,1.2837 0.0605,3.2997 -9.1e-4,4.48 -0.0614,1.1803 -0.11121,0.13 -0.11072,-2.334 z m 62.51948,1.52808 c 0.57515,-0.0712 1.43915,-0.0697 1.92,0.003 0.48084,0.073 0.0103,0.13128 -1.04574,0.12949 -1.056,-0.002 -1.44942,-0.0615 -0.87426,-0.13276 z m 7.67426,0.006 c 0.396,-0.0763 1.044,-0.0763 1.44,0 0.396,0.0763 0.072,0.13868 -0.72,0.13868 -0.792,0 -1.116,-0.0624 -0.72,-0.13868 z m 10.88,-0.008 c 0.748,-0.0674 1.972,-0.0674 2.72,0 0.748,0.0674 0.136,0.12249 -1.36,0.12249 -1.496,0 -2.108,-0.0551 -1.36,-0.12249 z m 7.04,0.008 c 0.396,-0.0763 1.044,-0.0763 1.44,0 0.396,0.0763 0.072,0.13868 -0.72,0.13868 -0.792,0 -1.116,-0.0624 -0.72,-0.13868 z m 5.12,0 c 0.396,-0.0763 1.044,-0.0763 1.44,0 0.396,0.0763 0.072,0.13868 -0.72,0.13868 -0.792,0 -1.116,-0.0624 -0.72,-0.13868 z m 5.12,0 c 0.396,-0.0763 1.044,-0.0763 1.44,0 0.396,0.0763 0.072,0.13868 -0.72,0.13868 -0.792,0 -1.116,-0.0624 -0.72,-0.13868 z m 7.68,-0.0129 c 1.804,-0.057 4.756,-0.057 6.56,0 1.804,0.057 0.328,0.10371 -3.28,0.10371 -3.608,0 -5.084,-0.0467 -3.28,-0.10371 z m 13.44,0.004 c 0.748,-0.0674 1.972,-0.0674 2.72,0 0.748,0.0674 0.136,0.12249 -1.36,0.12249 -1.496,0 -2.108,-0.0551 -1.36,-0.12249 z m -57.44,-6.06628 c 0.308,-0.0805 0.812,-0.0805 1.12,0 0.308,0.0805 0.056,0.14634 -0.56,0.14634 -0.616,0 -0.868,-0.0659 -0.56,-0.14634 z m 21.6,-0.0137 c 0.748,-0.0674 1.972,-0.0674 2.72,0 0.748,0.0674 0.136,0.12249 -1.36,0.12249 -1.496,0 -2.108,-0.0551 -1.36,-0.12249 z m -29.86973,-6.48569 c 0,-2.904 0.0485,-4.092 0.10781,-2.64 0.0593,1.452 0.0593,3.828 0,5.28 -0.0593,1.452 -0.10781,0.264 -0.10781,-2.64 z m 100.14812,-8.320004 c 0,-1.848 0.0529,-2.604 0.11753,-1.68 0.0646,0.924 0.0646,2.436004 0,3.360004 -0.0646,0.924 -0.11753,0.168 -0.11753,-1.680004 z M 209.20063,87.979029 c 0,-0.06645 0.252,-0.31845 0.56,-0.56 0.50753,-0.398039 0.51885,-0.38672 0.12081,0.120817 -0.41804,0.53304 -0.68081,0.702554 -0.68081,0.439183 z m 10.32609,-3.94094 c 0.31134,-0.08113 0.74334,-0.0758 0.96,0.01186 0.21665,0.08765 -0.0381,0.154037 -0.5661,0.147516 -0.528,-0.0065 -0.70525,-0.07824 -0.3939,-0.159374 z m 9.4339,-0.01416 c 0.924,-0.06464 2.436,-0.06464 3.36,0 0.924,0.06464 0.168,0.117529 -1.68,0.117529 -1.848,0 -2.604,-0.05289 -1.68,-0.117529 z m 50.88,0.0016 c 0.748,-0.06737 1.972,-0.06737 2.72,0 0.748,0.06737 0.136,0.122493 -1.36,0.122493 -1.496,0 -2.108,-0.05512 -1.36,-0.122493 z m 10.08,0.0012 c 0.66,-0.06904 1.74,-0.06904 2.4,0 0.66,0.06904 0.12,0.125523 -1.2,0.125523 -1.32,0 -1.86,-0.05648 -1.2,-0.125523 z m -34.06,-8.945487 c 0.231,-0.09244 0.507,-0.08107 0.61334,0.02526 0.10633,0.106334 -0.0827,0.181965 -0.42,0.16807 -0.37278,-0.01535 -0.44861,-0.09118 -0.19334,-0.193333 z m 16.01919,-4.181403 c -0.39804,-0.507538 -0.38672,-0.518857 0.12081,-0.120818 0.308,0.24155 0.56,0.49355 0.56,0.56 0,0.263371 -0.26278,0.09386 -0.68081,-0.439182 z m -16.51479,-6.709626 c 0.48642,-0.07355 1.20642,-0.07159 1.6,0.0044 0.39358,0.07596 -0.004,0.136136 -0.8844,0.133733 -0.88,-0.0024 -1.20202,-0.06455 -0.7156,-0.138101 z"
         id="path13" /><path
         style="fill:#ffffff;fill-opacity:1"
         d="m 184.32063,319.23926 c 0.308,-0.0805 0.812,-0.0805 1.12,0 0.308,0.0805 0.056,0.14634 -0.56,0.14634 -0.616,0 -0.868,-0.0659 -0.56,-0.14634 z m 146.79999,-18.46024 c 0,-0.0664 0.252,-0.31845 0.56,-0.56 0.50754,-0.39803 0.51886,-0.38672 0.12082,0.12082 -0.41804,0.53304 -0.68082,0.70255 -0.68082,0.43918 z m 3.98038,-18.11918 c 0,-4.84 0.0445,-6.82 0.0988,-4.4 0.0544,2.42 0.0544,6.38 0,8.8 -0.0544,2.42 -0.0988,0.44 -0.0988,-4.4 z m -103.18038,-2.68082 c 0,-0.0664 0.252,-0.31845 0.56,-0.56 0.50754,-0.39803 0.51886,-0.38672 0.12082,0.12082 -0.41804,0.53304 -0.68082,0.70256 -0.68082,0.43918 z M 335.1087,256.09984 c 0,-8.536 0.0412,-12.028 0.0917,-7.76 0.0504,4.268 0.0504,11.252 0,15.52 -0.0504,4.268 -0.0917,0.776 -0.0917,-7.76 z m -110.22808,12.05987 c 0,-0.0551 0.468,-0.52307 1.04,-1.04 l 1.04,-0.93987 -0.93986,1.04 c -0.87609,0.96943 -1.14014,1.18709 -1.14014,0.93987 z m 4.16,-1.30069 c 0,-0.0664 0.252,-0.31845 0.56,-0.56 0.50754,-0.39803 0.51886,-0.38672 0.12082,0.12082 -0.41804,0.53304 -0.68082,0.70256 -0.68082,0.43918 z m -18.1104,-1.55918 -0.60959,-0.72 0.72,0.6096 c 0.67662,0.57287 0.86567,0.8304 0.60959,0.8304 -0.0607,0 -0.38472,-0.324 -0.72,-0.72 z m 11.0704,-2.92082 c 0,-0.0665 0.252,-0.31845 0.56,-0.56 0.50754,-0.39803 0.51886,-0.38672 0.12082,0.12082 -0.41804,0.53304 -0.68082,0.70256 -0.68082,0.43918 z m -7.72081,-2.35918 c -0.39804,-0.50754 -0.38672,-0.51885 0.12082,-0.12082 0.53303,0.41804 0.70255,0.68082 0.43918,0.68082 -0.0665,0 -0.31845,-0.252 -0.56,-0.56 z m 38.36455,-0.94632 c 0.39805,-0.0765 0.97405,-0.0736 1.28,0.006 0.30594,0.0801 -0.0197,0.14272 -0.72374,0.13916 -0.704,-0.004 -0.95432,-0.0691 -0.55626,-0.14562 z m 55.35626,-0.008 c 0.748,-0.0674 1.972,-0.0674 2.72,0 0.748,0.0674 0.136,0.12249 -1.36,0.12249 -1.496,0 -2.108,-0.0551 -1.36,-0.12249 z m -72.88,-1.48652 c 0,-0.0664 0.252,-0.31844 0.56,-0.56 0.50754,-0.39803 0.51886,-0.38672 0.12082,0.12082 -0.41804,0.53304 -0.68082,0.70256 -0.68082,0.43918 z m -4.16,-4.48 c 0,-0.0664 0.252,-0.31844 0.56,-0.56 0.50754,-0.39803 0.51886,-0.38672 0.12082,0.12082 -0.41804,0.53304 -0.68082,0.70256 -0.68082,0.43918 z m 104.14599,-27.71918 c 0,-7.128 0.0421,-10.044 0.0936,-6.48 0.0515,3.564 0.0515,9.396 0,12.96 -0.0515,3.564 -0.0936,0.648 -0.0936,-6.48 z m -103.50599,8.83919 c 0,-0.0665 0.252,-0.31845 0.56,-0.56 0.50754,-0.39804 0.51886,-0.38672 0.12082,0.12081 -0.41804,0.53304 -0.68082,0.70256 -0.68082,0.43919 z m -7.04,-11.81932 c 0,-0.0551 0.468,-0.52307 1.04,-1.04 l 1.04,-0.93987 -0.93986,1.04 c -0.87609,0.96943 -1.14014,1.18709 -1.14014,0.93987 z m 4.16,-1.30068 c 0,-0.0665 0.252,-0.31845 0.56,-0.56 0.50754,-0.39804 0.51886,-0.38672 0.12082,0.12081 -0.41804,0.53304 -0.68082,0.70256 -0.68082,0.43919 z m -18.1104,-1.55919 -0.60959,-0.72 0.72,0.6096 c 0.67662,0.57287 0.86567,0.8304 0.60959,0.8304 -0.0607,0 -0.38472,-0.324 -0.72,-0.72 z m 11.0704,-2.92081 c 0,-0.0665 0.252,-0.31845 0.56,-0.56 0.50754,-0.39804 0.51886,-0.38672 0.12082,0.12081 -0.41804,0.53304 -0.68082,0.70256 -0.68082,0.43919 z m 30.96374,-1.70551 c 0.39805,-0.0765 0.97405,-0.0736 1.28,0.006 0.30594,0.0801 -0.0197,0.14272 -0.72374,0.13916 -0.704,-0.004 -0.95432,-0.0691 -0.55626,-0.14562 z m 55.35626,-0.008 c 0.748,-0.0674 1.972,-0.0674 2.72,0 0.748,0.0674 0.136,0.12249 -1.36,0.12249 -1.496,0 -2.108,-0.0551 -1.36,-0.12249 z m -94.04081,-0.6457 c -0.39804,-0.50753 -0.38672,-0.51885 0.12082,-0.12081 0.308,0.24155 0.55999,0.49355 0.55999,0.56 0,0.26337 -0.26277,0.0939 -0.68081,-0.43919 z m 20.84081,-2.44081 c 0,-0.0665 0.252,-0.31845 0.56,-0.56 0.50754,-0.39804 0.51886,-0.38672 0.12082,0.12081 -0.41804,0.53304 -0.68082,0.70256 -0.68082,0.43919 z M 335.11604,168.4198 c 0,-23.67199 0.038,-33.35599 0.0845,-21.52 0.0465,11.836 0.0465,31.204 0,43.04 -0.0465,11.836 -0.0845,2.152 -0.0845,-21.52 z m -104.47542,38.91919 c 0,-0.0665 0.252,-0.31845 0.56,-0.56 0.50754,-0.39804 0.51886,-0.38672 0.12082,0.12081 -0.41804,0.53304 -0.68082,0.70256 -0.68082,0.43919 z m 0.96,-19.84 c 0,-0.0665 0.252,-0.31845 0.56,-0.56 0.50754,-0.39804 0.51886,-0.38672 0.12082,0.12081 -0.41804,0.53304 -0.68082,0.70256 -0.68082,0.43919 z m -7.04,-11.81932 c 0,-0.0551 0.468,-0.52307 1.04,-1.04 l 1.04,-0.93987 -0.93986,1.04 c -0.87609,0.96943 -1.14014,1.18709 -1.14014,0.93987 z m 4.16,-1.30068 c 0,-0.0665 0.252,-0.31845 0.56,-0.56 0.50754,-0.39804 0.51886,-0.38672 0.12082,0.12081 -0.41804,0.53304 -0.68082,0.70256 -0.68082,0.43919 z m -18.1104,-1.55919 -0.60959,-0.72 0.72,0.6096 c 0.396,0.33528 0.72,0.65928 0.72,0.72 0,0.25608 -0.25754,0.067 -0.83041,-0.6096 z m 11.0704,-2.92081 c 0,-0.0665 0.252,-0.31845 0.56,-0.56 0.50754,-0.39804 0.51886,-0.38672 0.12082,0.12081 -0.41804,0.53304 -0.68082,0.70256 -0.68082,0.43919 z m -7.72081,-2.35919 c -0.39804,-0.50753 -0.38672,-0.51885 0.12082,-0.12081 0.53303,0.41804 0.70255,0.68081 0.43918,0.68081 -0.0665,0 -0.31845,-0.252 -0.56,-0.56 z m 38.68455,0.33368 c 0.39805,-0.0765 0.97405,-0.0736 1.28,0.006 0.30594,0.0801 -0.0197,0.14272 -0.72374,0.13917 -0.704,-0.004 -0.95432,-0.0691 -0.55626,-0.14563 z m 55.35626,-0.008 c 0.748,-0.0674 1.972,-0.0674 2.72,0 0.748,0.0674 0.136,0.12249 -1.36,0.12249 -1.496,0 -2.108,-0.0551 -1.36,-0.12249 z m -73.2,-2.76651 c 0,-0.0665 0.252,-0.31845 0.56,-0.56 0.50754,-0.39804 0.51886,-0.38672 0.12082,0.12081 -0.41804,0.53304 -0.68082,0.70256 -0.68082,0.43919 z m -4.16,-4.48 c 0,-0.0665 0.252,-0.31845 0.56,-0.56 0.50754,-0.39804 0.51886,-0.38672 0.12082,0.12081 -0.41804,0.53304 -0.68082,0.70256 -0.68082,0.43919 z m 120.40716,-33.79918 c 0,-0.792 0.0624,-1.116 0.13868,-0.72 0.0763,0.396 0.0763,1.044 0,1.44 -0.0763,0.396 -0.13868,0.072 -0.13868,-0.72 z m -124.48716,-6.63311 c 0.66,-0.069 1.74,-0.069 2.4,0 0.66,0.069 0.12,0.12552 -1.2,0.12552 -1.32,0 -1.86,-0.0565 -1.2,-0.12552 z m 7.84,-0.004 c 1.1,-0.0625 2.9,-0.0625 4,0 1.1,0.0625 0.2,0.11361 -2,0.11361 -2.2,0 -3.1,-0.0511 -2,-0.11361 z m 11.52,0.0111 c 0.396,-0.0763 1.044,-0.0763 1.44,0 0.396,0.0763 0.072,0.13868 -0.72,0.13868 -0.792,0 -1.116,-0.0624 -0.72,-0.13868 z m 5.12,0 c 0.396,-0.0763 1.044,-0.0763 1.44,0 0.396,0.0763 0.072,0.13868 -0.72,0.13868 -0.792,0 -1.116,-0.0624 -0.72,-0.13868 z m 5.12,0 c 0.396,-0.0763 1.044,-0.0763 1.44,0 0.396,0.0763 0.072,0.13868 -0.72,0.13868 -0.792,0 -1.116,-0.0624 -0.72,-0.13868 z m 5.12,0 c 0.396,-0.0763 1.044,-0.0763 1.44,0 0.396,0.0763 0.072,0.13868 -0.72,0.13868 -0.792,0 -1.116,-0.0624 -0.72,-0.13868 z m 15.36,0 c 0.396,-0.0763 1.044,-0.0763 1.44,0 0.396,0.0763 0.072,0.13868 -0.72,0.13868 -0.792,0 -1.116,-0.0624 -0.72,-0.13868 z m 8.81169,-0.011 c 1.01842,-0.0637 2.60242,-0.0631 3.52,0.001 0.91757,0.0644 0.0843,0.11654 -1.85169,0.11581 -1.936,-7.2e-4 -2.68674,-0.0534 -1.66831,-0.11712 z m 9.50831,-1.80399 c 0,-0.0665 0.252,-0.31845 0.56,-0.56 0.50754,-0.39804 0.51886,-0.38672 0.12082,0.12082 -0.41804,0.53303 -0.68082,0.70255 -0.68082,0.43918 z m 56.02527,-4.22585 c 0.0154,-0.37278 0.0912,-0.44861 0.19333,-0.19333 0.0924,0.231 0.0811,0.507 -0.0253,0.61333 -0.10634,0.10633 -0.18197,-0.0827 -0.16807,-0.42 z m -36.10527,-8.03392 c 0.308,-0.0805 0.812,-0.0805 1.12,0 0.308,0.0805 0.056,0.14635 -0.56,0.14635 -0.616,0 -0.868,-0.0659 -0.56,-0.14635 z m -117.38973,-5.53941 c 0,-2.904004 0.0485,-4.092004 0.10781,-2.640004 0.0593,1.452 0.0593,3.828004 0,5.280004 -0.0593,1.452 -0.10781,0.264 -0.10781,-2.64 z m -29.09026,-3.520004 c 0.31855,-0.352 0.65119,-0.64 0.73919,-0.64 0.088,0 -0.10064,0.288 -0.41919,0.64 -0.31856,0.352 -0.6512,0.64 -0.7392,0.64 -0.088,0 0.10064,-0.288 0.4192,-0.64 z m 145.85915,-3.68 c 0.002,-1.056 0.0615,-1.449421 0.13276,-0.874269 0.0712,0.575152 0.0697,1.439152 -0.003,1.92 -0.073,0.480848 -0.13129,0.01027 -0.12949,-1.045731 z m -116.80326,-0.16 c 0,-0.968 0.06,-1.364 0.13331,-0.88 0.0733,0.484 0.0733,1.276 0,1.76 -0.0733,0.484 -0.13331,0.088 -0.13331,-0.88 z m 51.06329,-1.2 c -0.39804,-0.507538 -0.38672,-0.518856 0.12081,-0.120817 0.53304,0.418038 0.70256,0.680817 0.43919,0.680817 -0.0665,0 -0.31845,-0.252 -0.56,-0.56 z m -40.11918,-3.28 c 0.31855,-0.352 0.65119,-0.64 0.73919,-0.64 0.088,0 -0.10064,0.288 -0.41919,0.64 -0.31856,0.352 -0.6512,0.64 -0.7392,0.64 -0.088,0 0.10064,-0.288 0.4192,-0.64 z m 51.06526,-3.386666 c 0.0154,-0.372782 0.0912,-0.448608 0.19333,-0.193334 0.0924,0.231 0.0811,0.507 -0.0253,0.613334 -0.10634,0.106333 -0.18197,-0.08267 -0.16807,-0.42 z m -37.05358,-1.330158 c 1.01843,-0.0637 2.60243,-0.06311 3.52,0.0013 0.91757,0.06442 0.0843,0.116533 -1.85169,0.115811 -1.936,-7.22e-4 -2.68674,-0.05343 -1.66831,-0.117123 z m 62.54831,0.0025 c 0.748,-0.06737 1.972,-0.06737 2.72,0 0.748,0.06737 0.136,0.122493 -1.36,0.122493 -1.496,0 -2.108,-0.05512 -1.36,-0.122493 z"
         id="path12" /><path
         style="fill:#ffffff;fill-opacity:1"
         d="m 191.04063,319.22038 c 2.948,-0.0528 7.772,-0.0528 10.72,0 2.948,0.0528 0.536,0.096 -5.36,0.096 -5.896,0 -8.308,-0.0432 -5.36,-0.096 z m 19.04,0.0136 c 0.396,-0.0763 1.044,-0.0763 1.44,0 0.396,0.0763 0.072,0.13867 -0.72,0.13867 -0.792,0 -1.116,-0.0624 -0.72,-0.13867 z m 3.83286,-0.005 c 0.56807,-0.0707 1.57607,-0.0719 2.24,-0.003 0.66392,0.0693 0.19913,0.12711 -1.03287,0.12853 -1.23199,10e-4 -1.77521,-0.0553 -1.20713,-0.12595 z m 5.44713,-5.4e-4 c 0.572,-0.071 1.508,-0.071 2.08,0 0.572,0.071 0.104,0.12907 -1.04,0.12907 -1.144,0 -1.612,-0.0581 -1.04,-0.12907 z m 13.76,0.006 c 0.396,-0.0763 1.044,-0.0763 1.44,0 0.396,0.0763 0.072,0.13867 -0.72,0.13867 -0.792,0 -1.116,-0.0624 -0.72,-0.13867 z m 13.6,-0.0139 c 4.532,-0.0501 11.948,-0.0501 16.48,0 4.532,0.0501 0.824,0.091 -8.24,0.091 -9.064,0 -12.772,-0.041 -8.24,-0.091 z m 30.73572,10e-4 c 1.54864,-0.0588 3.99664,-0.0585 5.44,6.7e-4 1.44335,0.0591 0.17628,0.10725 -2.81572,0.10688 -2.992,-3.6e-4 -4.17293,-0.0488 -2.62428,-0.10755 z m 12.94428,-6.8e-4 c 2.332,-0.0547 6.148,-0.0547 8.48,0 2.332,0.0547 0.424,0.0994 -4.24,0.0994 -4.664,0 -6.572,-0.0447 -4.24,-0.0994 z m 16.32573,0.007 c 0.57516,-0.0712 1.43916,-0.0697 1.92,0.003 0.48085,0.073 0.0103,0.13129 -1.04573,0.12949 -1.056,-0.002 -1.44942,-0.0615 -0.87427,-0.13275 z m 7.35427,4.2e-4 c 0.572,-0.071 1.508,-0.071 2.08,0 0.572,0.071 0.104,0.12907 -1.04,0.12907 -1.144,0 -1.612,-0.0581 -1.04,-0.12907 z m 4.48846,-0.003 c 0.75265,-0.0676 1.90465,-0.0666 2.56,0.002 0.65535,0.0688 0.0395,0.12406 -1.36846,0.1229 -1.408,-0.001 -1.94419,-0.0574 -1.19154,-0.12502 z m 7.19154,0.0141 c 0.308,-0.0805 0.812,-0.0805 1.12,0 0.308,0.0805 0.056,0.14634 -0.56,0.14634 -0.616,0 -0.868,-0.0659 -0.56,-0.14634 z m -157.85722,-7.37942 -1.10277,-1.2 1.2,1.10277 c 0.66,0.60653 1.2,1.14653 1.2,1.2 0,0.24436 -0.27079,0.0142 -1.29723,-1.10277 z m 12.31839,-11.10982 c -0.34164,-0.2584 -0.4588,-0.4744 -0.26035,-0.48 0.19845,-0.006 0.54009,0.20582 0.75919,0.46982 0.50585,0.60952 0.29913,0.61374 -0.49884,0.0102 z m 170.89518,-59.53018 c -10e-6,-29.92 0.0376,-42.20738 0.0836,-27.30529 0.046,14.90209 0.046,39.38209 10e-6,54.4 -0.046,15.01791 -0.0836,2.82529 -0.0836,-27.09471 z m -16.09396,50.88 c 0.007,-0.528 0.0782,-0.70526 0.15937,-0.39391 0.0811,0.31135 0.0758,0.74335 -0.0119,0.96 -0.0876,0.21665 -0.15404,-0.0381 -0.14751,-0.56609 z M 202.42063,281.48125 c 0.231,-0.0924 0.507,-0.0811 0.61333,0.0253 0.10633,0.10633 -0.0827,0.18196 -0.42,0.16807 -0.37278,-0.0154 -0.44861,-0.0912 -0.19333,-0.19333 z m 112.72526,-9.24807 c 0.0154,-0.37279 0.0912,-0.44861 0.19333,-0.19334 0.0924,0.231 0.0811,0.507 -0.0253,0.61334 -0.10634,0.10633 -0.18197,-0.0827 -0.16807,-0.42 z m -61.53454,-4.20963 c 0.9299,-0.0648 2.3699,-0.0642 3.2,0.002 0.8301,0.0657 0.0693,0.11873 -1.69073,0.1179 -1.76,-8.3e-4 -2.43917,-0.0546 -1.50927,-0.11942 z m 7.66927,0.0105 c 0.396,-0.0763 1.044,-0.0763 1.44,0 0.396,0.0763 0.072,0.13868 -0.72,0.13868 -0.792,0 -1.116,-0.0624 -0.72,-0.13868 z m 17.92,0 c 0.396,-0.0763 1.044,-0.0763 1.44,0 0.396,0.0763 0.072,0.13868 -0.72,0.13868 -0.792,0 -1.116,-0.0624 -0.72,-0.13868 z m 12.8,0 c 0.396,-0.0763 1.044,-0.0763 1.44,0 0.396,0.0763 0.072,0.13868 -0.72,0.13868 -0.792,0 -1.116,-0.0624 -0.72,-0.13868 z m -63.92,-0.21499 c 0,-0.0665 0.252,-0.31845 0.56,-0.56 0.50754,-0.39803 0.51886,-0.38672 0.12082,0.12082 -0.41804,0.53304 -0.68082,0.70256 -0.68082,0.43918 z m -4.64,-6.91918 c 0.31856,-0.352 0.6512,-0.64 0.7392,-0.64 0.088,0 -0.10064,0.288 -0.4192,0.64 -0.31855,0.352 -0.65119,0.64 -0.73919,0.64 -0.088,0 0.10064,-0.288 0.41919,-0.64 z m 10.72,-2.4 c 0.41336,-0.44 0.82357,-0.8 0.91157,-0.8 0.088,0 -0.17821,0.36 -0.59157,0.8 -0.41335,0.44 -0.82356,0.8 -0.91156,0.8 -0.088,0 0.17821,-0.36 0.59156,-0.8 z m 33.2,0.5601 c 7.26,-0.048 19.14,-0.048 26.4,0 7.26,0.048 1.32,0.0872 -13.2,0.0872 -14.52,0 -20.46,-0.0392 -13.2,-0.0872 z m 47.78527,-4.10676 c 0.0154,-0.37279 0.0912,-0.44861 0.19333,-0.19334 0.0924,0.231 0.0811,0.507 -0.0253,0.61334 -0.10634,0.10633 -0.18197,-0.0827 -0.16807,-0.42 z m -110.08,-1.92 c 0.0154,-0.37279 0.0912,-0.44861 0.19333,-0.19334 0.0924,0.231 0.0811,0.507 -0.0253,0.61334 -0.10633,0.10633 -0.18197,-0.0827 -0.16807,-0.42 z m 27.33473,-1.41334 c 0.31856,-0.352 0.6512,-0.64 0.7392,-0.64 0.088,0 -0.10064,0.288 -0.4192,0.64 -0.31855,0.352 -0.65119,0.64 -0.73919,0.64 -0.088,0 0.10064,-0.288 0.41919,-0.64 z m 20.56374,-0.22632 c 0.39805,-0.0765 0.97405,-0.0736 1.28,0.006 0.30594,0.0801 -0.0197,0.14272 -0.72374,0.13916 -0.704,-0.004 -0.95432,-0.0691 -0.55626,-0.14562 z m 26.23626,4.9e-4 c 0.396,-0.0763 1.044,-0.0763 1.44,0 0.396,0.0763 0.072,0.13868 -0.72,0.13868 -0.792,0 -1.116,-0.0624 -0.72,-0.13868 z m -77.09999,-15.67276 c 0.231,-0.0924 0.507,-0.0811 0.61333,0.0253 0.10633,0.10633 -0.0827,0.18196 -0.42,0.16807 -0.37278,-0.0154 -0.44861,-0.0912 -0.19333,-0.19333 z m 113.04526,-7.64807 c 0.0154,-0.37279 0.0912,-0.44861 0.19333,-0.19334 0.0924,0.231 0.0811,0.507 -0.0253,0.61334 -0.10634,0.10633 -0.18197,-0.0827 -0.16807,-0.42 z m -61.53454,-4.20963 c 0.9299,-0.0648 2.3699,-0.0642 3.2,0.002 0.8301,0.0657 0.0693,0.11873 -1.69073,0.1179 -1.76,-8.3e-4 -2.43917,-0.0546 -1.50927,-0.11942 z m 7.66927,0.0105 c 0.396,-0.0763 1.044,-0.0763 1.44,0 0.396,0.0763 0.072,0.13868 -0.72,0.13868 -0.792,0 -1.116,-0.0624 -0.72,-0.13868 z m 17.92,0 c 0.396,-0.0763 1.044,-0.0763 1.44,0 0.396,0.0763 0.072,0.13868 -0.72,0.13868 -0.792,0 -1.116,-0.0624 -0.72,-0.13868 z m 12.8,0 c 0.396,-0.0763 1.044,-0.0763 1.44,0 0.396,0.0763 0.072,0.13868 -0.72,0.13868 -0.792,0 -1.116,-0.0624 -0.72,-0.13868 z m -64.24,-1.81498 c 0,-0.0665 0.252,-0.31845 0.56,-0.56 0.50754,-0.39804 0.51886,-0.38672 0.12082,0.12081 -0.41804,0.53304 -0.68082,0.70256 -0.68082,0.43919 z m -4.64,-6.91919 c 0.31856,-0.352 0.6512,-0.64 0.7392,-0.64 0.088,0 -0.10064,0.288 -0.4192,0.64 -0.31855,0.352 -0.65119,0.64 -0.73919,0.64 -0.088,0 0.10064,-0.288 0.41919,-0.64 z m 44.24,-0.2399 c 7.26,-0.048 19.14,-0.048 26.4,0 7.26,0.048 1.32,0.0872 -13.2,0.0872 -14.52,0 -20.46,-0.0392 -13.2,-0.0872 z m -33.52,-2.1601 c 0.41336,-0.44 0.82357,-0.8 0.91157,-0.8 0.088,0 -0.17821,0.36 -0.59157,0.8 -0.41335,0.44 -0.82356,0.8 -0.91156,0.8 -0.088,0 0.17821,-0.36 0.59156,-0.8 z m 81.30527,-1.94666 c 0.0154,-0.37278 0.0912,-0.44861 0.19333,-0.19334 0.0924,0.231 0.0811,0.507 -0.0253,0.61334 -0.10634,0.10633 -0.18197,-0.0827 -0.16807,-0.42 z m -110.4,-3.52 c 0.0153,-0.37278 0.0912,-0.44861 0.19333,-0.19334 0.0924,0.231 0.0811,0.507 -0.0253,0.61334 -0.10633,0.10633 -0.18197,-0.0827 -0.16807,-0.42 z m 48.21847,-0.0397 c 0.39805,-0.0765 0.97405,-0.0736 1.28,0.006 0.30594,0.0801 -0.0197,0.14272 -0.72374,0.13916 -0.704,-0.004 -0.95432,-0.0691 -0.55626,-0.14562 z m 26.23626,4.9e-4 c 0.396,-0.0763 1.044,-0.0763 1.44,0 0.396,0.0763 0.072,0.13868 -0.72,0.13868 -0.792,0 -1.116,-0.0624 -0.72,-0.13868 z m -47.12,-1.37417 c 0.31856,-0.352 0.6512,-0.64 0.7392,-0.64 0.088,0 -0.10064,0.288 -0.4192,0.64 -0.31855,0.352 -0.65119,0.64 -0.73919,0.64 -0.088,0 0.10064,-0.288 0.41919,-0.64 z m -29.97999,-16.85859 c 0.231,-0.0924 0.507,-0.0811 0.61333,0.0253 0.10633,0.10633 -0.0827,0.18197 -0.42,0.16807 -0.37278,-0.0154 -0.44861,-0.0912 -0.19333,-0.19333 z m 149.01316,-32.74141 c 0,-15.57599 0.039,-21.94799 0.0867,-14.15999 0.0477,7.78799 0.0477,20.53199 0,28.31999 -0.0477,7.788 -0.0867,1.416 -0.0867,-14.16 z m -35.9679,24.77334 c 0.0154,-0.37278 0.0912,-0.44861 0.19333,-0.19334 0.0924,0.231 0.0811,0.507 -0.0253,0.61334 -0.10634,0.10633 -0.18197,-0.0827 -0.16807,-0.42 z m -61.53454,-4.20963 c 0.9299,-0.0648 2.3699,-0.0642 3.2,0.002 0.8301,0.0657 0.0693,0.11873 -1.69073,0.1179 -1.76,-8.3e-4 -2.43917,-0.0546 -1.50927,-0.11942 z m 7.66927,0.0105 c 0.396,-0.0763 1.044,-0.0763 1.44,0 0.396,0.0763 0.072,0.13868 -0.72,0.13868 -0.792,0 -1.116,-0.0624 -0.72,-0.13868 z m 17.92,0 c 0.396,-0.0763 1.044,-0.0763 1.44,0 0.396,0.0763 0.072,0.13868 -0.72,0.13868 -0.792,0 -1.116,-0.0624 -0.72,-0.13868 z m 12.8,0 c 0.396,-0.0763 1.044,-0.0763 1.44,0 0.396,0.0763 0.072,0.13868 -0.72,0.13868 -0.792,0 -1.116,-0.0624 -0.72,-0.13868 z m -64.24,-1.49498 c 0,-0.0665 0.252,-0.31845 0.56,-0.56 0.50754,-0.39804 0.51886,-0.38672 0.12082,0.12081 -0.41804,0.53304 -0.68082,0.70256 -0.68082,0.43919 z m -4.64,-6.91919 c 0.31856,-0.352 0.6512,-0.64 0.7392,-0.64 0.088,0 -0.10064,0.288 -0.4192,0.64 -0.31855,0.352 -0.65119,0.64 -0.73919,0.64 -0.088,0 0.10064,-0.288 0.41919,-0.64 z m 44.24,-0.5599 c 7.26,-0.048 19.14,-0.048 26.4,0 7.26,0.048 1.32,0.0872 -13.2,0.0872 -14.52,0 -20.46,-0.0392 -13.2,-0.0872 z m -33.52,-1.8401 c 0.41336,-0.44 0.82357,-0.8 0.91157,-0.8 0.088,0 -0.17821,0.36 -0.59157,0.8 -0.41335,0.44 -0.82356,0.8 -0.91156,0.8 -0.088,0 0.17821,-0.36 0.59156,-0.8 z m 81.30527,-2.26666 c 0.0154,-0.37278 0.0912,-0.44861 0.19333,-0.19334 0.0924,0.231 0.0811,0.507 -0.0253,0.61334 -0.10634,0.10633 -0.18197,-0.0827 -0.16807,-0.42 z m -110.4,-3.2 c 0.0153,-0.37278 0.0912,-0.44861 0.19333,-0.19334 0.0924,0.231 0.0811,0.507 -0.0253,0.61334 -0.10633,0.10633 -0.18197,-0.0827 -0.16807,-0.42 z m 48.21847,-0.35966 c 0.39805,-0.0765 0.97405,-0.0736 1.28,0.006 0.30594,0.0801 -0.0197,0.14272 -0.72374,0.13917 -0.704,-0.004 -0.95432,-0.0691 -0.55626,-0.14563 z m 26.23626,4.9e-4 c 0.396,-0.0763 1.044,-0.0763 1.44,0 0.396,0.0763 0.072,0.13868 -0.72,0.13868 -0.792,0 -1.116,-0.0624 -0.72,-0.13868 z m -47.12,-1.05417 c 0.31856,-0.352 0.6512,-0.64 0.7392,-0.64 0.088,0 -0.10064,0.288 -0.4192,0.64 -0.31855,0.352 -0.65119,0.64 -0.73919,0.64 -0.088,0 0.10064,-0.288 0.41919,-0.64 z m 103.00434,-37.59999 c 5.5e-4,-2.288 0.0515,-3.18202 0.11326,-1.9867 0.0617,1.19532 0.0613,3.06732 -10e-4,4.16 -0.0623,1.09268 -0.1128,0.1147 -0.11224,-2.1733 z m 16.00727,-1.44 c 0,-3.08 0.048,-4.34 0.10665,-2.8 0.0587,1.54 0.0587,4.06 0,5.6 -0.0587,1.54 -0.10665,0.28 -0.10665,-2.8 z m -130.43161,0.1014 c 0.231,-0.0924 0.507,-0.0811 0.61334,0.0253 0.10633,0.10634 -0.0827,0.18197 -0.42,0.16807 -0.37278,-0.0153 -0.44861,-0.0912 -0.19334,-0.19333 z M 192.33231,106.1031 c 1.01843,-0.0637 2.60243,-0.0631 3.52,0.001 0.91757,0.0644 0.0843,0.11654 -1.85168,0.11581 -1.936,-7.2e-4 -2.68675,-0.0534 -1.66832,-0.11712 z m 125.74831,3.5e-4 c 1.012,-0.0635 2.668,-0.0635 3.68,0 1.012,0.0635 0.184,0.11546 -1.84,0.11546 -2.024,0 -2.852,-0.052 -1.84,-0.11546 z m -87.18,-5.42212 c 0.231,-0.0924 0.507,-0.0811 0.61334,0.0253 0.10633,0.10634 -0.0827,0.18197 -0.42,0.16807 -0.37278,-0.0153 -0.44861,-0.0912 -0.19334,-0.19333 z m -63.77999,-2.341404 c 0.31855,-0.352 0.65119,-0.64 0.73919,-0.64 0.088,0 -0.10064,0.288 -0.41919,0.64 -0.31856,0.352 -0.6512,0.64 -0.7392,0.64 -0.088,0 0.10064,-0.288 0.4192,-0.64 z m 83.84226,-4.156334 c -0.11211,-0.181396 0.0163,-0.235043 0.30111,-0.125764 0.55438,0.212733 0.65581,0.442098 0.19551,0.442098 -0.16561,0 -0.38909,-0.14235 -0.49662,-0.316334 z m 26.31773,0.104404 c 0.22,-0.08877 0.58,-0.08877 0.8,0 0.22,0.08877 0.04,0.161404 -0.4,0.161404 -0.44,0 -0.62,-0.07263 -0.4,-0.161404 z M 197.38589,91.11318 c 0.0154,-0.372782 0.0912,-0.448608 0.19333,-0.193334 0.0924,0.231 0.0811,0.507 -0.0253,0.613334 -0.10633,0.106333 -0.18197,-0.08267 -0.16807,-0.42 z m 66.21473,0.385849 c 0,-0.06645 0.252,-0.31845 0.56,-0.56 0.50754,-0.398039 0.51886,-0.386721 0.12082,0.120817 -0.41804,0.53304 -0.68082,0.702553 -0.68082,0.439183 z m 65.54,-0.737779 c 0.231,-0.09244 0.507,-0.08107 0.61334,0.02526 0.10633,0.106333 -0.0827,0.181965 -0.42,0.16807 -0.37279,-0.01535 -0.44861,-0.09118 -0.19334,-0.193333 z m -26.96116,-2.831581 c -0.34164,-0.258402 -0.46727,-0.469823 -0.27918,-0.469823 0.18809,0 0.52124,0.216 0.74034,0.48 0.49831,0.600421 0.34155,0.596962 -0.46116,-0.01018 z m -49.13884,-0.488708 c 0,-0.186387 0.144,-0.249889 0.32,-0.141115 0.176,0.108774 0.32,0.261273 0.32,0.338886 0,0.07761 -0.144,0.141114 -0.32,0.141114 -0.176,0 -0.32,-0.152498 -0.32,-0.338885 z m 12.85053,-2.221115 c 0,-0.44 0.0726,-0.62 0.1614,-0.4 0.0888,0.22 0.0888,0.58 0,0.8 -0.0888,0.22 -0.1614,0.04 -0.1614,-0.4 z m -8.05053,-2.908592 c -0.6892,-0.563736 -0.70275,-0.60683 -0.0978,-0.311164 0.3862,0.188759 0.7907,0.486424 0.89889,0.661477 0.28882,0.467328 0.0949,0.3825 -0.80107,-0.350313 z m -11.2,-1.552522 c 0,-0.165613 0.14235,-0.389092 0.31634,-0.49662 0.18139,-0.112109 0.23504,0.01634 0.12576,0.301114 -0.21273,0.554374 -0.4421,0.655804 -0.4421,0.195506 z"
         id="path11" /><path
         style="fill:#ffffff;fill-opacity:1"
         d="m 207.52063,319.23401 c 0.396,-0.0763 1.044,-0.0763 1.44,0 0.396,0.0763 0.072,0.13867 -0.72,0.13867 -0.792,0 -1.116,-0.0624 -0.72,-0.13867 z m 4.82,0.007 c 0.231,-0.0924 0.507,-0.0811 0.61333,0.0253 0.10633,0.10633 -0.0827,0.18196 -0.42,0.16807 -0.37278,-0.0154 -0.44861,-0.0912 -0.19333,-0.19334 z m 5.09999,0.007 c 0.22,-0.0888 0.58,-0.0888 0.8,0 0.22,0.0888 0.04,0.1614 -0.4,0.1614 -0.44,0 -0.62,-0.0726 -0.4,-0.1614 z m 7.36,-0.0261 c 1.452,-0.0593 3.828,-0.0593 5.28,0 1.452,0.0593 0.264,0.1078 -2.64,0.1078 -2.904,0 -4.092,-0.0485 -2.64,-0.1078 z m 11.20574,0.006 c 0.57515,-0.0712 1.43915,-0.0697 1.92,0.003 0.48084,0.073 0.0103,0.13129 -1.04574,0.12949 -1.056,-0.002 -1.44942,-0.0615 -0.87426,-0.13275 z m 36.15999,0 c 0.57516,-0.0712 1.43916,-0.0697 1.92,0.003 0.48085,0.073 0.0103,0.13129 -1.04573,0.12949 -1.056,-0.002 -1.44942,-0.0615 -0.87427,-0.13275 z m 13.45427,0.0133 c 0.231,-0.0924 0.507,-0.0811 0.61334,0.0253 0.10633,0.10633 -0.0827,0.18196 -0.42,0.16807 -0.37279,-0.0154 -0.44861,-0.0912 -0.19334,-0.19334 z m 18.0644,-0.011 c 0.48642,-0.0736 1.20642,-0.0716 1.6,0.004 0.39358,0.076 -0.004,0.13614 -0.8844,0.13374 -0.88,-0.002 -1.20202,-0.0645 -0.7156,-0.1381 z m 6.5556,-0.002 c 0.572,-0.071 1.508,-0.071 2.08,0 0.572,0.071 0.104,0.12907 -1.04,0.12907 -1.144,0 -1.612,-0.0581 -1.04,-0.12907 z m 12.64,0.002 c 0.484,-0.0733 1.276,-0.0733 1.76,0 0.484,0.0733 0.088,0.13331 -0.88,0.13331 -0.968,0 -1.364,-0.06 -0.88,-0.13331 z m 17.84,-4.97936 c 0,-0.0611 0.468,-0.45369 1.04,-0.87243 0.64356,-0.47112 0.86706,-0.54839 0.58632,-0.2027 -0.42614,0.52472 -1.62632,1.31814 -1.62632,1.07513 z m 3.84,-3.55226 c 0,-0.0665 0.252,-0.31845 0.56,-0.56 0.50754,-0.39803 0.51886,-0.38672 0.12082,0.12082 -0.41804,0.53304 -0.68082,0.70255 -0.68082,0.43918 z m -9.57473,-17.34584 c 0.0154,-0.37279 0.0912,-0.44861 0.19333,-0.19334 0.0924,0.231 0.0811,0.507 -0.0253,0.61334 -0.10634,0.10633 -0.18197,-0.0827 -0.16807,-0.42 z m -107.28527,-11.8715 c 0.231,-0.0924 0.507,-0.0811 0.61334,0.0253 0.10633,0.10633 -0.0827,0.18196 -0.42,0.16807 -0.37278,-0.0154 -0.44861,-0.0912 -0.19334,-0.19333 z m 6.27593,-12.26141 c 0,-3.784 0.0463,-5.332 0.10286,-3.44 0.0566,1.892 0.0566,4.988 0,6.88 -0.0566,1.892 -0.10286,0.344 -0.10286,-3.44 z m -28.79441,-6.4 c 0,-5.192 0.044,-7.316 0.0978,-4.72 0.0538,2.596 0.0538,6.844 0,9.44 -0.0538,2.596 -0.0978,0.472 -0.0978,-4.72 z m 18.09848,6.88 c 0.41336,-0.44 0.82357,-0.8 0.91157,-0.8 0.088,0 -0.17821,0.36 -0.59157,0.8 -0.41335,0.44 -0.82356,0.8 -0.91156,0.8 -0.088,0 0.17821,-0.36 0.59156,-0.8 z m 3.84,-0.92082 c 0,-0.0664 0.252,-0.31845 0.56,-0.56 0.50754,-0.39803 0.51886,-0.38672 0.12082,0.12082 -0.41804,0.53304 -0.68082,0.70256 -0.68082,0.43918 z m -13.6304,-0.91918 -0.60959,-0.72 0.72,0.6096 c 0.67662,0.57287 0.86567,0.8304 0.60959,0.8304 -0.0607,0 -0.38472,-0.324 -0.72,-0.72 z m 45.2304,0.17417 c 0.396,-0.0763 1.044,-0.0763 1.44,0 0.396,0.0763 0.072,0.13868 -0.72,0.13868 -0.792,0 -1.116,-0.0624 -0.72,-0.13868 z m 8.32,-0.0132 c 2.156,-0.0554 5.684,-0.0554 7.84,0 2.156,0.0554 0.392,0.10066 -3.92,0.10066 -4.312,0 -6.076,-0.0453 -3.92,-0.10066 z m 16.64,9.7e-4 c 1.452,-0.0593 3.828,-0.0593 5.28,0 1.452,0.0593 0.264,0.1078 -2.64,0.1078 -2.904,0 -4.092,-0.0485 -2.64,-0.1078 z m 14.72,-10e-4 c 2.508,-0.0541 6.612,-0.0541 9.12,0 2.508,0.0541 0.456,0.0983 -4.56,0.0983 -5.016,0 -7.068,-0.0442 -4.56,-0.0983 z m -66.16,-7.60073 c 0.59706,-0.616 1.15755,-1.12 1.24555,-1.12 0.088,0 -0.32849,0.504 -0.92555,1.12 -0.59705,0.616 -1.15754,1.12 -1.24554,1.12 -0.088,0 0.32849,-0.504 0.92554,-1.12 z m -8,-0.28082 c 0,-0.0664 0.252,-0.31844 0.56,-0.56 0.50754,-0.39803 0.51886,-0.38672 0.12082,0.12082 -0.41804,0.53304 -0.68082,0.70256 -0.68082,0.43918 z m -11.7104,-1.87918 -0.60959,-0.72 0.72,0.6096 c 0.67662,0.57287 0.86567,0.8304 0.60959,0.8304 -0.0607,0 -0.38472,-0.324 -0.72,-0.72 z m 37.44,-0.32 -0.6096,-0.72 0.72,0.6096 c 0.67663,0.57287 0.86568,0.8304 0.6096,0.8304 -0.0607,0 -0.38472,-0.324 -0.72,-0.72 z m 64.69098,-4.3062 c -0.17366,-0.45606 -0.13691,-0.49282 0.17913,-0.17913 0.21869,0.21707 0.31702,0.47528 0.21849,0.5738 -0.0985,0.0985 -0.27745,-0.0791 -0.39762,-0.39467 z m -64.82058,-0.85462 c 0,-0.0664 0.252,-0.31844 0.56,-0.56 0.50754,-0.39803 0.51886,-0.38672 0.12082,0.12082 -0.41804,0.53304 -0.68082,0.70256 -0.68082,0.43918 z m 64,-0.19918 c -0.28841,-0.18638 -0.32788,-0.31215 -0.0989,-0.3151 0.20961,-0.003 0.47011,0.1391 0.57888,0.3151 0.24554,0.39729 0.13476,0.39729 -0.48,0 z m -53.17893,-1.19965 c 3.39958,-0.0519 8.87158,-0.0518 12.16,1.7e-4 3.28841,0.052 0.50693,0.0944 -6.18107,0.0943 -6.688,-9e-5 -9.37852,-0.0426 -5.97893,-0.0945 z m 28.13893,-8e-5 c 4.268,-0.0504 11.252,-0.0504 15.52,0 4.268,0.0504 0.776,0.0917 -7.76,0.0917 -8.536,0 -12.028,-0.0412 -7.76,-0.0917 z m -54.64,-1.52027 c 0.59706,-0.616 1.15755,-1.12 1.24555,-1.12 0.088,0 -0.32849,0.504 -0.92555,1.12 -0.59705,0.616 -1.15754,1.12 -1.24554,1.12 -0.088,0 0.32849,-0.504 0.92554,-1.12 z m -2.60081,-3.92 c -0.39804,-0.50754 -0.38672,-0.51885 0.12081,-0.12081 0.308,0.24155 0.56,0.49355 0.56,0.56 0,0.26337 -0.26277,0.0939 -0.68081,-0.43919 z m -4.17919,-10.21859 c 0.231,-0.0924 0.507,-0.0811 0.61334,0.0253 0.10633,0.10633 -0.0827,0.18196 -0.42,0.16807 -0.37278,-0.0154 -0.44861,-0.0912 -0.19334,-0.19333 z m 6.27593,-12.26141 c 0,-3.784 0.0463,-5.332 0.10286,-3.44 0.0566,1.892 0.0566,4.988 0,6.88 -0.0566,1.892 -0.10286,0.344 -0.10286,-3.44 z m -28.79441,-6.4 c 0,-5.192 0.044,-7.316 0.0978,-4.72 0.0538,2.596 0.0538,6.844 0,9.44 -0.0538,2.596 -0.0978,0.472 -0.0978,-4.72 z m 18.09848,6.88 c 0.41336,-0.44 0.82357,-0.8 0.91157,-0.8 0.088,0 -0.17821,0.36 -0.59157,0.8 -0.41335,0.44 -0.82356,0.8 -0.91156,0.8 -0.088,0 0.17821,-0.36 0.59156,-0.8 z m 35.76,-0.0658 c 0.396,-0.0763 1.044,-0.0763 1.44,0 0.396,0.0763 0.072,0.13868 -0.72,0.13868 -0.792,0 -1.116,-0.0624 -0.72,-0.13868 z m 8.32,-0.0132 c 2.156,-0.0554 5.684,-0.0554 7.84,0 2.156,0.0554 0.392,0.10066 -3.92,0.10066 -4.312,0 -6.076,-0.0453 -3.92,-0.10066 z m 16.64,9.7e-4 c 1.452,-0.0593 3.828,-0.0593 5.28,0 1.452,0.0593 0.264,0.1078 -2.64,0.1078 -2.904,0 -4.092,-0.0485 -2.64,-0.1078 z m 14.72,-0.001 c 2.508,-0.0541 6.612,-0.0541 9.12,0 2.508,0.0541 0.456,0.0983 -4.56,0.0983 -5.016,0 -7.068,-0.0442 -4.56,-0.0983 z m -71.6,-0.84154 c 0,-0.0664 0.252,-0.31845 0.56,-0.56 0.50754,-0.39804 0.51886,-0.38672 0.12082,0.12081 -0.41804,0.53304 -0.68082,0.70256 -0.68082,0.43919 z m -13.6304,-0.91919 -0.60959,-0.72 0.72,0.6096 c 0.67662,0.57287 0.86567,0.8304 0.60959,0.8304 -0.0607,0 -0.38472,-0.324 -0.72,-0.72 z m 18.7504,-7.44 c 0.59706,-0.616 1.15755,-1.12 1.24555,-1.12 0.088,0 -0.32849,0.504 -0.92555,1.12 -0.59705,0.616 -1.15754,1.12 -1.24554,1.12 -0.088,0 0.32849,-0.504 0.92554,-1.12 z m -8,-0.28081 c 0,-0.0665 0.252,-0.31845 0.56,-0.56 0.50754,-0.39804 0.51886,-0.38672 0.12082,0.12081 -0.41804,0.53304 -0.68082,0.70256 -0.68082,0.43919 z m 26.0496,-0.59919 -0.6096,-0.72 0.72,0.6096 c 0.396,0.33528 0.72,0.65928 0.72,0.72 0,0.25608 -0.25753,0.067 -0.8304,-0.6096 z m -37.76,-1.28 -0.60959,-0.72 0.72,0.6096 c 0.67662,0.57287 0.86567,0.8304 0.60959,0.8304 -0.0607,0 -0.38472,-0.324 -0.72,-0.72 z m 102.45098,-3.0262 c -0.17366,-0.45606 -0.13691,-0.49282 0.17913,-0.17913 0.21869,0.21707 0.31702,0.47528 0.21849,0.5738 -0.0985,0.0985 -0.27745,-0.0791 -0.39762,-0.39467 z m -64.82058,-0.85461 c 0,-0.0665 0.252,-0.31845 0.56,-0.56 0.50754,-0.39804 0.51886,-0.38672 0.12082,0.12081 -0.41804,0.53304 -0.68082,0.70256 -0.68082,0.43919 z m 64,-0.19919 c -0.28841,-0.18638 -0.32788,-0.31215 -0.0989,-0.3151 0.20961,-0.003 0.47011,0.1391 0.57888,0.3151 0.24554,0.39729 0.13476,0.39729 -0.48,0 z m -53.17893,-1.19965 c 3.39958,-0.0519 8.87158,-0.0518 12.16,1.7e-4 3.28841,0.052 0.50693,0.0944 -6.18107,0.0943 -6.688,-9e-5 -9.37852,-0.0426 -5.97893,-0.0945 z m 28.13893,-7e-5 c 4.268,-0.0504 11.252,-0.0504 15.52,0 4.268,0.0504 0.776,0.0916 -7.76,0.0916 -8.536,0 -12.028,-0.0412 -7.76,-0.0916 z m -54.96,-3.12028 c 0.59706,-0.616 1.15755,-1.12 1.24555,-1.12 0.088,0 -0.32849,0.504 -0.92555,1.12 -0.59705,0.616 -1.15754,1.12 -1.24554,1.12 -0.088,0 0.32849,-0.504 0.92554,-1.12 z m -2.60081,-3.92 c -0.39804,-0.50753 -0.38672,-0.51885 0.12081,-0.12081 0.53304,0.41803 0.70256,0.68081 0.43919,0.68081 -0.0665,0 -0.31845,-0.252 -0.56,-0.56 z m -3.85919,-11.17859 c 0.231,-0.0924 0.507,-0.0811 0.61334,0.0253 0.10633,0.10633 -0.0827,0.18197 -0.42,0.16807 -0.37278,-0.0154 -0.44861,-0.0912 -0.19334,-0.19333 z m 123.66716,-3.30141 c 0,-0.792 0.0624,-1.116 0.13868,-0.72 0.0763,0.396 0.0763,1.044 0,1.44 -0.0763,0.396 -0.13868,0.072 -0.13868,-0.72 z m -117.39123,-8.96 c 0,-3.784 0.0463,-5.332 0.10286,-3.44 0.0566,1.892 0.0566,4.988 0,6.88 -0.0566,1.892 -0.10286,0.344 -0.10286,-3.44 z m -28.79441,-6.4 c 0,-5.192 0.044,-7.316 0.0978,-4.72 0.0538,2.596 0.0538,6.844 0,9.44 -0.0538,2.596 -0.0978,0.472 -0.0978,-4.72 z m 18.09848,6.88 c 0.41336,-0.44 0.82357,-0.8 0.91157,-0.8 0.088,0 -0.17821,0.36 -0.59157,0.8 -0.41335,0.44 -0.82356,0.8 -0.91156,0.8 -0.088,0 0.17821,-0.36 0.59156,-0.8 z m 35.76,-0.38583 c 0.396,-0.0763 1.044,-0.0763 1.44,0 0.396,0.0763 0.072,0.13868 -0.72,0.13868 -0.792,0 -1.116,-0.0624 -0.72,-0.13868 z m 8.32,-0.0132 c 2.156,-0.0554 5.684,-0.0554 7.84,0 2.156,0.0554 0.392,0.10066 -3.92,0.10066 -4.312,0 -6.076,-0.0453 -3.92,-0.10066 z m 16.64,9.7e-4 c 1.452,-0.0593 3.828,-0.0593 5.28,0 1.452,0.0593 0.264,0.10781 -2.64,0.10781 -2.904,0 -4.092,-0.0485 -2.64,-0.10781 z m 14.72,-10e-4 c 2.508,-0.0541 6.612,-0.0541 9.12,0 2.508,0.0541 0.456,0.0983 -4.56,0.0983 -5.016,0 -7.068,-0.0442 -4.56,-0.0983 z m -71.6,-0.52154 c 0,-0.0664 0.252,-0.31845 0.56,-0.56 0.50754,-0.39804 0.51886,-0.38672 0.12082,0.12081 -0.41804,0.53304 -0.68082,0.70256 -0.68082,0.43919 z m -14.09722,-1.39919 -1.10277,-1.2 1.2,1.10278 c 0.66,0.60652 1.2,1.14652 1.2,1.2 0,0.24436 -0.27079,0.0142 -1.29723,-1.10278 z m 19.21722,-6.96 c 0.59706,-0.616 1.15755,-1.12 1.24555,-1.12 0.088,0 -0.32849,0.504 -0.92555,1.12 -0.59705,0.616 -1.15754,1.12 -1.24554,1.12 -0.088,0 0.32849,-0.504 0.92554,-1.12 z m -8,-0.28081 c 0,-0.0665 0.252,-0.31845 0.56,-0.56 0.50754,-0.39804 0.51886,-0.38672 0.12082,0.12081 -0.41804,0.53304 -0.68082,0.70256 -0.68082,0.43919 z m 26.0496,-0.91919 -0.6096,-0.72 0.72,0.6096 c 0.67663,0.57287 0.86568,0.8304 0.6096,0.8304 -0.0607,0 -0.38472,-0.324 -0.72,-0.72 z m -37.76,-0.96 -0.60959,-0.72 0.72,0.6096 c 0.396,0.33528 0.72,0.65928 0.72,0.72 0,0.25608 -0.25754,0.067 -0.83041,-0.6096 z m 102.45098,-3.34619 c -0.17366,-0.45607 -0.13691,-0.49282 0.17913,-0.17914 0.21869,0.21707 0.31702,0.47528 0.21849,0.5738 -0.0985,0.0985 -0.27745,-0.0791 -0.39762,-0.39466 z m -64.82058,-0.85462 c 0,-0.0664 0.252,-0.31845 0.56,-0.56 0.50754,-0.39804 0.51886,-0.38672 0.12082,0.12081 -0.41804,0.53304 -0.68082,0.70256 -0.68082,0.43919 z m 64,-0.19919 c -0.28841,-0.18638 -0.32788,-0.31215 -0.0989,-0.3151 0.20961,-0.003 0.47011,0.1391 0.57888,0.3151 0.24554,0.39729 0.13476,0.39729 -0.48,0 z m -53.17893,-1.19965 c 3.39958,-0.0519 8.87158,-0.0518 12.16,1.7e-4 3.28841,0.052 0.50693,0.0944 -6.18107,0.0943 -6.688,-1e-4 -9.37852,-0.0426 -5.97893,-0.0945 z m 28.13893,-7e-5 c 4.268,-0.0504 11.252,-0.0504 15.52,0 4.268,0.0504 0.776,0.0917 -7.76,0.0917 -8.536,0 -12.028,-0.0412 -7.76,-0.0917 z m -54.96,-2.80028 c 0.59706,-0.616 1.15755,-1.12 1.24555,-1.12 0.088,0 -0.32849,0.504 -0.92555,1.12 -0.59705,0.616 -1.15754,1.12 -1.24554,1.12 -0.088,0 0.32849,-0.504 0.92554,-1.12 z m -2.60081,-3.92 c -0.39804,-0.50753 -0.38672,-0.51885 0.12081,-0.12081 0.53304,0.41804 0.70256,0.68081 0.43919,0.68081 -0.0665,0 -0.31845,-0.252 -0.56,-0.56 z m 70.12081,-26.74013 c 0,-0.0551 0.468,-0.52307 1.04,-1.04 l 1.04,-0.93986 -0.93987,1.04 c -0.87609,0.96942 -1.14013,1.18708 -1.14013,0.93986 z m -5.44,-9.30068 c 0,-0.0665 0.252,-0.31845 0.56,-0.56 0.50754,-0.39804 0.51886,-0.38672 0.12082,0.12082 -0.41804,0.53304 -0.68082,0.70255 -0.68082,0.43918 z m 39.06527,-0.38585 c 0.0154,-0.37278 0.0912,-0.44861 0.19333,-0.19333 0.0924,0.231 0.0811,0.507 -0.0253,0.61333 -0.10634,0.10633 -0.18197,-0.0827 -0.16807,-0.42 z m -156.96469,-5.3478 c 0.12017,-0.31559 0.2991,-0.49319 0.39762,-0.39466 0.0985,0.0985 2.1e-4,0.35673 -0.21849,0.5738 -0.31603,0.31368 -0.35279,0.27693 -0.17913,-0.17914 z m 153.0752,-2.70619 -0.77578,-0.88 0.88,0.77578 c 0.484,0.42668 0.88,0.82268 0.88,0.88 0,0.25096 -0.25913,0.0467 -0.98422,-0.77578 z m -7.39578,-2.8586 c 0.231,-0.0924 0.507,-0.0811 0.61334,0.0253 0.10633,0.10634 -0.0827,0.18197 -0.42,0.16807 -0.37279,-0.0154 -0.44861,-0.0912 -0.19334,-0.19333 z m -100.00537,-5.45953 c 1.37204,-0.0601 3.53204,-0.0598 4.8,8.2e-4 1.26796,0.0606 0.14537,0.10977 -2.49463,0.10932 -2.64,-4.4e-4 -3.67741,-0.05 -2.30537,-0.11014 z m 55.66537,0.0175 c 0.308,-0.0805 0.812,-0.0805 1.12,0 0.308,0.0805 0.056,0.14635 -0.56,0.14635 -0.616,0 -0.868,-0.0659 -0.56,-0.14635 z m 4,-0.017 c 1.276,-0.0607 3.364,-0.0607 4.64,0 1.276,0.0607 0.232,0.11044 -2.32,0.11044 -2.552,0 -3.596,-0.0497 -2.32,-0.11044 z M 166.16063,99.619846 c 0.31855,-0.352 0.65119,-0.64 0.73919,-0.64 0.088,0 -0.10064,0.288 -0.41919,0.64 -0.31856,0.352 -0.6512,0.640004 -0.7392,0.640004 -0.088,0 0.10064,-0.288004 0.4192,-0.640004 z m 177.73577,-1.52 -0.77578,-0.88 0.88,0.775781 c 0.484,0.426679 0.88,0.822679 0.88,0.88 0,0.250967 -0.25913,0.04671 -0.98422,-0.775781 z m -129.25578,0.258886 c 0,-0.165613 0.14236,-0.389093 0.31634,-0.496621 0.18139,-0.112108 0.23504,0.01634 0.12576,0.301115 -0.21273,0.554373 -0.4421,0.655804 -0.4421,0.195506 z m 62.10527,-1.485553 c 0.0154,-0.372781 0.0912,-0.448607 0.19333,-0.193333 0.0924,0.231 0.0811,0.507 -0.0253,0.613333 -0.10634,0.106334 -0.18197,-0.08267 -0.16807,-0.42 z M 169.20063,96.619028 c 0,-0.06645 0.252,-0.318449 0.56,-0.56 0.50753,-0.398038 0.51885,-0.38672 0.12081,0.120818 -0.41803,0.533039 -0.68081,0.702553 -0.68081,0.439182 z m 125.88959,-0.599182 -0.6096,-0.72 0.72,0.609596 c 0.67663,0.57287 0.86568,0.830404 0.6096,0.830404 -0.0607,0 -0.38472,-0.324 -0.72,-0.72 z m 46.22958,-0.16 c -0.39803,-0.507538 -0.38672,-0.518856 0.12082,-0.120818 0.53304,0.418039 0.70256,0.680818 0.43918,0.680818 -0.0664,0 -0.31845,-0.252 -0.56,-0.56 z m -85.95309,-0.621757 c 0.31135,-0.08113 0.74335,-0.0758 0.96,0.01186 0.21665,0.08766 -0.0381,0.154038 -0.56609,0.147517 -0.528,-0.0065 -0.70526,-0.07824 -0.39391,-0.159374 z M 224.16062,94.26177 c 1.452,-0.05929 3.828,-0.05929 5.28,0 1.452,0.05929 0.264,0.107807 -2.64,0.107807 -2.904,0 -4.092,-0.04851 -2.64,-0.107807 z m 57.12,-4.84e-4 c 1.716,-0.05754 4.524,-0.05754 6.24,0 1.716,0.05754 0.312,0.104615 -3.12,0.104615 -3.432,0 -4.836,-0.04708 -3.12,-0.104615 z m -32.74422,-1.92144 -0.77578,-0.88 0.88,0.775781 c 0.484,0.426679 0.88,0.822679 0.88,0.88 0,0.250967 -0.25913,0.04671 -0.98422,-0.775781 z m -40.93577,-2.420131 c 0,-0.05507 0.468,-0.523071 1.04,-1.04 l 1.04,-0.939869 -0.93987,1.04 c -0.87609,0.969426 -1.14013,1.187089 -1.14013,0.939869 z m 55.34277,-11.979868 -1.10278,-1.2 1.2,1.102773 c 1.11694,1.026437 1.34714,1.297227 1.10278,1.297227 -0.0535,0 -0.59348,-0.54 -1.2,-1.2 z m -14.54278,0.24 c 0.31856,-0.352 0.6512,-0.64 0.7392,-0.64 0.088,0 -0.10064,0.288 -0.4192,0.64 -0.31855,0.352 -0.65119,0.64 -0.73919,0.64 -0.088,0 0.10064,-0.288 0.41919,-0.64 z m -8.96,-6.72 c 0.31856,-0.352 0.6512,-0.64 0.7392,-0.64 0.088,0 -0.10064,0.288 -0.4192,0.64 -0.31855,0.352 -0.65119,0.64 -0.73919,0.64 -0.088,0 0.10064,-0.288 0.41919,-0.64 z m 31.6496,-1.04 -0.6096,-0.72 0.72,0.609596 c 0.67663,0.57287 0.86568,0.830404 0.6096,0.830404 -0.0607,0 -0.38472,-0.324 -0.72,-0.72 z m -30.5296,-0.04082 c 0,-0.06645 0.252,-0.31845 0.56,-0.56 0.50754,-0.398039 0.51886,-0.38672 0.12082,0.120818 -0.41804,0.533039 -0.68082,0.702553 -0.68082,0.439182 z m 10.18,-5.537779 c 0.231,-0.09244 0.507,-0.08107 0.61334,0.02526 0.10633,0.106334 -0.0827,0.181965 -0.42,0.168071 -0.37278,-0.01535 -0.44861,-0.09118 -0.19334,-0.193334 z"
         id="path10" /><path
         style="fill:#ffffff;fill-opacity:1"
         d="m 180.26884,318.6135 c -4.56253,-0.97812 -9.63423,-4.02912 -13.02637,-7.83632 -2.89433,-3.24847 -4.27971,-5.67017 -5.79036,-10.12179 l -0.73148,-2.15555 -0.0972,-92.32 c -0.0727,-69.0558 -0.003,-92.92478 0.27529,-94.71999 1.2979,-8.36227 7.75036,-16.168546 15.82193,-19.141584 3.54524,-1.305836 6.47663,-1.65842 13.78815,-1.65842 h 6.85185 v 7.68 7.680004 l -2.8,0.0268 c -3.02275,0.029 -9.53866,0.45523 -10.32,0.6751 -1.82184,0.51268 -5.44,3.2454 -5.44,4.10872 0,0.17014 -0.11702,0.30934 -0.26004,0.30934 -0.14302,0 -0.61102,0.756 -1.04,1.68 l -0.77996,1.68 v 90.39999 90.4 l 0.8,1.6 c 0.44,0.88 0.98094,1.79123 1.20209,2.02495 0.22115,0.23373 0.53696,0.67695 0.7018,0.98495 0.43468,0.81221 4.07976,3.17949 5.47362,3.55482 0.78434,0.2112 25.30272,0.29261 71.70717,0.23811 l 70.51531,-0.0828 1.67749,-0.92413 c 1.92357,-1.05969 4.21384,-3.3747 5.13494,-5.19042 0.3475,-0.685 0.80089,-2.03745 1.00753,-3.00545 0.28384,-1.32963 0.35179,-23.47382 0.27788,-90.56 l -0.0978,-88.79999 -0.71637,-1.76 c -0.8522,-2.0937 -3.20317,-4.74701 -5.20363,-5.87281 -1.92015,-1.08061 -4.66585,-1.48186 -10.16,-1.48478 l -4.56,-0.002 v -7.680004 -7.68 h 6.53685 c 3.59526,0 7.66326,0.153891 9.04,0.341981 2.91622,0.398413 7.04561,2.044479 9.86315,3.931665 1.64814,1.103921 5.15125,4.386691 6.49413,6.085648 1.01487,1.28398 3.09478,5.5844 3.71079,7.67245 l 0.67508,2.28826 0.0886,93.11999 c 0.0996,104.66102 0.33214,94.88894 -2.39505,100.64 -1.48397,3.1294 -3.04871,5.26706 -5.49872,7.51209 -0.77303,0.70835 -1.67311,1.53991 -2.00017,1.84791 -0.32706,0.308 -0.67671,0.56 -0.777,0.56 -0.10029,0 -0.83306,0.44771 -1.62839,0.9949 -1.77394,1.22051 -4.48171,2.30377 -7.44106,2.97687 -2.00816,0.45674 -9.65237,0.50559 -75.45138,0.48214 -63.40412,-0.0226 -73.51325,-0.0896 -75.42861,-0.50025 z m 22.05179,-37.19505 c -2.44959,-0.42794 -4.26295,-2.08814 -4.96873,-4.54903 -0.4408,-1.53699 -0.40506,-26.33153 0.0403,-27.96958 0.43021,-1.58223 1.64712,-2.9372 3.32841,-3.70601 1.17074,-0.53535 2.39237,-0.58708 14.31274,-0.60608 8.55561,-0.0136 13.51723,0.10122 14.44307,0.33435 0.92433,0.23275 1.83366,0.78865 2.6388,1.61319 l 1.22847,1.25807 -3.75154,3.75154 -3.75155,3.75154 v -1.3583 -1.3583 h -10.41798 -10.41799 l 0.098,10.48 0.098,10.48 10.31999,0.0844 10.32,0.0844 0.0226,-1.84443 0.0226,-1.84444 3.99422,-3.81414 3.99421,-3.81415 -0.0968,7.52246 -0.0968,7.52246 -0.94034,1.35597 c -0.5172,0.74578 -1.5252,1.66904 -2.24,2.05169 -1.26716,0.67832 -1.61971,0.69699 -14.09966,0.74682 -7.03999,0.0281 -13.37599,-0.0495 -14.07999,-0.1725 z m 48.79999,-6.35911 c -0.69286,-0.34612 -1.35185,-1.03437 -1.72794,-1.80469 -0.53488,-1.09554 -0.55801,-1.38397 -0.19241,-2.4 0.22855,-0.63514 0.79012,-1.47863 1.24795,-1.87442 l 0.8324,-0.71961 30.49589,-3.9e-4 c 33.47943,-4.3e-4 31.82141,-0.0968 32.8587,1.90914 0.79919,1.54548 0.62704,3.02226 -0.47367,4.06335 -0.5275,0.49892 -1.2835,1.00077 -1.68,1.11522 -0.39651,0.11446 -14.11292,0.22224 -30.48092,0.23951 -27.72961,0.0293 -29.83641,-0.007 -30.88,-0.52811 z m -32.71525,-2.73665 c -1.24299,-0.5437 -12.25664,-12.06917 -12.51433,-13.09589 -0.52986,-2.11116 1.72378,-4.23238 3.69881,-3.48147 0.43657,0.16598 2.8296,2.36565 5.31785,4.88815 l 4.5241,4.58636 2.97249,-3.04 c 1.63487,-1.672 6.15012,-6.316 10.03389,-10.32 6.63372,-6.83908 7.13121,-7.28 8.21408,-7.28 1.70542,0 2.93382,1.16958 2.93382,2.79335 0,1.06049 -0.25355,1.54524 -1.59273,3.04514 -2.13639,2.39277 -20.65569,21.46778 -21.08996,21.7228 -0.80982,0.47558 -1.68109,0.5389 -2.49802,0.18156 z m 32.12117,-14.15332 c -2.02297,-1.70221 -1.97408,-4.43376 0.10485,-5.85826 l 1.02271,-0.70077 30.70084,0.0847 c 30.20529,0.0834 30.71164,0.0951 31.36987,0.72475 2.08688,1.99635 1.83856,4.85818 -0.52772,6.08183 -0.80133,0.41438 -4.979,0.47817 -31.31602,0.47817 h -30.39134 z m -48.52591,-22.51092 c -2.44959,-0.42794 -4.26295,-2.08814 -4.96873,-4.54903 -0.4408,-1.53699 -0.40506,-26.33153 0.0403,-27.96958 0.43021,-1.58223 1.64712,-2.9372 3.32841,-3.70601 1.17074,-0.53535 2.39237,-0.58708 14.31274,-0.60608 8.55561,-0.0136 13.51723,0.10122 14.44307,0.33435 0.92433,0.23275 1.83366,0.78865 2.6388,1.61319 l 1.22847,1.25807 -3.75154,3.75154 -3.75155,3.75154 v -1.3583 -1.3583 h -10.41798 -10.41799 l 0.098,10.48 0.098,10.48 10.31999,0.0844 10.32,0.0844 0.0226,-1.84443 0.0226,-1.84444 3.99422,-3.81414 3.99421,-3.81414 -0.0968,7.52246 -0.0968,7.52245 -0.94034,1.35597 c -0.5172,0.74579 -1.5252,1.66904 -2.24,2.05169 -1.26716,0.67832 -1.61971,0.69699 -14.09966,0.74682 -7.03999,0.0281 -13.37599,-0.0495 -14.07999,-0.1725 z m 49.11999,-4.7591 c -0.69286,-0.34613 -1.35185,-1.03438 -1.72794,-1.8047 -0.53488,-1.09554 -0.55801,-1.38397 -0.19241,-2.4 0.22855,-0.63514 0.79012,-1.47863 1.24795,-1.87442 l 0.8324,-0.71961 30.49589,-3.9e-4 c 33.47943,-4.2e-4 31.82141,-0.0968 32.8587,1.90914 0.79919,1.54548 0.62704,3.02227 -0.47367,4.06335 -0.5275,0.49892 -1.2835,1.00077 -1.68,1.11523 -0.39651,0.11445 -14.11292,0.22223 -30.48092,0.2395 -27.72961,0.0293 -29.83641,-0.007 -30.88,-0.5281 z m -33.03525,-4.33666 c -1.24299,-0.5437 -12.25664,-12.06917 -12.51433,-13.09589 -0.52986,-2.11115 1.72378,-4.23237 3.69881,-3.48147 0.43657,0.16598 2.8296,2.36565 5.31785,4.88815 l 4.5241,4.58636 2.97249,-3.04 c 1.63487,-1.672 6.15012,-6.316 10.03389,-10.32 6.63372,-6.83908 7.13121,-7.28 8.21408,-7.28 1.70542,0 2.93382,1.16958 2.93382,2.79335 0,1.06049 -0.25355,1.54524 -1.59273,3.04514 -2.13639,2.39277 -20.65569,21.46778 -21.08996,21.72281 -0.80982,0.47557 -1.68109,0.53889 -2.49802,0.18155 z m 32.44117,-12.55332 c -2.02297,-1.70221 -1.97408,-4.43376 0.10485,-5.85826 l 1.02271,-0.70077 30.70084,0.0847 c 30.20529,0.0834 30.71164,0.0951 31.36987,0.72475 2.08688,1.99635 1.83856,4.85818 -0.52772,6.08183 -0.80133,0.41438 -4.979,0.47817 -31.31602,0.47817 h -30.39134 z m -48.52591,-25.07092 c -2.44959,-0.42794 -4.26295,-2.08813 -4.96873,-4.54903 -0.4408,-1.53699 -0.40506,-26.33153 0.0403,-27.96958 0.43021,-1.58223 1.64712,-2.9372 3.32841,-3.70601 1.17074,-0.53535 2.39237,-0.58708 14.31274,-0.60608 8.55561,-0.0136 13.51723,0.10122 14.44307,0.33435 0.92433,0.23275 1.83366,0.78865 2.6388,1.61319 l 1.22847,1.25807 -3.75154,3.75154 -3.75155,3.75154 v -1.3583 -1.3583 h -10.41798 -10.41799 l 0.098,10.48 0.098,10.48 10.31999,0.0844 10.32,0.0844 0.0226,-1.84443 0.0226,-1.84444 3.99422,-3.81414 3.99421,-3.81414 -0.0968,7.52246 -0.0968,7.52246 -0.94034,1.35596 c -0.5172,0.74579 -1.5252,1.66904 -2.24,2.05169 -1.26716,0.67832 -1.61971,0.69699 -14.09966,0.74683 -7.03999,0.0281 -13.37599,-0.0495 -14.07999,-0.17251 z m 49.11999,-5.0791 c -0.69286,-0.34613 -1.35185,-1.03438 -1.72794,-1.80469 -0.53488,-1.09555 -0.55801,-1.38397 -0.19241,-2.4 0.22855,-0.63515 0.79012,-1.47864 1.24795,-1.87442 l 0.8324,-0.71961 30.49589,-3.9e-4 c 33.47943,-4.3e-4 31.82141,-0.0968 32.8587,1.90913 0.79919,1.54548 0.62704,3.02227 -0.47367,4.06335 -0.5275,0.49892 -1.2835,1.00077 -1.68,1.11523 -0.39651,0.11445 -14.11292,0.22223 -30.48092,0.2395 -27.72961,0.0293 -29.83641,-0.007 -30.88,-0.5281 z m -33.03525,-4.01666 c -1.24299,-0.5437 -12.25664,-12.06917 -12.51433,-13.09589 -0.53407,-2.12791 1.7253,-4.2318 3.72718,-3.47068 0.45217,0.17191 2.84367,2.37158 5.31445,4.88815 l 4.49233,4.57557 2.97589,-3.04 c 1.63674,-1.672 6.15352,-6.316 10.03729,-10.32 6.63372,-6.83908 7.13121,-7.28 8.21408,-7.28 1.70542,0 2.93382,1.16958 2.93382,2.79335 0,1.06049 -0.25355,1.54525 -1.59273,3.04514 -2.13639,2.39277 -20.65569,21.46778 -21.08996,21.72281 -0.80982,0.47557 -1.68109,0.53889 -2.49802,0.18155 z m 32.44117,-12.87332 c -2.02297,-1.70221 -1.97408,-4.43375 0.10485,-5.85826 l 1.02271,-0.70077 30.70084,0.0848 c 30.20529,0.0834 30.71164,0.0951 31.36987,0.72475 2.08688,1.99635 1.83856,4.85818 -0.52772,6.08183 -0.80133,0.41438 -4.979,0.47817 -31.31602,0.47817 h -30.39134 z m -32.61317,-36.47635 c -4.41284,-0.95839 -8.67882,-4.18008 -11.31725,-8.54684 -2.23423,-3.69776 -2.47644,-5.15228 -2.49232,-14.96633 -0.0152,-9.407743 0.22543,-11.215712 1.91474,-14.385172 0.80334,-1.507224 2.92975,-3.940234 5.10209,-5.83775 0.83757,-0.731618 3.61857,-1.854208 5.40367,-2.181272 0.94802,-0.173695 5.28152,-0.31581 9.62999,-0.31581 h 7.90632 l 0.53956,-2.746111 c 0.84813,-4.31655 3.39496,-8.768157 6.60045,-11.536939 0.44,-0.380055 1.1267,-0.977072 1.52599,-1.326704 0.39929,-0.349632 1.91129,-1.230099 3.36,-1.956592 3.38323,-1.696609 6.97011,-2.406737 10.95401,-2.168668 3.47159,0.207454 4.07276,0.327005 6.79285,1.350845 2.89446,1.089471 4.99592,2.438651 7.39847,4.749982 3.62808,3.490318 5.61312,7.30538 6.30322,12.114187 l 0.21813,1.52 8.36367,0.0038 c 8.54985,0.0039 9.85983,0.147253 12.83245,1.404431 0.69783,0.295128 1.34583,0.646622 1.44,0.781099 0.0942,0.134478 0.7007,0.641966 1.34785,1.127752 1.25639,0.943105 3.32597,3.485185 4.33356,5.32292 1.38358,2.52351 1.52984,3.854925 1.52909,13.920002 l -7.1e-4,9.6 -0.88423,2.38993 c -1.11077,3.00222 -2.05674,4.4263 -4.69698,7.07089 -2.42691,2.43091 -5.14912,3.90959 -8.49737,4.61568 -3.19736,0.67428 -72.50134,0.67123 -75.60725,-0.003 z m 75.92725,-11.02689 c 1.605,-0.99524 2.72458,-2.29702 3.42212,-3.97905 0.74581,-1.79838 0.83545,-14.63135 0.11426,-16.357386 -0.73323,-1.754877 -2.09393,-3.334213 -3.51043,-4.074501 -1.2039,-0.62918 -1.91229,-0.692875 -9.06595,-0.815171 l -7.76,-0.132662 -0.0539,1.236243 c -0.0635,1.457144 -0.0597,2.96462 0.009,3.636243 0.0271,0.264 0.5251,0.804 1.10679,1.200004 1.00043,0.68106 1.37021,0.72 6.83863,0.72 4.98709,0 5.84133,0.0727 6.2202,0.52918 0.33493,0.40357 0.43918,1.84351 0.43918,6.06622 0,5.16251 -0.0433,5.56976 -0.64,6.02064 -0.56164,0.42439 -4.87641,0.48485 -35.24081,0.49378 -31.77484,0.009 -34.63669,-0.033 -35.04,-0.51796 -0.56387,-0.67807 -0.82148,-10.93857 -0.29915,-11.91456 0.31993,-0.59779 0.7282,-0.64487 6.39846,-0.73792 5.57504,-0.0915 6.1285,-0.15303 6.95912,-0.77392 0.85664,-0.640339 0.90238,-0.802556 0.90238,-3.199998 v -2.525466 l -7.68,0.01865 c -7.22008,0.01753 -7.75925,0.05992 -9.00352,0.707895 -1.6181,0.842653 -3.12238,2.679604 -3.59782,4.393459 -0.20548,0.74069 -0.35584,3.9862 -0.35687,7.70299 -0.001,5.08502 0.10621,6.73994 0.51663,7.94447 0.64382,1.88949 2.82843,4.25234 4.47892,4.84433 1.03874,0.37257 7.17651,0.43443 37.40266,0.37696 l 36.16,-0.0687 z M 259.99014,94.487762 c 1.95871,-0.845673 4.37739,-3.248201 5.23445,-5.199511 0.91614,-2.085788 0.99302,-5.401343 0.18096,-7.802971 -0.74173,-2.193587 -2.64085,-4.289098 -4.91464,-5.422846 -1.60814,-0.801849 -2.20625,-0.921742 -4.57029,-0.916127 -2.13681,0.0051 -3.07042,0.16369 -4.35436,0.739775 -4.54367,2.03867 -6.83173,7.683532 -5.19411,12.814331 0.95882,3.004096 4.21949,5.918846 7.19243,6.429402 2.0475,0.351628 4.74933,0.08166 6.42556,-0.642053 z m -5.57213,-6.373835 c -1.4796,-0.902172 -2.10332,-2.003864 -1.91704,-3.38615 0.44515,-3.303219 4.93654,-4.053317 6.47351,-1.08113 0.96044,1.857284 0.009,3.916846 -2.19469,4.751883 -1.17114,0.443734 -1.16632,0.444315 -2.36178,-0.284603 z"
         id="path9" /></g></g></svg>
