<?xml version="1.0" encoding="UTF-8" standalone="no"?>
<!-- Created with Inkscape (http://www.inkscape.org/) -->

<svg
   width="150mm"
   height="147mm"
   viewBox="0 0 150 147"
   version="1.1"
   id="svg1"
   xml:space="preserve"
   inkscape:version="1.3.2 (091e20e, 2023-11-25, custom)"
   sodipodi:docname="loupe.svg"
   xmlns:inkscape="http://www.inkscape.org/namespaces/inkscape"
   xmlns:sodipodi="http://sodipodi.sourceforge.net/DTD/sodipodi-0.dtd"
   xmlns="http://www.w3.org/2000/svg"
   xmlns:svg="http://www.w3.org/2000/svg"><sodipodi:namedview
     id="namedview1"
     pagecolor="#ffffff"
     bordercolor="#000000"
     borderopacity="0.25"
     inkscape:showpageshadow="2"
     inkscape:pageopacity="0.0"
     inkscape:pagecheckerboard="0"
     inkscape:deskcolor="#d1d1d1"
     inkscape:document-units="mm"
     inkscape:zoom="0.57103676"
     inkscape:cx="397.52257"
     inkscape:cy="281.06772"
     inkscape:window-width="1600"
     inkscape:window-height="837"
     inkscape:window-x="-8"
     inkscape:window-y="-8"
     inkscape:window-maximized="1"
     inkscape:current-layer="layer1" /><defs
     id="defs1" /><g
     inkscape:label="Laag 1"
     inkscape:groupmode="layer"
     id="layer1"><path
       style="fill:#ffffff;fill-opacity:1"
       d="m 133.5327,145.58364 c -0.81481,-0.21941 -2.02131,-0.66859 -2.68111,-0.99817 -0.81092,-0.40508 -7.52426,-6.91296 -20.71866,-20.08461 l -19.519047,-19.48537 -1.80092,1.13738 c -8.83818,5.58182 -20.75719,8.66445 -31.55103,8.16008 -14.39202,-0.6725 -27.43501,-6.41506 -37.55437,-16.534408 C 11.225933,89.29691 5.8173621,78.729804 3.7362121,66.574173 3.065102,62.654336 3.065102,53.278454 3.7362121,49.358618 5.8173621,37.202986 11.225933,26.63588 19.707563,18.154249 28.189203,9.6726173 38.756303,4.2640482 50.911933,2.1828944 c 3.91984,-0.6711112 13.29572,-0.6711112 17.21556,0 20.67173,3.5391869 37.380797,17.3317536 44.412627,36.6606186 5.79986,15.942464 3.94559,34.514808 -4.83389,48.416131 l -1.13739,1.800917 19.50065,19.519009 c 21.23112,21.25113 20.5455,20.46377 21.28586,24.44482 0.60561,3.25652 -0.6479,7.11449 -3.11236,9.57894 -1.59034,1.59035 -3.01789,2.39259 -5.32839,2.99439 -1.97519,0.51448 -3.43319,0.51066 -5.3819,-0.0141 z m 5.31764,-5.86504 c 1.66467,-0.87884 2.8376,-2.58229 3.00944,-4.37058 0.26869,-2.79633 0.49338,-2.52093 -13.55139,-16.60958 l -12.98847,-13.02905 -4.02542,3.99794 -4.02542,3.99794 12.74366,12.77434 c 8.02921,8.04854 13.16129,12.98167 13.87255,13.33478 1.53174,0.76043 3.41194,0.72416 4.96505,-0.0958 z m -31.53756,-33.95917 c 2.11949,-2.11949 3.85362,-3.93094 3.85362,-4.02545 0,-0.0945 -1.76296,-1.931407 -3.91769,-4.082009 l -3.91769,-3.910193 -4.017967,4.017949 -4.01796,4.017933 3.9102,3.9177 c 2.150617,2.15473 3.987537,3.91769 4.082047,3.91769 0.0945,0 1.90596,-1.73413 4.02544,-3.85362 z m -41.545697,2.59631 c 15.03522,-2.0016 27.9921,-10.126966 36.257857,-22.737615 C 110.821,72.198413 112.68266,55.814276 107.15509,40.468618 102.23129,26.799145 90.713253,15.27987 77.017493,10.327735 70.952303,8.1346764 66.218163,7.3212526 59.519713,7.3212526 c -6.69845,0 -11.43259,0.8134238 -17.49778,3.0064824 -13.6956,4.952077 -25.1888,16.44528 -30.14088,30.140883 -2.1930609,6.065186 -3.0064809,10.799325 -3.0064809,17.497777 0,6.698452 0.81342,11.432591 3.0064809,17.497777 4.95208,13.695604 16.44528,25.188808 30.14088,30.140868 4.55303,1.64629 7.37436,2.26058 13.68778,2.98026 2.18545,0.24912 7.34661,0.13131 10.05737,-0.22956 z m -10.90404,-5.53376 c -7.44619,-0.7356 -15.37655,-3.769924 -21.75811,-8.325138 -3.24383,-2.315472 -7.77399,-6.850644 -10.13148,-10.14267 -3.45121,-4.819323 -6.45931,-11.574777 -7.60297,-17.074444 -1.18288,-5.688286 -1.18288,-12.938379 0,-18.626666 1.14418,-5.502155 4.14142,-12.229885 7.61878,-17.101447 2.31548,-3.243826 6.85065,-7.773994 10.14267,-10.131481 4.81933,-3.451215 11.57478,-6.459306 17.07445,-7.602965 5.68828,-1.182883 12.93838,-1.182883 18.62666,0 5.49967,1.143659 12.25512,4.15175 17.07445,7.602965 3.29202,2.357487 7.8272,6.887655 10.14267,10.131481 3.47737,4.871562 6.474627,11.599292 7.618797,17.101447 1.18289,5.688287 1.18289,12.93838 0,18.626666 -1.14366,5.499667 -4.151767,12.255121 -7.602987,17.074444 -1.00042,1.397 -3.11169,3.838322 -4.69171,5.42516 -9.61808,9.659574 -22.86297,14.390938 -36.51122,13.042648 z m 9.31334,-5.656103 C 80.393343,95.1864 93.711003,83.502322 97.758463,67.703062 103.1524,46.647887 90.372993,25.137309 69.256383,19.727649 c -13.71952,-3.514668 -28.09354,0.559348 -37.98738,10.766725 -5.04556,5.205464 -8.22393,10.849158 -9.98803,17.735355 -4.41824,17.246607 3.24793,35.159917 18.88275,44.122752 7.10169,4.071123 15.8035,5.815423 24.01266,4.813396 z m 25.4,-36.63338 c -1.79853,-0.770153 -2.27411,-3.101393 -0.91081,-4.464687 1.71376,-1.713764 4.56687,-0.527642 4.56687,1.898585 0,1.858458 -2.01154,3.27031 -3.65606,2.566102 z m -1.69334,-10.973429 c -0.84544,-0.173281 -1.70138,-1.077497 -2.27486,-2.403163 -2.5881,-5.982747 -7.48194,-11.262576 -13.10373,-14.137263 -3.96427,-2.02712 -6.7141,-2.800351 -11.53121,-3.242487 -2.29912,-0.211025 -2.73412,-0.337621 -3.38025,-0.983753 -1.04947,-1.049465 -1.03291,-2.709159 0.0377,-3.77545 0.75507,-0.752055 0.86859,-0.774808 3.66247,-0.734068 11.1808,0.163037 22.74741,7.518325 28.11587,17.879068 1.72483,3.328797 2.08451,4.618007 1.60714,5.760524 -0.21692,0.519147 -0.53848,1.032958 -0.7146,1.141804 -0.57245,0.353795 -1.84058,0.613235 -2.41849,0.494788 z"
       id="path1" /></g></svg>
