<?xml version="1.0" encoding="UTF-8" standalone="no"?>
<!-- Created with Inkscape (http://www.inkscape.org/) -->

<svg
   version="1.1"
   id="svg1"
   width="345.60001"
   height="92.160004"
   viewBox="0 0 345.60001 92.160004"
   sodipodi:docname="real_estate_care.svg"
   inkscape:version="1.3.2 (091e20e, 2023-11-25, custom)"
   xmlns:inkscape="http://www.inkscape.org/namespaces/inkscape"
   xmlns:sodipodi="http://sodipodi.sourceforge.net/DTD/sodipodi-0.dtd"
   xmlns="http://www.w3.org/2000/svg"
   xmlns:svg="http://www.w3.org/2000/svg">
  <defs
     id="defs1" />
  <sodipodi:namedview
     id="namedview1"
     pagecolor="#ffffff"
     bordercolor="#000000"
     borderopacity="0.25"
     inkscape:showpageshadow="2"
     inkscape:pageopacity="0.0"
     inkscape:pagecheckerboard="0"
     inkscape:deskcolor="#d1d1d1"
     inkscape:zoom="3.8710822"
     inkscape:cx="97.647113"
     inkscape:cy="39.136343"
     inkscape:window-width="1600"
     inkscape:window-height="837"
     inkscape:window-x="-8"
     inkscape:window-y="-8"
     inkscape:window-maximized="1"
     inkscape:current-layer="g2"
     showguides="true">
    <sodipodi:guide
       position="140.7875,13.887319"
       orientation="0,-1"
       id="guide2"
       inkscape:locked="false" />
  </sodipodi:namedview>
  <g
     inkscape:groupmode="layer"
     inkscape:label="Image"
     id="g1">
    <g
       id="g2"
       transform="translate(-2.1919662,3.2879492)">
      <path
         style="fill:#ffffff;fill-opacity:1"
         d="M 25.404332,58.814459 C 15.592916,49.001869 7.5653939,40.829382 7.5653939,40.653377 c 0,-0.176005 8.0284781,-8.347527 17.8410621,-18.158939 L 43.247519,4.6555096 61.246462,22.656567 79.245405,40.657625 61.244338,58.656578 43.243271,76.655529 Z m 34.079875,-1.917748 c 8.756654,-8.75534 15.921188,-16.06388 15.921188,-16.2412 0,-0.17732 -7.200002,-7.521323 -16.000006,-16.320007 L 43.405383,8.337899 l -16.16,16.157623 -16.16,16.157624 16.078818,16.081183 c 8.843349,8.844651 16.150817,16.081183 16.238817,16.081183 0.088,0 7.324535,-7.16346 16.081189,-15.918801 z m -27.760001,-6.482441 -0.937258,-0.978287 6.231269,-6.231269 6.231269,-6.231269 6.23278,6.238934 6.232781,6.238935 -0.876645,0.876645 -0.876645,0.876645 -5.278235,-5.270963 -5.278234,-5.270963 -5.371912,5.36494 -5.371912,5.364939 z M 275.75723,74.735579 h -5.79184 z m -2.81092,-19.51203 c -0.38449,-0.160565 -0.85249,-0.578592 -1.04,-0.928949 -0.22895,-0.427798 -0.34092,-6.218921 -0.34092,-17.632598 V 19.666419 l 0.78546,-0.785455 c 0.77547,-0.775467 0.85833,-0.785454 6.51684,-0.785454 5.31376,0 5.79284,0.04833 6.57455,0.663225 l 0.84316,0.663226 v 4.936775 4.936774 h -1.6 -1.6 v -4.16 -4.16 h -4.16001 -4.16 v 15.84 15.840001 h 4.16 4.16001 v -4.64 -4.64 h 1.6 1.6 v 5.244549 c 0,4.684707 -0.0652,5.325192 -0.61107,6 -0.59662,0.737581 -0.74612,0.757107 -6.32,0.825438 -3.13992,0.03849 -6.02352,-0.06138 -6.40802,-0.221949 z m 19.44231,-0.531192 c -0.60533,-0.769552 -0.66322,-1.270546 -0.66322,-5.739168 0,-2.692807 0.13714,-5.256726 0.30476,-5.697597 0.20792,-0.546884 0.69089,-0.90881 1.52,-1.139047 0.66838,-0.185605 2.83524,-0.338267 4.81524,-0.339249 l 3.6,-0.0018 v -3.530827 -3.530826 l -3.44,0.09083 -3.44,0.09083 -0.0953,2 -0.0953,2.000001 h -1.42473 -1.42473 v -2.52455 c 0,-2.008867 0.12495,-2.678863 0.61172,-3.28 0.59672,-0.736909 0.73726,-0.755451 5.72641,-0.755451 4.58058,0 5.18501,0.06366 5.78827,0.609596 0.65989,0.59719 0.6736,0.833276 0.6736,11.600001 V 55.535504 H 303.432 c -0.78508,0 -1.46815,-0.164467 -1.53666,-0.369987 -0.0933,-0.279984 -0.82514,-0.279984 -3.00834,0 -1.58675,0.203493 -3.5488,0.369987 -4.36011,0.369987 -1.21244,0 -1.5932,-0.150138 -2.13833,-0.843155 z m 9.57678,-6.196845 v -4.16 h -3.52 -3.52 v 4.16 4.16 h 3.52 3.52 z m 8.32,-4.64 V 32.17551 h 1.41333 c 0.78156,0 1.46822,0.164677 1.53613,0.368399 0.0926,0.277865 0.73151,0.277865 2.59974,0 1.36232,-0.202619 3.01502,-0.368399 3.67267,-0.368399 0.65764,0 1.51576,0.224166 1.90692,0.498146 0.65774,0.460695 0.71121,0.749379 0.71121,3.84 v 3.341855 h -1.44 -1.44 v -2.4 -2.400001 h -2.53383 c -1.39361,0 -2.76161,0.08741 -3.04,0.194237 -0.44669,0.17141 -0.50617,1.374774 -0.50617,10.24 v 10.045764 h -1.44 -1.44 z m 17.5449,11.316371 c -0.52159,-0.190984 -0.98962,-0.698991 -1.2,-1.302488 -0.215,-0.616732 -0.3449,-4.38848 -0.3449,-10.013883 0,-5.706004 0.12868,-9.393645 0.34995,-10.028379 0.26263,-0.753376 0.64192,-1.091304 1.52,-1.354225 0.68868,-0.206211 2.9759,-0.306541 5.55953,-0.24387 3.69374,0.0896 4.47992,0.196963 4.96,0.677369 0.48559,0.485913 0.58686,1.287061 0.6803,5.381888 0.0965,4.227829 0.042,4.885915 -0.44959,5.429104 -0.50147,0.554118 -1.01808,0.618113 -4.98979,0.618113 h -4.4304 v 4.32 4.32 h 3.34538 3.34537 l 0.0946,-2.16 0.0946,-2.16 h 1.44 1.44 l 0.10234,1.92 c 0.0563,1.056 -0.0534,2.44652 -0.24387,3.090045 -0.26039,0.879992 -0.59508,1.256799 -1.3501,1.52 -0.55213,0.192476 -2.81839,0.338587 -5.03613,0.324692 -2.21773,-0.01389 -4.41704,-0.166159 -4.88734,-0.338366 z m 8.3751,-16.916371 v -3.520001 h -3.36 -3.36 v 3.520001 3.52 h 3.36 3.36 z"
         id="path1"
         sodipodi:nodetypes="ssscccccsssscccssscccccccccccccsssscssscssscccccccccccccccccssssccsssscccccccccssssscsssccccccccccccccsssssscccccssscscccssssssssscccccccccsssccccccccc" />
      <path
         style="font-size:18.6667px;font-family:'Brandon Grotesque';-inkscape-font-specification:'Brandon Grotesque';letter-spacing:4.05px;fill:#ffffff"
         d="m 87.726507,68.341279 c 0,3.73334 3.005339,6.701345 6.738679,6.701345 1.661336,0 3.266673,-0.578668 4.536008,-1.81067 0.130667,-0.130667 0.168001,-0.392001 0.01867,-0.504001 L 98.45986,72.223952 c -0.112,-0.07467 -0.261334,-0.09333 -0.448001,0.056 -0.989335,0.746668 -1.941337,1.400003 -3.56534,1.400003 -2.949338,0 -5.208009,-2.482671 -5.208009,-5.357343 0,-2.893339 2.258671,-5.37601 5.208009,-5.37601 1.269336,0 2.594672,0.560001 3.56534,1.400003 0.186667,0.186667 0.336001,0.205333 0.485334,0.01867 l 0.504001,-0.504 c 0.149334,-0.149334 0.130667,-0.373334 -0.01867,-0.522668 -1.269336,-1.082669 -2.632005,-1.736003 -4.517342,-1.736003 -3.73334,0 -6.738679,3.005339 -6.738679,6.738679 z m 16.948703,4.256007 c 0,1.493336 0.98934,2.445338 2.29601,2.445338 1.15733,0 1.92267,-0.578668 2.31467,-0.970668 l 0.14933,0.504001 c 0.056,0.168 0.112,0.28 0.31733,0.28 h 0.35467 c 0.18667,0 0.35467,-0.168 0.35467,-0.354667 v -4.144008 c 0,-2.184004 -0.46667,-3.154672 -2.37067,-3.154672 -1.4,0 -2.48267,0.429334 -2.59467,0.485334 -0.168,0.07467 -0.28,0.186667 -0.20534,0.410667 l 0.14934,0.466668 c 0.056,0.168 0.168,0.261334 0.35466,0.186667 0.336,-0.130667 1.21334,-0.410667 2.24001,-0.410667 1.064,0 1.232,0.634667 1.21333,2.016003 0,0 -0.784,-0.242667 -1.58667,-0.242667 -1.92267,0 -2.98667,1.064002 -2.98667,2.482671 z m 1.19467,0 c 0,-0.970668 0.74667,-1.493336 1.792,-1.493336 0.82134,0 1.34401,0.168001 1.56801,0.298667 v 1.47467 c -0.31734,0.466667 -1.12001,1.045335 -2.05334,1.045335 -0.80267,0 -1.30667,-0.578668 -1.30667,-1.325336 z m 11.23668,1.904004 c 0,0.186667 0.168,0.354667 0.35467,0.354667 h 0.57867 c 0.18666,0 0.35467,-0.168 0.35467,-0.354667 v -4.984009 c 0,0 0.616,-1.045335 2.03467,-1.045335 0.28,0 0.56,0.07467 0.728,0.149333 0.18666,0.07467 0.35466,0.07467 0.448,-0.168 l 0.224,-0.634668 c 0.18667,-0.522668 -0.74667,-0.616001 -1.30667,-0.616001 -1.54934,0 -2.24001,0.989335 -2.24001,0.989335 l -0.14933,-0.541334 c -0.0373,-0.168001 -0.168,-0.261334 -0.31733,-0.261334 h -0.35467 c -0.18667,0 -0.35467,0.168 -0.35467,0.354667 z m 10.90068,-10.565353 c 0.504,0 0.896,-0.392 0.896,-0.877335 0,-0.504001 -0.392,-0.896001 -0.896,-0.896001 -0.48534,0 -0.87734,0.392 -0.87734,0.896001 0,0.485335 0.392,0.877335 0.87734,0.877335 z m -0.61601,10.565353 c 0,0.186667 0.168,0.354667 0.35467,0.354667 h 0.57867 c 0.18667,0 0.35467,-0.168 0.35467,-0.354667 v -6.757346 c 0,-0.186667 -0.168,-0.354667 -0.35467,-0.354667 h -0.57867 c -0.18667,0 -0.35467,0.168 -0.35467,0.354667 z m 7.98869,0 c 0,0.186667 0.168,0.354667 0.35466,0.354667 h 0.57867 c 0.18667,0 0.35467,-0.168 0.35467,-0.354667 v -4.984009 c 0,0 1.008,-1.064002 2.408,-1.064002 1.04534,0 1.68001,0.690668 1.68001,2.109337 v 3.938674 c 0,0.186667 0.168,0.354667 0.35466,0.354667 h 0.59734 c 0.18666,0 0.35467,-0.168 0.35467,-0.354667 v -3.938674 c 0,-1.941337 -0.72801,-3.360006 -2.89334,-3.360006 -1.54934,0 -2.61334,0.989335 -2.61334,0.989335 l -0.168,-0.578668 c -0.0373,-0.149333 -0.13067,-0.224 -0.29867,-0.224 h -0.35467 c -0.18666,0 -0.35466,0.168 -0.35466,0.354667 z m 12.54336,0 c 0,1.157335 0.87733,1.642669 1.36267,1.773336 v 0.056 c -0.18667,0.112001 -1.08267,0.616001 -1.08267,1.736003 0,1.232003 1.08267,2.576005 3.58401,2.576005 2.25867,0 3.864,-1.474669 3.864,-3.024005 0,-1.624003 -1.232,-2.389338 -2.8,-2.389338 h -2.68801 c -0.69066,0 -1.02666,-0.448001 -1.02666,-0.914668 0,-0.746668 0.82133,-1.120002 0.82133,-1.120002 0,0 0.57867,0.466667 1.77334,0.466667 1.92267,0 3.136,-1.474669 3.136,-3.173339 0,-1.474669 -0.84,-2.09067 -0.84,-2.09067 l 1.008,-0.205334 c 0.13067,-0.01867 0.20534,-0.186667 0.20534,-0.317334 v -0.317334 c 0,-0.205334 -0.14934,-0.354667 -0.35467,-0.354667 h -3.15467 c -1.94134,0 -3.15468,1.549336 -3.15468,3.285339 0,1.101335 0.59734,1.86667 0.59734,1.86667 0,0 -1.25067,0.728001 -1.25067,2.146671 z m 3.82667,-1.960004 c -1.13867,0 -1.96,-0.858668 -1.96,-2.09067 0,-1.232002 0.82133,-2.090671 1.96,-2.090671 1.12001,0 1.86667,0.858669 1.86667,2.090671 0,1.232002 -0.74666,2.09067 -1.86667,2.09067 z m -2.22133,5.338676 c 0,-1.101335 1.25066,-1.437335 1.25066,-1.437335 0.69067,0 1.38134,0 2.07201,0 1.30667,0 1.41867,0.970668 1.41867,1.213335 0,1.082669 -1.26934,1.773337 -2.50134,1.773337 -1.26934,0 -2.24,-0.653335 -2.24,-1.549337 z m 20.56935,-13.944025 c 0.504,0 0.896,-0.392 0.896,-0.877335 0,-0.504001 -0.392,-0.896001 -0.896,-0.896001 -0.48534,0 -0.87734,0.392 -0.87734,0.896001 0,0.485335 0.392,0.877335 0.87734,0.877335 z m -0.616,10.565353 c 0,0.186667 0.168,0.354667 0.35466,0.354667 h 0.57867 c 0.18667,0 0.35467,-0.168 0.35467,-0.354667 v -6.757346 c 0,-0.186667 -0.168,-0.354667 -0.35467,-0.354667 h -0.57867 c -0.18666,0 -0.35466,0.168 -0.35466,0.354667 z m 7.63401,-0.298667 c 0.41067,0.317333 1.176,0.840001 2.42667,0.840001 1.53067,0 2.576,-1.026668 2.576,-2.109337 0,-1.344003 -1.15733,-1.92267 -2.44533,-2.538671 -0.76534,-0.373334 -1.38134,-0.653335 -1.38134,-1.269336 0,-0.317334 0.224,-0.746668 1.064,-0.746668 0.69067,0 1.49334,0.448001 1.49334,0.448001 0.168,0.09333 0.42933,0.03733 0.54133,-0.168 l 0.14934,-0.298668 c 0.112,-0.205333 0.056,-0.466667 -0.112,-0.578667 -0.35467,-0.242668 -1.10134,-0.578668 -2.07201,-0.578668 -1.736,0 -2.37067,1.157335 -2.37067,1.941337 0,1.269335 1.13867,1.92267 2.128,2.408004 1.08267,0.541334 1.64267,0.840002 1.64267,1.493336 0,0.504001 -0.448,0.896002 -1.21333,0.896002 -0.952,0 -1.75467,-0.653335 -1.75467,-0.653335 -0.20533,-0.130667 -0.41067,-0.09333 -0.504,0.056 -0.056,0.09333 -0.18667,0.354668 -0.26134,0.466668 -0.056,0.130667 0,0.317334 0.0933,0.392001 z m 19.86004,-10.266686 c 0.504,0 0.896,-0.392 0.896,-0.877335 0,-0.504001 -0.392,-0.896001 -0.896,-0.896001 -0.48533,0 -0.87733,0.392 -0.87733,0.896001 0,0.485335 0.392,0.877335 0.87733,0.877335 z m -0.616,10.565353 c 0,0.186667 0.168,0.354667 0.35467,0.354667 h 0.57866 c 0.18667,0 0.35467,-0.168 0.35467,-0.354667 v -6.757346 c 0,-0.186667 -0.168,-0.354667 -0.35467,-0.354667 h -0.57866 c -0.18667,0 -0.35467,0.168 -0.35467,0.354667 z m 7.98868,0 c 0,0.186667 0.168,0.354667 0.35467,0.354667 h 0.57867 c 0.18667,0 0.35467,-0.168 0.35467,-0.354667 v -4.984009 c 0,0 1.008,-1.064002 2.408,-1.064002 1.04534,0 1.68,0.690668 1.68,2.109337 v 3.938674 c 0,0.186667 0.168,0.354667 0.35467,0.354667 h 0.59734 c 0.18666,0 0.35466,-0.168 0.35466,-0.354667 v -3.938674 c 0,-1.941337 -0.728,-3.360006 -2.89334,-3.360006 -1.54933,0 -2.61333,0.989335 -2.61333,0.989335 l -0.168,-0.578668 c -0.0373,-0.149333 -0.13067,-0.224 -0.29867,-0.224 h -0.35467 c -0.18667,0 -0.35467,0.168 -0.35467,0.354667 z m 20.94272,-3.39734 c 0,2.146671 1.64267,3.938674 3.71467,3.938674 2.072,0 3.71467,-1.792003 3.71467,-3.938674 0,-2.109337 -1.64267,-3.90134 -3.71467,-3.90134 -2.072,0 -3.71467,1.792003 -3.71467,3.90134 z m 1.288,0 c 0,-1.474669 1.064,-2.669338 2.42667,-2.669338 1.36267,0 2.42667,1.194669 2.42667,2.669338 0,1.512003 -1.064,2.725339 -2.42667,2.725339 -1.36267,0 -2.42667,-1.213336 -2.42667,-2.725339 z m 12.20735,0.560001 c 0,1.978671 0.728,3.378673 2.89333,3.378673 1.54934,0 2.42668,-0.989335 2.42668,-0.989335 l 0.13066,0.485334 c 0.056,0.186667 0.13067,0.317334 0.336,0.317334 h 0.35467 c 0.18667,0 0.35467,-0.168 0.35467,-0.354667 v -6.757346 c 0,-0.186667 -0.168,-0.354667 -0.35467,-0.354667 h -0.57867 c -0.18666,0 -0.35466,0.168 -0.35466,0.354667 0,4.144008 0,4.573342 0,4.984009 0,0 -0.80267,1.064002 -2.22134,1.064002 -1.04534,0 -1.68,-0.690668 -1.68,-2.109337 v -3.938674 c 0,-0.186667 -0.16801,-0.354667 -0.35467,-0.354667 h -0.59734 c -0.18666,0 -0.35466,0.168 -0.35466,0.354667 z m 13.19669,2.837339 c 0,0.186667 0.168,0.354667 0.35467,0.354667 h 0.57867 c 0.18666,0 0.35466,-0.168 0.35466,-0.354667 v -4.984009 c 0,0 0.61601,-1.045335 2.03468,-1.045335 0.28,0 0.56,0.07467 0.728,0.149333 0.18666,0.07467 0.35466,0.07467 0.448,-0.168 l 0.224,-0.634668 c 0.18666,-0.522668 -0.74667,-0.616001 -1.30667,-0.616001 -1.54934,0 -2.24001,0.989335 -2.24001,0.989335 l -0.14933,-0.541334 c -0.0373,-0.168001 -0.168,-0.261334 -0.31733,-0.261334 h -0.35467 c -0.18667,0 -0.35467,0.168 -0.35467,0.354667 z m 18.47869,0 c 0,0.186667 0.168,0.354667 0.35466,0.354667 h 0.57867 c 0.18667,0 0.35467,-0.168 0.35467,-0.354667 v -4.984009 c 0,0 1.008,-1.064002 2.408,-1.064002 1.04534,0 1.68001,0.690668 1.68001,2.109337 v 3.938674 c 0,0.186667 0.168,0.354667 0.35466,0.354667 h 0.59734 c 0.18666,0 0.35466,-0.168 0.35466,-0.354667 v -3.938674 c 0,-1.941337 -0.728,-3.360006 -2.89333,-3.360006 -1.54934,0 -2.61334,0.989335 -2.61334,0.989335 l -0.168,-0.578668 c -0.0373,-0.149333 -0.13067,-0.224 -0.29867,-0.224 h -0.35467 c -0.18666,0 -0.35466,0.168 -0.35466,0.354667 z m 12.74869,-1.904004 c 0,1.493336 0.98933,2.445338 2.296,2.445338 1.15734,0 1.92267,-0.578668 2.31467,-0.970668 l 0.14933,0.504001 c 0.056,0.168 0.112,0.28 0.31734,0.28 h 0.35467 c 0.18666,0 0.35466,-0.168 0.35466,-0.354667 v -4.144008 c 0,-2.184004 -0.46666,-3.154672 -2.37067,-3.154672 -1.4,0 -2.48267,0.429334 -2.59467,0.485334 -0.168,0.07467 -0.28,0.186667 -0.20533,0.410667 l 0.14933,0.466668 c 0.056,0.168 0.168,0.261334 0.35467,0.186667 0.336,-0.130667 1.21333,-0.410667 2.24,-0.410667 1.064,0 1.232,0.634667 1.21334,2.016003 0,0 -0.784,-0.242667 -1.58667,-0.242667 -1.92267,0 -2.98667,1.064002 -2.98667,2.482671 z m 1.19466,0 c 0,-0.970668 0.74667,-1.493336 1.79201,-1.493336 0.82133,0 1.344,0.168001 1.568,0.298667 v 1.47467 c -0.31733,0.466667 -1.12,1.045335 -2.05334,1.045335 -0.80266,0 -1.30667,-0.578668 -1.30667,-1.325336 z m 11.72202,0.392001 c 0,1.157335 0.224,2.053337 1.71734,2.053337 0.87733,0 1.88533,-0.466667 2.14667,-0.634668 0.20533,-0.130667 0.26133,-0.242667 0.13066,-0.466667 l -0.28,-0.466668 c -0.0933,-0.149333 -0.168,-0.261334 -0.448,-0.112 -0.24267,0.130667 -0.896,0.410667 -1.36267,0.410667 -0.42933,0 -0.616,-0.149333 -0.616,-0.896001 v -4.368008 h 2.16534 c 0.20533,0 0.35467,-0.168 0.35467,-0.354667 v -0.410668 c 0,-0.205334 -0.14934,-0.354667 -0.35467,-0.354667 h -2.16534 V 65.27994 c 0,-0.186667 -0.14933,-0.354668 -0.336,-0.354668 l -0.59733,0.03733 c -0.18667,0 -0.35467,0.168 -0.35467,0.354667 v 2.072004 h -0.952 c -0.20534,0 -0.35467,0.149333 -0.35467,0.354667 v 0.410668 c 0,0.186667 0.14933,0.354667 0.35467,0.354667 h 0.952 z m 9.85537,-1.325336 c 0,1.978671 0.728,3.378673 2.89334,3.378673 1.54933,0 2.42667,-0.989335 2.42667,-0.989335 l 0.13066,0.485334 c 0.056,0.186667 0.13067,0.317334 0.336,0.317334 h 0.35467 c 0.18667,0 0.35467,-0.168 0.35467,-0.354667 v -6.757346 c 0,-0.186667 -0.168,-0.354667 -0.35467,-0.354667 h -0.57867 c -0.18666,0 -0.35466,0.168 -0.35466,0.354667 0,4.144008 0,4.573342 0,4.984009 0,0 -0.80267,1.064002 -2.22134,1.064002 -1.04534,0 -1.68,-0.690668 -1.68,-2.109337 v -3.938674 c 0,-0.186667 -0.168,-0.354667 -0.35467,-0.354667 h -0.59734 c -0.18666,0 -0.35466,0.168 -0.35466,0.354667 z m 13.19669,2.837339 c 0,0.186667 0.168,0.354667 0.35467,0.354667 h 0.57867 c 0.18667,0 0.35467,-0.168 0.35467,-0.354667 v -4.984009 c 0,0 0.616,-1.045335 2.03467,-1.045335 0.28,0 0.56,0.07467 0.728,0.149333 0.18666,0.07467 0.35467,0.07467 0.448,-0.168 l 0.224,-0.634668 c 0.18667,-0.522668 -0.74667,-0.616001 -1.30667,-0.616001 -1.54934,0 -2.24,0.989335 -2.24,0.989335 l -0.14934,-0.541334 c -0.0373,-0.168001 -0.168,-0.261334 -0.31733,-0.261334 h -0.35467 c -0.18667,0 -0.35467,0.168 -0.35467,0.354667 z m 9.68734,-3.378673 c 0,2.146671 1.4,3.920007 3.65867,3.920007 1.288,0 2.29601,-0.504001 2.74401,-0.858668 0.28,-0.205334 0.20533,-0.317334 0.0747,-0.485334 -0.112,-0.149334 -0.20533,-0.280001 -0.31733,-0.429334 -0.14933,-0.205334 -0.26134,-0.112001 -0.52267,0.03733 -0.42933,0.261334 -1.064,0.560001 -1.848,0.560001 -1.32534,0 -2.42667,-1.176002 -2.50134,-2.426671 h 5.37601 c 0.168,0 0.31733,-0.130667 0.336,-0.317334 0.0187,-0.130667 0.0373,-0.373334 0.0373,-0.504001 0,-1.960003 -1.41867,-3.416006 -3.37867,-3.416006 -2.25867,0 -3.65867,1.81067 -3.65867,3.920007 z m 1.30667,-0.728001 c 0.13066,-1.157336 1.10133,-2.053337 2.352,-2.053337 1.13867,0 2.03467,0.970668 2.09067,2.053337 z"
         id="text1"
         aria-label="Caring is in our nature" />
      <path
         style="font-stretch:condensed;font-size:48px;font-family:'Agency FB';-inkscape-font-specification:'Agency FB Condensed';letter-spacing:0.28px;fill:#ffffff"
         d="m 105.85315,55.2817 h -3.42188 l -6.820308,-19.640625 0.445312,-0.65625 h 5.812496 v -13.5 H 93.501587 V 55.2817 H 90.243774 V 18.602013 h 12.281246 q 1.14844,0 1.875,0.726562 0.72657,0.726563 0.72657,1.875 V 35.12545 q 0,2.648438 -3.5625,2.648438 -0.35157,0 -1.03125,-0.02344 -0.679691,-0.04687 -0.984378,-0.04687 3.164058,8.765625 6.304688,17.578125 z m 17.53,-2.648437 q 0,2.648437 -2.625,2.648437 h -7.5 q -2.625,0 -2.625,-2.648437 V 35.12545 q 0,-2.648437 2.625,-2.648437 h 7.5 q 2.625,0 2.625,2.648437 v 8.203125 l -1.05469,1.101563 h -8.67187 v 8.25 h 6.70312 v -4.171875 h 3.02344 z m -3.02344,-10.6875 v -6.867188 h -6.70312 v 6.867188 z M 141.71003,55.2817 h -3.07032 v -0.632812 q -1.85156,0.257812 -3.70312,0.492187 -2.29688,0.28125 -3.67969,0.28125 -2.55469,0 -2.55469,-2.53125 v -8.320312 q 0,-2.625 2.64844,-2.625 h 7.33594 v -6.867188 h -6.70313 V 38.9692 h -3.02343 v -3.84375 q 0,-2.648437 2.625,-2.648437 h 7.5 q 2.625,0 2.625,2.648437 z m -3.02344,-2.835937 v -8.0625 h -6.96094 v 8.203125 z M 150.35721,55.2817 H 147.2869 V 18.602013 h 3.07031 z m 27.67719,0 H 165.98753 V 18.602013 h 11.90625 v 2.882812 h -8.64844 v 13.6875 h 7.875 v 2.929688 h -7.875 v 14.296875 h 8.78906 z m 17.27219,-2.648437 q 0,2.648437 -2.64844,2.648437 h -7.14844 q -2.64844,0 -2.64844,-2.648437 v -5.179688 h 3.07032 v 5.132813 h 6.30468 v -4.546875 l -8.15625,-6.679688 q -1.17187,-0.9375 -1.17187,-2.4375 V 35.12545 q 0,-2.648437 2.64844,-2.648437 h 7.05468 q 2.64844,0 2.64844,2.648437 v 4.546875 h -3.02344 v -4.5 h -6.30468 V 39.1567 l 8.22656,6.679688 q 1.14844,0.914062 1.14844,2.484375 z m 13.42843,2.648437 h -4.42968 q -2.625,0 -2.625,-2.648437 V 35.2192 h -2.74219 v -2.742187 h 2.74219 V 25.37545 h 3.07031 v 7.101563 h 3.98437 V 35.2192 h -3.98437 v 17.320313 h 3.98437 z m 17.155,0 h -3.07031 v -0.632812 q -1.85156,0.257812 -3.70313,0.492187 -2.29687,0.28125 -3.67968,0.28125 -2.55469,0 -2.55469,-2.53125 v -8.320312 q 0,-2.625 2.64844,-2.625 h 7.33593 v -6.867188 h -6.70312 V 38.9692 h -3.02344 v -3.84375 q 0,-2.648437 2.625,-2.648437 h 7.5 q 2.625,0 2.625,2.648437 z m -3.02344,-2.835937 v -8.0625 h -6.96093 v 8.203125 z m 16.61595,2.835937 h -4.42969 q -2.625,0 -2.625,-2.648437 V 35.2192 h -2.74219 v -2.742187 h 2.74219 V 25.37545 h 3.07031 v 7.101563 h 3.98438 V 35.2192 h -3.98438 v 17.320313 h 3.98438 z m 17.01437,-2.648437 q 0,2.648437 -2.625,2.648437 h -7.5 q -2.625,0 -2.625,-2.648437 V 35.12545 q 0,-2.648437 2.625,-2.648437 h 7.5 q 2.625,0 2.625,2.648437 v 8.203125 l -1.05469,1.101563 h -8.67187 v 8.25 h 6.70312 v -4.171875 h 3.02344 z m -3.02344,-10.6875 v -6.867188 h -6.70312 v 6.867188 z m 33.20844,10.734375 q 0,1.148437 -0.75,1.875 -0.75,0.726562 -1.89844,0.726562 h -9.44531 q -1.14844,0 -1.875,-0.726562 -0.72656,-0.726563 -0.72656,-1.875 V 21.203575 q 0,-1.148437 0.72656,-1.875 0.72656,-0.726562 1.875,-0.726562 h 9.44531 q 1.14844,0 1.89844,0.726562 0.75,0.726563 0.75,1.875 v 8.53125 h -3.28125 v -8.25 h -8.15625 v 30.914063 h 8.15625 V 43.37545 h 3.28125 z m 18.49094,2.601562 h -3.07032 v -0.632812 q -1.85156,0.257812 -3.70312,0.492187 -2.29688,0.28125 -3.67969,0.28125 -2.55469,0 -2.55469,-2.53125 v -8.320312 q 0,-2.625 2.64844,-2.625 h 7.33594 v -6.867188 h -6.70313 V 38.9692 h -3.02343 v -3.84375 q 0,-2.648437 2.625,-2.648437 h 7.5 q 2.625,0 2.625,2.648437 z m -3.02344,-2.835937 v -8.0625 h -6.96094 v 8.203125 z m 20.3425,-12.46875 h -3.07031 v -4.710938 l -5.74219,0.1875 V 55.2817 h -3.11719 V 32.477013 h 3.11719 v 0.632812 q 1.54687,-0.234375 3.11719,-0.492187 1.875,-0.28125 3.11718,-0.28125 2.57813,0 2.57813,2.554687 z m 16.99093,12.65625 q 0,2.648437 -2.625,2.648437 h -7.5 q -2.625,0 -2.625,-2.648437 V 35.12545 q 0,-2.648437 2.625,-2.648437 h 7.5 q 2.625,0 2.625,2.648437 v 8.203125 l -1.05468,1.101563 h -8.67188 v 8.25 h 6.70313 v -4.171875 h 3.02343 z m -3.02343,-10.6875 v -6.867188 h -6.70313 v 6.867188 z"
         id="text2"
         aria-label="Real Estate Care" />
    </g>
  </g>
</svg>
