<?xml version="1.0" encoding="UTF-8" standalone="no"?>
<!-- Created with Inkscape (http://www.inkscape.org/) -->

<svg
   version="1.1"
   id="svg1"
   width="512"
   height="512"
   viewBox="0 0 512 512"
   sodipodi:docname="settings.svg"
   inkscape:version="1.3.2 (091e20e, 2023-11-25, custom)"
   xmlns:inkscape="http://www.inkscape.org/namespaces/inkscape"
   xmlns:sodipodi="http://sodipodi.sourceforge.net/DTD/sodipodi-0.dtd"
   xmlns="http://www.w3.org/2000/svg"
   xmlns:svg="http://www.w3.org/2000/svg">
  <defs
     id="defs1" />
  <sodipodi:namedview
     id="namedview1"
     pagecolor="#ffffff"
     bordercolor="#000000"
     borderopacity="0.25"
     inkscape:showpageshadow="2"
     inkscape:pageopacity="0.0"
     inkscape:pagecheckerboard="0"
     inkscape:deskcolor="#d1d1d1"
     inkscape:zoom="1.2519531"
     inkscape:cx="255.60062"
     inkscape:cy="192.09984"
     inkscape:window-width="1600"
     inkscape:window-height="837"
     inkscape:window-x="-8"
     inkscape:window-y="-8"
     inkscape:window-maximized="1"
     inkscape:current-layer="g1" />
  <g
     inkscape:groupmode="layer"
     inkscape:label="Image"
     id="g1">
    <path
       style="fill:#ffffff;stroke:#ffffff;stroke-opacity:1;fill-opacity:1"
       d="m 228,511.37449 c -11.01711,-2.8797 -20.93234,-9.83894 -26.93956,-18.90819 -5.19203,-7.83854 -7.24937,-14.73994 -7.93484,-26.61774 l -0.6256,-10.8402 -10,-3.7395 c -5.5,-2.05672 -12.55106,-5.017 -15.66903,-6.5784 l -5.66902,-2.8389 -6.95984,6.44375 c -8.03546,7.4396 -14.42918,11.19662 -22.73707,13.36055 -10.84509,2.82479 -22.33176,1.60496 -33.209114,-3.52664 -6.64025,-3.13266 -40.06371,-36.55613 -43.19638,-43.19638 -5.1316,-10.87735 -6.35142,-22.36402 -3.52664,-33.20911 2.15729,-8.28237 5.91736,-14.69773 13.26725,-22.63629 l 6.35044,-6.85907 -4.5753,-9.98138 c -2.51641,-5.48976 -4.5753,-10.20679 -4.5753,-10.48229 0,-0.2755 -0.93233,-2.99279 -2.07184,-6.03842 l -2.07185,-5.53751 h -8.21806 c -23.74632,0 -42.21029,-13.48688 -47.80497,-34.91881 -2.47960002,-9.49876 -2.47960002,-46.66362 0,-56.16238 5.59468,-21.43193 24.05865,-34.91881 47.80497,-34.91881 h 8.21806 l 2.07185,-5.53751 c 1.13951,-3.04563 2.07184,-5.76292 2.07184,-6.03842 0,-0.2755 2.05889,-4.99253 4.5753,-10.48229 l 4.5753,-9.98138 -6.35044,-6.85907 c -7.34989,-7.93856 -11.10996,-14.35392 -13.26725,-22.63629 -2.83134,-10.87026 -1.59662,-22.41606 3.55141,-33.20911 2.47099,-5.18053 31.17773,-35.207609 38.55186,-40.325015 C 100.00903,54.69713 107.76487,52.042696 116,51.465672 c 14.51698,-1.017186 26.04365,3.359685 37.99965,14.429109 l 7.1623,6.63119 5.66902,-2.838897 C 169.94894,68.125678 177,65.165399 182.5,63.108676 l 10,-3.739497 0.6256,-10.840206 c 1.12669,-19.523131 8.00871,-31.592055 23.21771,-40.716663 8.97864,-5.3867175 16.34849,-6.6235425 39.46761,-6.6235425 22.74055,0 28.10316,0.747669 37.18908,5.1849875 16.40068,8.009652 26,24.399523 26,44.39236 v 8.15715 l 8.75,3.297195 c 4.8125,1.813456 12.02529,4.82849 16.02842,6.700075 l 7.27841,3.402886 6.85045,-6.342471 c 3.76775,-3.488357 9.07615,-7.553844 11.79645,-9.034416 10.13322,-5.515187 23.35756,-7.181594 34.16485,-4.305131 11.07614,2.948023 15.76979,6.261466 31.93944,22.547368 8.46414,8.525 16.742,17.44946 18.39522,19.832139 4.18875,6.03694 6.9779,14.4239 7.54735,22.69485 0.96291,13.98583 -3.5267,25.66735 -14.3633,37.37188 l -6.53789,7.06153 4.5753,9.98138 c 2.51642,5.48976 4.5753,10.20679 4.5753,10.48229 0,0.2755 0.93233,2.99279 2.07185,6.03842 l 2.07185,5.53751 h 8.21805 c 18.73728,0 33.86384,8.00796 42.61262,22.55902 5.78089,9.61483 6.90222,16.01057 6.96798,39.74357 0.0667,24.08112 -1.09812,31.24037 -6.56589,40.3541 -9.13891,15.23284 -21.1924,22.09419 -40.7871,23.21771 l -10.91064,0.6256 -2.29333,6.80833 c -1.26133,3.74458 -4.14995,10.83881 -6.41915,15.76495 l -4.12582,8.95663 6.54238,7.06637 c 10.84119,11.70948 15.33083,23.38897 14.36779,37.37673 -0.56945,8.27095 -3.3586,16.6579 -7.54735,22.69484 -1.65322,2.38268 -9.93108,11.30715 -18.39522,19.83215 -16.16965,16.2859 -20.8633,19.59934 -31.93944,22.54736 -10.80729,2.87647 -24.03163,1.21006 -34.16485,-4.30513 -2.7203,-1.48057 -8.0287,-5.54606 -11.79645,-9.03441 l -6.85045,-6.34247 -7.27841,3.40288 c -4.00313,1.87159 -11.21592,4.88662 -16.02842,6.70008 l -8.75,3.29719 v 8.15715 c 0,23.68273 -13.51057,42.15558 -34.91881,47.74408 -9.45192,2.46737 -46.66598,2.47997 -56.08119,0.019 z m 52.09272,-30.51074 c 2.74756,-1.44945 5.2484,-3.80312 6.64083,-6.25 2.02015,-3.54998 2.23512,-5.2845 2.25,-18.15474 0.0183,-15.83477 1.26027,-20.92797 5.88019,-24.11417 1.44994,-0.99998 8.48626,-3.70745 15.63626,-6.01661 7.15,-2.30916 19.2801,-7.33519 26.95578,-11.16896 7.67568,-3.83378 15.00264,-6.9705 16.28212,-6.9705 4.73872,0 9.55322,3.16025 19.52986,12.81948 5.62773,5.44868 11.21516,10.4183 12.4165,11.0436 2.73673,1.42448 9.29566,1.46864 13.00064,0.0875 3.75473,-1.39965 30.14438,-27.58295 31.91809,-31.66849 0.76835,-1.76981 1.39701,-5.19451 1.39701,-7.61042 0,-5.64289 -2.57917,-9.53302 -14.03694,-21.17167 C 409.30581,362.89484 407,359.3489 407,354.82945 c 0,-1.22601 3.13672,-8.50922 6.9705,-16.1849 3.83377,-7.67568 8.8598,-19.80578 11.16896,-26.95578 2.30916,-7.15 5.01663,-14.18632 6.01661,-15.63626 3.1862,-4.61992 8.2794,-5.86188 24.11417,-5.88019 12.87024,-0.0149 14.60476,-0.22985 18.15474,-2.25 2.44688,-1.39243 4.80055,-3.89327 6.25,-6.64083 2.20536,-4.18047 2.32502,-5.42038 2.32502,-24.09272 0,-18.67234 -0.11966,-19.91225 -2.32502,-24.09272 -1.44945,-2.74756 -3.80312,-5.2484 -6.25,-6.64083 -3.54998,-2.02015 -5.2845,-2.23512 -18.15474,-2.25 -15.83477,-0.0183 -20.92797,-1.26027 -24.11417,-5.88019 -0.99998,-1.44994 -3.70745,-8.48626 -6.01661,-15.63626 -2.30916,-7.15 -7.33519,-19.2801 -11.16896,-26.95578 C 410.13672,168.05731 407,160.7741 407,159.54809 c 0,-4.51945 2.30581,-8.06539 10.96306,-16.85932 C 429.35944,131.11247 432,127.14805 432,121.61432 c 0,-2.36244 -0.47222,-5.56215 -1.04939,-7.11045 -1.39965,-3.75473 -27.58295,-30.144389 -31.66849,-31.918089 -3.88893,-1.68834 -10.60702,-1.81684 -13.59786,-0.2601 -1.20134,0.62531 -6.78877,5.59493 -12.4165,11.04361 -9.98733,9.669579 -14.79037,12.819479 -19.54739,12.819479 -1.28912,0 -8.5978,-3.13868 -16.2415,-6.97485 -7.72243,-3.87568 -19.69204,-8.838439 -26.93825,-11.168969 -7.17234,-2.30676 -14.22694,-5.01228 -15.67688,-6.01225 -4.61992,-3.1862 -5.86188,-8.27941 -5.88019,-24.11417 -0.0149,-12.870243 -0.22985,-14.604759 -2.25,-18.154742 -1.39243,-2.446886 -3.89327,-4.800549 -6.64083,-6.25 -4.18047,-2.205366 -5.42038,-2.325022 -24.09272,-2.325022 -18.67234,0 -19.91225,0.119656 -24.09272,2.325022 -2.74756,1.449451 -5.2484,3.803114 -6.64083,6.25 -2.02015,3.549983 -2.23512,5.284499 -2.25,18.154742 -0.0183,15.83476 -1.26027,20.92797 -5.88019,24.11417 -1.44994,0.99997 -8.50454,3.70549 -15.67688,6.01225 -7.24621,2.33053 -19.21582,7.293289 -26.93825,11.168969 -7.6437,3.83617 -15.05042,6.95455 -16.45938,6.92975 -4.50226,-0.0793 -7.71151,-2.23129 -18.57369,-12.454899 -5.84353,-5.5 -11.60638,-10.54656 -12.80633,-11.21457 -2.9608,-1.64827 -10.04052,-1.5917 -13.96385,0.11158 -4.08554,1.7737 -30.268834,28.163359 -31.668494,31.918089 -1.8187,4.87887 -1.27246,11.08429 1.30237,14.79535 1.29347,1.86425 6.29161,7.38732 11.10699,12.27348 C 102.07883,150.3195 105,154.84903 105,159.4684 c 0,1.28912 -3.13868,8.5978 -6.974844,16.2415 -3.87568,7.72243 -8.83844,19.69204 -11.16897,26.93825 -2.30676,7.17234 -5.01228,14.22694 -6.01226,15.67688 -3.18619,4.61992 -8.2794,5.86188 -24.11416,5.88019 -12.87024,0.0149 -14.60476,0.22985 -18.15474,2.25 -2.44689,1.39243 -4.80055,3.89327 -6.25,6.64083 -2.20537,4.18047 -2.32503,5.42038 -2.32503,24.09272 0,18.67234 0.11966,19.91225 2.32503,24.09272 1.44945,2.74756 3.80311,5.2484 6.25,6.64083 3.54998,2.02015 5.2845,2.23512 18.15474,2.25 15.83476,0.0183 20.92797,1.26027 24.11416,5.88019 0.99998,1.44994 3.7055,8.50454 6.01226,15.67688 2.33053,7.24621 7.29329,19.21582 11.16897,26.93825 3.836164,7.6437 6.974844,14.95238 6.974844,16.2415 0,4.68287 -2.98279,9.22557 -12.646514,19.26027 -5.41942,5.62746 -10.40004,11.19646 -11.06805,12.37555 -1.6486,2.90991 -1.59177,10.00244 0.11158,13.92593 1.7737,4.08554 28.163354,30.26884 31.918084,31.66849 4.36819,1.62834 10.85922,1.24578 14.1849,-0.836 1.65,-1.03285 7.27434,-6.05086 12.49853,-11.15113 9.34944,-9.12766 13.67732,-11.96348 18.25805,-11.96348 1.27645,0 8.77942,3.19695 16.67326,7.10434 7.89385,3.90739 20.02644,8.93498 26.96131,11.17243 6.93487,2.23745 13.79517,4.88469 15.24511,5.88276 4.61922,3.17966 5.86188,8.27497 5.88019,24.11071 0.0149,12.87024 0.22985,14.60476 2.25,18.15474 1.39243,2.44688 3.89327,4.80055 6.64083,6.25 4.18047,2.20536 5.42038,2.32502 24.09272,2.32502 18.67234,0 19.91225,-0.11966 24.09272,-2.32502 z M 234,366.30614 c -52.78463,-11.59589 -89,-55.99731 -89,-109.11737 0,-53.3695 36.75632,-98.25779 89.32688,-109.08956 13.10221,-2.69961 35.6231,-2.27017 48.17312,0.9186 40.00853,10.16555 70.99141,41.16827 81.6187,81.67096 2.04913,7.80965 2.36146,11.31457 2.36146,26.5 0,15.18543 -0.31233,18.69035 -2.36146,26.5 -10.58301,40.33392 -41.10394,70.9899 -81.1187,81.47764 -12.2128,3.20094 -36.9936,3.77733 -49,1.13973 z m 45.5,-31.10685 c 28.82936,-9.2183 51.17129,-33.95048 56.40923,-62.44418 1.40054,-7.61877 1.40054,-23.51391 0,-31.13268 -4.26848,-23.21995 -20.25627,-44.67139 -41.947,-56.28188 -13.34115,-7.14119 -20.09936,-8.65617 -38.46223,-8.62206 -14.87536,0.0276 -16.56232,0.22532 -24,2.81248 -26.51518,9.22315 -45.5981,28.65683 -53.67128,54.6578 -2.04211,6.57694 -2.32229,9.46919 -2.27648,23.5 0.0478,14.64632 0.28003,16.67684 2.74469,24 9.40921,27.95734 31.94478,48.5754 60.20307,55.08051 9.3612,2.15496 32.07009,1.28539 41,-1.56999 z"
       id="path1" />
  </g>
</svg>
