<?xml version="1.0" encoding="UTF-8" standalone="no"?>
<!-- Created with Inkscape (http://www.inkscape.org/) -->

<svg
   version="1.1"
   id="svg1"
   width="135"
   height="135"
   viewBox="0 0 135 135"
   sodipodi:docname="settings_two.svg"
   inkscape:version="1.3.2 (091e20e, 2023-11-25, custom)"
   xmlns:inkscape="http://www.inkscape.org/namespaces/inkscape"
   xmlns:sodipodi="http://sodipodi.sourceforge.net/DTD/sodipodi-0.dtd"
   xmlns="http://www.w3.org/2000/svg"
   xmlns:svg="http://www.w3.org/2000/svg">
  <defs
     id="defs1" />
  <sodipodi:namedview
     id="namedview1"
     pagecolor="#ffffff"
     bordercolor="#000000"
     borderopacity="0.25"
     inkscape:showpageshadow="2"
     inkscape:pageopacity="0.0"
     inkscape:pagecheckerboard="0"
     inkscape:deskcolor="#d1d1d1"
     inkscape:zoom="1.2519531"
     inkscape:cx="256.39938"
     inkscape:cy="128.59907"
     inkscape:window-width="1346"
     inkscape:window-height="860"
     inkscape:window-x="343"
     inkscape:window-y="36"
     inkscape:window-maximized="0"
     inkscape:current-layer="g1" />
  <g
     inkscape:groupmode="layer"
     inkscape:label="Image"
     id="g1">
    <path
       style="fill:#ffffff;fill-opacity:1;stroke:none;stroke-width:0.25;stroke-opacity:1"
       d="m 60.175191,131.13146 c -2.75428,-0.71993 -5.233085,-2.45974 -6.73489,-4.72705 -1.298009,-1.95964 -1.812344,-3.68499 -1.983711,-6.65444 l -0.1564,-2.71005 -2.5,-0.93487 c -1.375,-0.51418 -3.137765,-1.25425 -3.917258,-1.6446 l -1.417255,-0.70973 -1.73996,1.61094 c -2.008865,1.8599 -3.607295,2.79916 -5.684267,3.34014 -2.711273,0.7062 -5.58294,0.40124 -8.302279,-0.88166 -1.660062,-0.78317 -10.015927,-9.13903 -10.799095,-10.7991 -1.2829,-2.71933 -1.587855,-5.59101 -0.88166,-8.302275 0.539323,-2.070595 1.47934,-3.674435 3.316813,-5.659075 l 1.58761,-1.714765 -1.143825,-2.495345 c -0.629103,-1.37244 -1.143825,-2.5517 -1.143825,-2.620575 0,-0.06888 -0.233083,-0.748195 -0.51796,-1.509605 l -0.517963,-1.384375 h -2.054515 c -5.9365796,0 -10.5525721,-3.37172 -11.9512421,-8.729705 -0.6199001,-2.37469 -0.6199001,-11.665905 0,-14.040595 1.39867,-5.35798 6.0146625,-8.729701 11.9512421,-8.729701 h 2.054515 l 0.517963,-1.384377 c 0.284877,-0.761408 0.51796,-1.44073 0.51796,-1.509605 0,-0.06887 0.514722,-1.248133 1.143825,-2.620573 l 1.143825,-2.495345 -1.58761,-1.714767 c -1.837473,-1.98464 -2.77749,-3.58848 -3.316813,-5.659073 -0.707835,-2.717565 -0.399155,-5.604015 0.887853,-8.302277 0.617747,-1.295133 7.794432,-8.801903 9.637965,-10.081254 1.593213,-1.105639 3.532173,-1.769247 5.590956,-1.913503 3.629245,-0.254297 6.510912,0.839921 9.499912,3.607277 l 1.790575,1.657797 1.417255,-0.709724 c 0.779493,-0.390349 2.542258,-1.130419 3.917258,-1.644599 l 2.5,-0.934875 0.1564,-2.710051 c 0.281672,-4.880783 2.002176,-7.898014 5.804426,-10.179166 2.24466,-1.3466794 4.087125,-1.6558856 9.866905,-1.6558856 5.685135,0 7.02579,0.1869172 9.29727,1.2962469 4.10017,2.002413 6.5,6.0998807 6.5,11.0980897 v 2.039288 l 2.1875,0.824299 c 1.203125,0.453364 3.00632,1.207122 4.007105,1.675018 l 1.8196,0.850722 1.712615,-1.585618 c 0.941935,-0.872089 2.269035,-1.888461 2.94911,-2.258604 2.533305,-1.378797 5.839389,-1.795398 8.541219,-1.076283 2.76903,0.737006 3.94244,1.565367 7.98486,5.636842 2.11603,2.13125 4.1855,4.362365 4.5988,4.958035 1.04719,1.509235 1.74448,3.605975 1.88684,5.673713 0.24073,3.496457 -0.88168,6.416837 -3.59083,9.34297 l -1.63447,1.765382 1.14383,2.495345 c 0.6291,1.37244 1.14382,2.551698 1.14382,2.620573 0,0.06887 0.23308,0.748197 0.51796,1.509605 l 0.51797,1.384377 h 2.05451 c 4.68432,0 8.46596,2.001991 10.65315,5.639756 1.44523,2.403705 1.72556,4.00264 1.742,9.93589 0.0166,6.02028 -0.27453,7.810095 -1.64147,10.088525 -2.28473,3.80821 -5.2981,5.52355 -10.19678,5.80443 l -2.72766,0.1564 -0.57333,1.70208 c -0.31533,0.936145 -1.03749,2.709705 -1.60479,3.94124 l -1.03145,2.239155 1.63559,1.766595 c 2.7103,2.92737 3.83271,5.84724 3.59195,9.344185 -0.14236,2.06774 -0.83965,4.16447 -1.88684,5.67371 -0.4133,0.59567 -2.48277,2.82679 -4.5988,4.95804 -4.04242,4.07147 -5.21583,4.89983 -7.98486,5.63684 -2.70183,0.71911 -6.007914,0.30251 -8.541219,-1.07629 -0.680075,-0.37014 -2.007175,-1.38651 -2.94911,-2.2586 l -1.712615,-1.58562 -1.8196,0.85072 c -1.000785,0.4679 -2.80398,1.22166 -4.007105,1.67502 l -2.1875,0.8243 v 2.03929 c 0,5.92068 -3.377645,10.53889 -8.729705,11.93602 -2.36298,0.61684 -11.666495,0.61999 -14.020295,0.005 z m 13.02318,-7.62769 c 0.68689,-0.36236 1.3121,-0.95078 1.660205,-1.5625 0.50504,-0.88749 0.55878,-1.32112 0.5625,-4.53868 0.0045,-3.9587 0.31507,-5.232 1.47005,-6.02855 0.362485,-0.24999 2.121565,-0.92686 3.909065,-1.50415 1.7875,-0.57729 4.820025,-1.8338 6.738945,-2.79224 1.91892,-0.95844 3.75066,-1.74262 4.07053,-1.74262 1.18468,0 2.388305,0.79006 4.882465,3.20487 1.40693,1.36217 2.80379,2.60457 3.104125,2.7609 0.684184,0.35612 2.323914,0.36716 3.250164,0.0219 0.93868,-0.34992 7.53609,-6.89574 7.97952,-7.91713 0.19209,-0.44245 0.34925,-1.29863 0.34925,-1.90261 0,-1.41072 -0.64479,-2.38325 -3.50923,-5.29291 -2.16432,-2.198485 -2.74077,-3.08497 -2.74077,-4.21483 0,-0.306505 0.78418,-2.127305 1.74263,-4.046225 0.95844,-1.91892 2.21495,-4.951445 2.79224,-6.738945 0.57729,-1.7875 1.25415,-3.54658 1.50415,-3.909065 0.79655,-1.15498 2.06985,-1.46547 6.02854,-1.47005 3.21756,-0.0035 3.65119,-0.05746 4.53869,-0.5625 0.61172,-0.348105 1.20013,-0.973315 1.5625,-1.660205 0.55134,-1.04512 0.58125,-1.355095 0.58125,-6.02318 0,-4.668085 -0.0299,-4.978065 -0.58125,-6.02318 -0.36237,-0.68689 -0.95078,-1.3121 -1.5625,-1.66021 -0.8875,-0.505035 -1.32113,-0.55878 -4.53869,-0.5625 -3.95869,-0.0045 -5.23199,-0.315065 -6.02854,-1.470045 -0.25,-0.362485 -0.92686,-2.121565 -1.50415,-3.909065 -0.57729,-1.787501 -1.8338,-4.820026 -2.79224,-6.738946 -0.95845,-1.91892 -1.74263,-3.739722 -1.74263,-4.046225 0,-1.129862 0.57645,-2.016347 2.74077,-4.21483 2.84909,-2.894075 3.50923,-3.88518 3.50923,-5.268612 0,-0.59061 -0.11805,-1.390538 -0.26235,-1.777613 -0.34991,-0.938682 -6.89573,-7.536097 -7.91712,-7.979522 -0.97223,-0.422085 -2.65175,-0.45421 -3.399464,-0.06503 -0.300335,0.156327 -1.697195,1.398732 -3.104125,2.760902 -2.496835,2.417395 -3.697595,3.20487 -4.88685,3.20487 -0.32228,0 -2.14945,-0.78467 -4.060375,-1.743712 -1.930605,-0.96892 -4.92301,-2.20961 -6.73456,-2.792243 -1.793085,-0.57669 -3.556735,-1.25307 -3.91922,-1.503062 -1.15498,-0.79655 -1.46547,-2.069853 -1.47005,-6.028543 -0.0035,-3.21756 -0.05746,-3.651189 -0.5625,-4.538685 -0.348105,-0.611722 -0.973315,-1.200137 -1.660205,-1.5625 -1.04512,-0.551342 -1.355095,-0.581256 -6.02318,-0.581256 -4.668085,0 -4.978065,0.02991 -6.02318,0.581256 -0.68689,0.362363 -1.3121,0.950778 -1.66021,1.5625 -0.505035,0.887496 -0.55878,1.321125 -0.5625,4.538685 -0.0045,3.95869 -0.315065,5.231993 -1.470045,6.028543 -0.362485,0.249992 -2.126135,0.926372 -3.91922,1.503062 -1.811554,0.582633 -4.803956,1.823323 -6.734564,2.792243 -1.910925,0.959042 -3.762605,1.738637 -4.114845,1.732437 -1.125565,-0.01983 -1.927877,-0.557822 -4.643422,-3.113725 -1.460883,-1.375 -2.901595,-2.63664 -3.201583,-2.803642 -0.7402,-0.412068 -2.51013,-0.397925 -3.490962,0.0279 -1.021385,0.443425 -7.567209,7.04084 -7.917124,7.979522 -0.454675,1.219718 -0.318115,2.771073 0.325593,3.698838 0.323367,0.466062 1.572902,1.84683 2.776747,3.06837 2.155021,2.1867 2.885314,3.319082 2.885314,4.473925 0,0.32228 -0.78467,2.14945 -1.743711,4.060375 -0.96892,1.930607 -2.20961,4.92301 -2.792243,6.734563 -0.57669,1.793085 -1.25307,3.556735 -1.503065,3.91922 -0.796547,1.15498 -2.06985,1.46547 -6.02854,1.470045 -3.21756,0.0035 -3.65119,0.05747 -4.538685,0.5625 -0.611722,0.34811 -1.200137,0.97332 -1.5625,1.66021 -0.551342,1.045115 -0.581257,1.355095 -0.581257,6.02318 0,4.668085 0.02992,4.97806 0.581257,6.02318 0.362363,0.68689 0.950778,1.3121 1.5625,1.660205 0.887495,0.50504 1.321125,0.55878 4.538685,0.5625 3.95869,0.0045 5.231993,0.31507 6.02854,1.47005 0.249995,0.362485 0.926375,2.126135 1.503065,3.91922 0.582633,1.81155 1.823323,4.803955 2.792243,6.73456 0.959041,1.910925 1.743711,3.738095 1.743711,4.060375 0,1.17072 -0.745698,2.306395 -3.161629,4.81507 -1.354855,1.406865 -2.60001,2.799115 -2.767012,3.093885 -0.41215,0.727475 -0.397943,2.500615 0.0279,3.481485 0.443425,1.02139 7.040838,7.56721 7.979521,7.91712 1.092047,0.40709 2.714805,0.31145 3.546225,-0.209 0.4125,-0.25821 1.818585,-1.51271 3.124632,-2.78778 2.33736,-2.28191 3.41933,-2.99087 4.564513,-2.99087 0.319112,0 2.194855,0.79924 4.168315,1.77609 1.973462,0.97684 5.00661,2.23374 6.740326,2.7931 1.73372,0.55937 3.448795,1.22118 3.81128,1.47069 1.154805,0.79492 1.46547,2.06875 1.470045,6.02768 0.0035,3.21756 0.05747,3.65119 0.5625,4.53869 0.34811,0.61172 0.97332,1.20013 1.66021,1.5625 1.045115,0.55134 1.355095,0.58125 6.02318,0.58125 4.668085,0 4.97806,-0.0299 6.02318,-0.58125 z M 61.675191,94.864365 C 48.479032,91.965395 39.42519,80.86504 39.42519,67.585025 c 0,-13.342375 9.18908,-24.564448 22.331721,-27.272391 3.27555,-0.674902 8.905775,-0.567542 12.04328,0.22965 10.00213,2.541388 17.74785,10.292068 20.404675,20.417741 0.51228,1.95241 0.590365,2.82864 0.590365,6.625 0,3.796355 -0.07809,4.672585 -0.590365,6.625 -2.645755,10.08348 -10.275985,17.747475 -20.279675,20.36941 -3.0532,0.800235 -9.2484,0.94433 -12.25,0.28493 z m 11.375,-7.77671 c 7.20734,-2.304575 12.79282,-8.48762 14.102305,-15.611045 0.350135,-1.904695 0.350135,-5.87848 0,-7.78317 -1.06712,-5.80499 -5.064065,-11.167848 -10.48675,-14.070471 -3.335285,-1.785297 -5.02484,-2.164042 -9.615555,-2.155515 -3.71884,0.0069 -4.14058,0.05633 -6,0.70312 -6.628795,2.305788 -11.399526,7.164206 -13.417821,13.664451 -0.510528,1.644235 -0.580573,2.367295 -0.56912,5.875 0.01195,3.66158 0.07001,4.16921 0.686172,6 2.352303,6.989335 7.986194,12.14385 15.050769,13.770125 2.3403,0.53874 8.01752,0.32135 10.25,-0.392495 z"
       id="path1" />
  </g>
</svg>
