<?xml version="1.0" encoding="UTF-8" standalone="no"?>
<!-- Created with Inkscape (http://www.inkscape.org/) -->

<svg
   version="1.1"
   id="svg1"
   width="490"
   height="470"
   viewBox="0 0 490 470"
   sodipodi:docname="setting_lv.svg"
   inkscape:version="1.3.2 (091e20e, 2023-11-25, custom)"
   xmlns:inkscape="http://www.inkscape.org/namespaces/inkscape"
   xmlns:sodipodi="http://sodipodi.sourceforge.net/DTD/sodipodi-0.dtd"
   xmlns="http://www.w3.org/2000/svg"
   xmlns:svg="http://www.w3.org/2000/svg">
  <defs
     id="defs1" />
  <sodipodi:namedview
     id="namedview1"
     pagecolor="#ffffff"
     bordercolor="#000000"
     borderopacity="0.25"
     inkscape:showpageshadow="2"
     inkscape:pageopacity="0.0"
     inkscape:pagecheckerboard="0"
     inkscape:deskcolor="#d1d1d1"
     showgrid="false"
     inkscape:zoom="1.2519531"
     inkscape:cx="255.60063"
     inkscape:cy="255.20125"
     inkscape:window-width="1600"
     inkscape:window-height="837"
     inkscape:window-x="-8"
     inkscape:window-y="-8"
     inkscape:window-maximized="1"
     inkscape:current-layer="g1" />
  <g
     inkscape:groupmode="layer"
     inkscape:label="Image"
     id="g1">
    <path
       style="fill:#ffffff;fill-opacity:1"
       d="m 162.62247,459.63408 c -20.7033,-8.10913 -46.82192,-23.39215 -63.144733,-36.94843 -13.070372,-10.85509 -15.176852,-20.95007 -8.377562,-40.1482 3.63134,-10.25325 3.89487,-11.74675 3.88202,-22 -0.0117,-9.3679 -0.42131,-12.18556 -2.76039,-18.9904 -8.17687,-23.78811 -25.71178,-38.424 -51.42593,-42.92379 -9.71937,-1.70081 -13.94719,-3.48319 -18.921116,-7.97684 -8.750323,-7.90539 -11.696465,-21.66943 -11.68885,-54.60897 0.0051,-22.13824 2.013393,-40.036 5.563205,-49.57935 4.045148,-10.87501 12.925371,-17.33349 26.625501,-19.36439 24.47211,-3.62775 44.14843,-20.25938 51.52993,-43.55626 1.75704,-5.5454 2.21746,-9.38971 2.21573,-18.5 -0.002,-10.075093 -0.36227,-12.553203 -2.90823,-20.000007 -3.73611,-10.92792 -3.84812,-18.57124 -0.38305,-26.13996 3.07245,-6.7111 6.491362,-10.14504 18.653995,-18.73598 12.96003,-9.15417 19.41351,-12.91743 35.24255,-20.55125 22.15087,-10.6826199 28.96508,-12.2265799 39.78297,-9.01401 4.40727,1.30882 7.04234,3.27506 16.4315,12.26093 8.63443,8.26355 12.92082,11.56025 18.81156,14.46813 17.82309,8.79813 37.46225,8.85805 55.52665,0.16942 5.92216,-2.84844 9.94426,-5.93515 18.86789,-14.47992 9.54423,-9.13902 12.173,-11.10676 16.59032,-12.41856 11.16575,-3.3158699 17.65951,-1.7236999 42.38604,10.39242 23.13235,11.33497 47.24534,28.09545 53.25926,37.01951 5.6421,8.37231 6.31833,17.93071 2.1003,29.687414 -2.94384,8.20522 -3.68323,25.531233 -1.46636,34.360883 2.92505,11.65023 8.1075,20.62872 17.0346,29.51212 9.72447,9.67685 18.69935,14.49548 32.66877,17.53992 13.92978,3.0358 20.8597,8.2317 25.24604,18.92894 4.93081,12.02506 6.76705,54.45312 3.33247,77 -2.29909,15.09284 -3.96251,19.9089 -8.75799,25.35685 -5.67671,6.44909 -9.43155,8.41545 -20.57313,10.77389 -21.77708,4.60977 -37.29612,16.14205 -46.28002,34.39095 -6.96249,14.14281 -7.98499,33.55787 -2.55314,48.47831 5.60406,15.39348 3.07605,26.8773 -8.11235,36.85147 -13.47838,12.01564 -35.15906,25.59283 -55.39845,34.69243 -13.22616,5.94646 -20.47103,6.79787 -29.34346,3.44844 -4.32511,-1.63278 -7.18332,-3.64939 -11,-7.76103 -13.9949,-15.07648 -21.60817,-20.53972 -34.15654,-24.51059 -10.12192,-3.20303 -27.17749,-3.14891 -37,0.11741 -13.21521,4.39449 -22.24936,10.94124 -32.05198,23.22702 -10.56171,13.23715 -22.57585,16.14002 -39.44802,9.53148 z m 99.56634,-144.64736 c 29.58431,-5.23877 53.31344,-25.0777 62.8408,-52.53856 7.01452,-20.21805 5.80596,-41.78178 -3.41814,-60.98842 -22.37819,-46.59636 -81.56991,-59.82388 -122.51786,-27.37895 -19.39366,15.36647 -30.76173,41.47064 -29.13969,66.91258 2.09926,32.92735 23.80547,60.98522 54.96807,71.05282 12.11186,3.91293 25.71435,4.98624 37.26682,2.94053 z"
       id="path1" />
  </g>
</svg>
