<?xml version="1.0" encoding="UTF-8" standalone="no"?>
<!-- Created with Inkscape (http://www.inkscape.org/) -->

<svg
   width="150mm"
   height="147mm"
   viewBox="0 0 150 147"
   version="1.1"
   id="svg1"
   xml:space="preserve"
   inkscape:version="1.3.2 (091e20e, 2023-11-25, custom)"
   sodipodi:docname="tools.svg"
   xmlns:inkscape="http://www.inkscape.org/namespaces/inkscape"
   xmlns:sodipodi="http://sodipodi.sourceforge.net/DTD/sodipodi-0.dtd"
   xmlns="http://www.w3.org/2000/svg"
   xmlns:svg="http://www.w3.org/2000/svg"><sodipodi:namedview
     id="namedview1"
     pagecolor="#ffffff"
     bordercolor="#000000"
     borderopacity="0.25"
     inkscape:showpageshadow="2"
     inkscape:pageopacity="0.0"
     inkscape:pagecheckerboard="0"
     inkscape:deskcolor="#d1d1d1"
     inkscape:document-units="mm"
     inkscape:zoom="0.57103676"
     inkscape:cx="397.52257"
     inkscape:cy="281.06772"
     inkscape:window-width="1600"
     inkscape:window-height="837"
     inkscape:window-x="-8"
     inkscape:window-y="-8"
     inkscape:window-maximized="1"
     inkscape:current-layer="layer1" /><defs
     id="defs1" /><g
     inkscape:label="Laag 1"
     inkscape:groupmode="layer"
     id="layer1"><path
       style="fill:#feffff;fill-opacity:1"
       d="m 28.202506,146.1051 c -0.46567,-0.0566 -2.02627,-0.36529 -3.468,-0.68607 -3.15008,-0.7009 -3.97692,-1.29505 -4.20888,-3.02446 l -0.1631,-1.21593 6.38944,-6.41154 6.38943,-6.41153 v -2.81892 -2.81891 l -3.17942,-3.1704 -3.17942,-3.1704 h -2.95661 -2.95662 l -6.24173,6.23712 c -5.7693004,5.76502 -6.3169404,6.23711 -7.2353504,6.23711 -1.94313,0 -2.58309,-0.74291 -3.45221,-4.00756 -0.71192,-2.67411 -0.89312,-9.10526 -0.3381,-11.99964 1.64333,-8.56987 7.0225204,-15.76392 14.8448804,-19.85334 4.0842,-2.13516 6.95503,-2.88531 11.73124,-3.06539 3.04142,-0.11467 4.46907,-0.0417 6.2008,0.31693 l 2.24969,0.4659 10.36306,-10.36022 10.36306,-10.360224 -17.25722,-17.37479 -17.25722,-17.37478 -3.96331,-0.14721 c -2.17981,-0.081 -4.18907,-0.25465 -4.46501,-0.38597 -0.27594,-0.13133 -3.35569,-5.00107 -6.8438904,-10.821667 -5.44928,-9.09296 -6.34218,-10.741945 -6.34218,-11.712601 0,-1.077858 0.19752,-1.330095 4.30389,-5.4960966 4.3352404,-4.398204 5.2927904,-5.162014 6.4713304,-5.162014 0.35379,0 5.45848,2.885994 11.34376,6.41332 9.21876,5.5252356 10.75348,6.5400786 11.08299,7.3287126 0.25414,0.608251 0.38247,2.126071 0.38247,4.523651 v 3.608259 l 17.28726,17.285536 17.28725,17.28554 10.41958,-10.42244 10.41959,-10.42243 -0.40184,-2.06619 c -0.23005,-1.1829 -0.39383,-3.63461 -0.3831,-5.73507 0.0156,-3.0585 0.14404,-4.128251 0.77193,-6.430008 1.42778,-5.234016 3.51901,-8.880809 7.37172,-12.855142 6.955924,-7.1755246 16.767484,-9.97091061 26.778574,-7.6294186 2.97227,0.695185 3.83628,1.326339 4.05577,2.962716 0.15229,1.135406 0.0987,1.228727 -2.10822,3.668448 -1.24546,1.3768716 -4.05413,4.2797026 -6.24149,6.4507346 l -3.97702,3.94733 0.003,2.826003 0.003,2.826003 3.14645,3.175004 3.14644,3.175 h 2.84522 2.84522 l 6.24173,-6.237115 c 5.7693,-5.765026 6.31694,-6.237111 7.23534,-6.237111 1.95683,0 2.62083,0.780408 3.42509,4.025586 0.33873,1.366762 0.4591,3.18993 0.4591,6.95343 0,4.6018 -0.069,5.33889 -0.70461,7.53244 -2.29937,7.93463 -7.69865,14.28029 -15.14173,17.79572 -3.87899,1.83208 -6.45319,2.44657 -10.97026,2.61872 -2.90377,0.11067 -4.35168,0.0345 -6.05942,-0.31864 l -2.24392,-0.46405 -8.39323,8.38972 -8.393224,8.38973 2.03486,1.8803 2.03487,1.88029 1.371084,-1.23229 c 1.09479,-0.98397 1.5782,-1.23103 2.39889,-1.22601 1.74611,0.0107 3.05716,1.54742 2.74404,3.216484 -0.0945,0.50342 -0.60721,1.32942 -1.15472,1.86009 -0.54167,0.525 -0.98485,1.0493 -0.98485,1.16512 0,0.11582 8.98525,8.4629 19.96723,18.54907 12.21764,11.22105 20.31916,18.86741 20.87402,19.70128 0.49874,0.74953 1.25547,2.12479 1.68161,3.05612 0.71477,1.56211 0.78314,2.02637 0.88229,5.99063 0.0956,3.82109 0.0402,4.49945 -0.49958,6.12153 -2.87499,8.63934 -12.84248,13.49938 -21.5065,10.48633 -4.04937,-1.40823 -4.42515,-1.76925 -24.11832,-23.17069 l -18.292434,-19.87921 -0.99471,0.96613 c -1.69346,1.64478 -3.10727,1.84613 -4.44762,0.63341 -0.78344,-0.70883 -1.0863,-2.17629 -0.63178,-3.06119 0.18778,-0.36559 0.77253,-1.11623 1.29944,-1.66809 l 0.95802,-1.00337 -1.90861,-2.04846 -1.90861,-2.04846 -8.29914,8.31886 -8.29914,8.31887 0.39692,2.21186 c 0.2183,1.21652 0.38698,3.79935 0.37485,5.73963 -0.0253,4.04212 -0.79119,7.46871 -2.49243,11.1508 -2.8948,6.26543 -8.74271,11.85666 -15.07691,14.41516 -4.0666,1.64257 -9.58796,2.40812 -13.73526,1.90442 z m 7.20505,-5.8559 c 8.43478,-1.50499 15.42496,-7.95682 17.82267,-16.45004 0.88053,-3.11903 0.88004,-8.3072 -0.001,-11.58375 -0.34419,-1.27989 -0.55171,-2.62227 -0.46116,-2.98305 0.0916,-0.36513 12.8901,-13.37915 28.86617,-29.35236 25.648424,-25.643834 28.793954,-28.696394 29.570354,-28.696394 0.47785,0 1.86195,0.254 3.07578,0.56445 4.29427,1.09829 10.21019,0.59195 14.3201,-1.22565 6.54572,-2.89483 11.61592,-9.08177 13.07193,-15.95109 0.21838,-1.0303 0.39926,-3.07502 0.40195,-4.54382 l 0.005,-2.67057 -4.88661,4.85779 -4.88662,4.85778 h -4.86406 c -3.65366,0 -5.05371,-0.0996 -5.62617,-0.40042 -1.04337,-0.54821 -8.73166,-8.68214 -9.08507,-9.61169 -0.37108,-0.97601 -0.36967,-8.636796 0.002,-9.613739 0.15761,-0.414538 2.32498,-2.867556 4.81638,-5.451151 l 4.52983,-4.6974436 -1.92361,-0.0914 c -2.55652,-0.121467 -5.64558,0.392629 -8.44777,1.405922 -6.50582,2.3525536 -11.996484,8.3763896 -13.979124,15.3365846 -0.89842,3.153933 -0.90126,8.305643 -0.006,11.640423 0.34344,1.27989 0.55034,2.62227 0.45979,2.98305 -0.0916,0.36514 -12.90682,13.39587 -28.90483,29.39102 l -28.7402,28.735038 -1.36919,-0.17164 c -0.75305,-0.0944 -2.19468,-0.36316 -3.20363,-0.59722 -1.01272,-0.23495 -3.16184,-0.42627 -4.79778,-0.42713 -6.39941,-0.003 -11.85309,2.40943 -16.36393,7.2396 -3.8561,4.12906 -5.6255404,8.42106 -5.8538104,14.19908 l -0.13937,3.52778 4.9173904,-4.86834 4.9174,-4.86833 h 5.16692 5.16693 l 4.51566,4.445 c 2.48361,2.44475 4.69052,4.85367 4.90424,5.35316 0.54529,1.27443 0.54093,8.77804 -0.006,10.03702 -0.21693,0.49948 -2.37593,2.87512 -4.79778,5.27918 -2.42185,2.40407 -4.40337,4.46782 -4.40337,4.58611 0,0.3447 3.90179,0.22937 6.21727,-0.18377 z m 12.54915,-38.66462 c -0.88985,-0.88985 -1.13522,-1.94707 -0.69728,-3.00435 0.46514,-1.12295 1.30164,-1.67662 2.53308,-1.67662 1.23144,0 2.06793,0.55367 2.53307,1.67662 0.74226,1.79198 -0.5592,3.6856 -2.53307,3.6856 -0.84424,0 -1.33765,-0.1831 -1.8358,-0.68125 z m 8.09983,-7.92343 c -0.99517,-0.83738 -1.26852,-1.94836 -0.76457,-3.10747 0.20248,-0.4657 8.54541,-9.00649 18.53985,-18.979514 17.37692,-17.33971 18.21663,-18.13278 19.19898,-18.13278 2.03518,0 3.41377,1.99961 2.62669,3.80993 -0.20248,0.4657 -8.54541,9.00649 -18.53984,18.97951 -17.37693,17.339714 -18.21664,18.132784 -19.19899,18.132784 -0.68282,0 -1.30723,-0.23555 -1.86212,-0.70246 z m 43.26462,-43.441014 c -0.88985,-0.88985 -1.13522,-1.94707 -0.69728,-3.00436 0.46514,-1.12295 1.30163,-1.67661 2.533074,-1.67661 1.23144,0 2.06794,0.55366 2.53308,1.67661 0.74226,1.79198 -0.55921,3.68561 -2.53308,3.68561 -0.84423,0 -1.337644,-0.1831 -1.835794,-0.68125 z m 34.302614,90.025474 c 3.26676,-0.85316 6.11506,-3.23092 7.55792,-6.30935 0.66986,-1.42919 0.75637,-1.95269 0.75637,-4.57709 0,-2.63417 -0.0852,-3.14509 -0.76666,-4.59958 -0.42166,-0.89993 -1.12016,-2.0593 -1.55222,-2.57638 -0.92977,-1.11272 -39.54368,-36.56849 -39.825754,-36.56849 -0.10637,0 -3.04664,2.85536 -6.53394,6.34523 l -6.34053,6.34524 1.1532,1.20421 c 0.63425,0.66232 8.61371,9.33221 17.732114,19.26643 15.88806,17.30955 18.24149,19.74146 19.96868,20.63463 2.25051,1.16378 5.33579,1.49199 7.85082,0.83515 z m -5.65571,-10.35113 c -0.38805,-0.15157 -6.64293,-6.2074 -13.89973,-13.45739 -13.88048,-13.86747 -14.00912,-14.01988 -13.1864,-15.62321 0.55328,-1.07823 1.46184,-1.63947 2.66497,-1.64622 1.10349,-0.006 1.31813,0.19179 14.605,13.47041 13.36408,13.35578 13.48505,13.48695 13.48505,14.62234 0,1.25586 -0.67889,2.22386 -1.87992,2.68049 -0.82196,0.31251 -0.87342,0.31118 -1.78897,-0.0464 z m -38.520924,-42.03431 6.20648,-6.22123 -1.97556,-1.81099 c -1.08655,-0.99605 -2.04016,-1.816 -2.11912,-1.82211 -0.079,-0.006 -2.85869,2.7062 -6.17717,6.02737 l -6.03358,6.03849 1.80271,1.97675 c 0.9915,1.08722 1.8673,1.9894 1.94624,2.00485 0.0789,0.0154 2.93643,-2.77146 6.35,-6.19313 z m -23.99005,-23.977824 1.96166,-1.97681 -18.12646,-18.14091 -18.12645,-18.14091 v -3.831311 -3.831307 l -8.30268,-4.978745 c -4.56647,-2.73831 -8.40822,-4.9828336 -8.53722,-4.9878306 -0.129,-0.005 -1.26288,1.097085 -2.51974,2.4490716 l -2.2852004,2.458157 4.9500904,8.248993 4.95009,8.248992 3.70757,0.0969 c 3.50745,0.0917 3.75968,0.13732 4.67289,0.84517 0.53092,0.41153 8.71231,8.55409 18.18087,18.09456 9.46855,9.54048 17.28246,17.36353 17.36423,17.38454 0.0818,0.021 1.03143,-0.85135 2.11035,-1.9386 z"
       id="path1" /></g></svg>
